NotoSerifBengali-SemiCondensedExtraLight.ufo
<glyph name="exclam" format="2">
  <advance width="270.73636363636365"/>
  <unicode hex="0021"/>
  <outline>
    <contour>
      <point x="126.91818181818181" y="174.35353535353534" type="line"/>
      <point x="153.26363636363635" y="174.35353535353534" type="line"/>
      <point x="161.81515151515148" y="714.0" type="line"/>
      <point x="117.36868686868688" y="714.0" type="line"/>
    </contour>
    <contour>
      <point x="138.77575757575758" y="-5.424242424242424" type="curve" smooth="yes"/>
      <point x="157.2030303030303" y="-5.424242424242424"/>
      <point x="173.36262626262626" y="5.271717171717172"/>
      <point x="173.36262626262626" y="39.49090909090909" type="curve" smooth="yes"/>
      <point x="173.36262626262626" y="73.36565656565656"/>
      <point x="157.2030303030303" y="83.56262626262627"/>
      <point x="138.77575757575758" y="83.56262626262627" type="curve" smooth="yes"/>
      <point x="119.69090909090909" y="83.56262626262627"/>
      <point x="103.61111111111111" y="73.36565656565656"/>
      <point x="103.61111111111111" y="39.49090909090909" type="curve" smooth="yes"/>
      <point x="103.61111111111111" y="5.271717171717172"/>
      <point x="119.69090909090909" y="-5.424242424242424"/>
    </contour>
  </outline>
</glyph>
<glyph name="quotedbl" format="2">
  <advance width="287.42727272727274"/>
  <unicode hex="0022"/>
  <outline>
    <contour>
      <point x="204.64141414141415" y="510.710101010101" type="line"/>
      <point x="228.9979797979798" y="510.710101010101" type="line"/>
      <point x="243.31616161616162" y="714.0" type="line"/>
      <point x="189.1909090909091" y="714.0" type="line"/>
    </contour>
    <contour>
      <point x="59.292929292929294" y="510.710101010101" type="line"/>
      <point x="83.78383838383839" y="510.710101010101" type="line"/>
      <point x="98.10202020202021" y="714.0" type="line"/>
      <point x="44.111111111111114" y="714.0" type="line"/>
    </contour>
  </outline>
</glyph>
<glyph name="numbersign" format="2">
  <advance width="511.2666666666667"/>
  <unicode hex="0023"/>
  <outline>
    <contour>
      <point x="72.13131313131314" y="0.0" type="line"/>
      <point x="106.12727272727273" y="0.0" type="line"/>
      <point x="146.56868686868685" y="216.26363636363635" type="line"/>
      <point x="304.8666666666666" y="216.26363636363635" type="line"/>
      <point x="264.29090909090905" y="0.0" type="line"/>
      <point x="298.2868686868687" y="0.0" type="line"/>
      <point x="338.86262626262624" y="216.26363636363635" type="line"/>
      <point x="461.52121212121216" y="216.26363636363635" type="line"/>
      <point x="461.52121212121216" y="247.31616161616162" type="line"/>
      <point x="345.05757575757576" y="247.31616161616162" type="line"/>
      <point x="386.86262626262624" y="472.6060606060606" type="line"/>
      <point x="493.65555555555557" y="472.6060606060606" type="line"/>
      <point x="493.65555555555557" y="503.94848484848484" type="line"/>
      <point x="393.05757575757576" y="503.94848484848484" type="line"/>
      <point x="432.6333333333333" y="714.0" type="line"/>
      <point x="398.5595959595959" y="714.0" type="line"/>
      <point x="359.06161616161614" y="503.94848484848484" type="line"/>
      <point x="200.76363636363635" y="503.94848484848484" type="line"/>
      <point x="240.20505050505048" y="714.0" type="line"/>
      <point x="206.13131313131316" y="714.0" type="line"/>
      <point x="166.7676767676768" y="503.94848484848484" type="line"/>
      <point x="48.666666666666664" y="503.94848484848484" type="line"/>
      <point x="48.666666666666664" y="472.6060606060606" type="line"/>
      <point x="160.62929292929292" y="472.6060606060606" type="line"/>
      <point x="118.63333333333333" y="247.31616161616162" type="line"/>
      <point x="16.532323232323233" y="247.31616161616162" type="line"/>
      <point x="16.532323232323233" y="216.26363636363635" type="line"/>
      <point x="112.57272727272726" y="216.26363636363635" type="line"/>
    </contour>
    <contour>
      <point x="152.8979797979798" y="247.31616161616162" type="line"/>
      <point x="194.7030303030303" y="472.6060606060606" type="line"/>
      <point x="353.0010101010101" y="472.6060606060606" type="line"/>
      <point x="311.19595959595955" y="247.31616161616162" type="line"/>
    </contour>
  </outline>
</glyph>
<glyph name="percent" format="2">
  <advance width="810.7777777777778"/>
  <unicode hex="0025"/>
  <outline>
    <contour>
      <point x="210.51616161616164" y="0.0" type="line"/>
      <point x="247.75757575757575" y="0.0" type="line"/>
      <point x="596.2050505050504" y="714.0" type="line"/>
      <point x="559.0414141414143" y="714.0" type="line"/>
    </contour>
    <contour>
      <point x="186.92727272727274" y="280.0" type="curve" smooth="yes"/>
      <point x="283.49797979797984" y="280.0"/>
      <point x="323.90101010101006" y="367.1090909090909"/>
      <point x="323.90101010101006" y="503.0" type="curve"/>
      <point x="323.90101010101006" y="641.4646464646465"/>
      <point x="280.15959595959595" y="724.0"/>
      <point x="187.92727272727274" y="724.0" type="curve" smooth="yes"/>
      <point x="91.79292929292929" y="724.0"/>
      <point x="50.60909090909091" y="639.8888888888889"/>
      <point x="50.60909090909091" y="503.0" type="curve" smooth="yes"/>
      <point x="50.60909090909091" y="362.67070707070707"/>
      <point x="91.44848484848485" y="280.0"/>
    </contour>
    <contour>
      <point x="185.92929292929293" y="307.73636363636365" type="curve" smooth="yes"/>
      <point x="116.62929292929294" y="307.73636363636365"/>
      <point x="89.18686868686868" y="378.02222222222224"/>
      <point x="89.18686868686868" y="503.0" type="curve"/>
      <point x="89.18686868686868" y="618.1484848484849"/>
      <point x="114.0" y="696.0515151515152"/>
      <point x="186.50606060606063" y="696.0515151515152" type="curve" smooth="yes"/>
      <point x="257.3060606060606" y="696.0515151515152"/>
      <point x="285.11111111111114" y="628.3969696969697"/>
      <point x="285.11111111111114" y="503.0" type="curve" smooth="yes"/>
      <point x="285.11111111111114" y="384.64343434343436"/>
      <point x="260.79898989898993" y="307.73636363636365"/>
    </contour>
    <contour>
      <point x="623.349494949495" y="-10.0" type="curve" smooth="yes"/>
      <point x="719.920202020202" y="-10.0"/>
      <point x="760.3232323232323" y="77.10909090909091"/>
      <point x="760.3232323232323" y="213.0" type="curve" smooth="yes"/>
      <point x="760.3232323232323" y="351.4646464646465"/>
      <point x="716.5818181818182" y="434.0"/>
      <point x="624.349494949495" y="434.0" type="curve" smooth="yes"/>
      <point x="528.1585858585858" y="434.0"/>
      <point x="487.03131313131314" y="349.8888888888889"/>
      <point x="487.03131313131314" y="213.0" type="curve" smooth="yes"/>
      <point x="487.03131313131314" y="72.67070707070707"/>
      <point x="527.9484848484848" y="-10.0"/>
    </contour>
    <contour>
      <point x="622.3515151515152" y="17.736363636363635" type="curve" smooth="yes"/>
      <point x="553.0515151515151" y="17.736363636363635"/>
      <point x="525.6090909090908" y="88.02222222222221"/>
      <point x="525.6090909090908" y="213.0" type="curve" smooth="yes"/>
      <point x="525.6090909090908" y="328.1484848484848"/>
      <point x="550.4222222222222" y="406.05151515151516"/>
      <point x="622.9848484848485" y="406.05151515151516" type="curve" smooth="yes"/>
      <point x="693.7282828282829" y="406.05151515151516"/>
      <point x="721.3989898989898" y="338.3969696969697"/>
      <point x="721.3989898989898" y="213.0" type="curve" smooth="yes"/>
      <point x="721.3989898989898" y="94.64343434343434"/>
      <point x="697.2212121212121" y="17.736363636363635"/>
    </contour>
  </outline>
</glyph>
<glyph name="quotesingle" format="2">
  <advance width="142.21313131313133"/>
  <unicode hex="0027"/>
  <outline>
    <contour>
      <point x="59.292929292929294" y="518.2212121212121" type="line"/>
      <point x="83.78383838383839" y="518.2212121212121" type="line"/>
      <point x="98.10202020202021" y="714.0" type="line"/>
      <point x="44.111111111111114" y="714.0" type="line"/>
    </contour>
  </outline>
</glyph>
<glyph name="parenleft" format="2">
  <advance width="288.6"/>
  <unicode hex="0028"/>
  <outline>
    <contour>
      <point x="229.05656565656565" y="-116.9121212121212" type="curve"/>
      <point x="229.05656565656565" y="-87.64848484848486" type="line"/>
      <point x="107.4909090909091" y="-25.924242424242422"/>
      <point x="82.29696969696971" y="139.0909090909091"/>
      <point x="82.29696969696971" y="315.42424242424244" type="curve" smooth="yes"/>
      <point x="82.29696969696971" y="491.75757575757575"/>
      <point x="105.9939393939394" y="660.6090909090908"/>
      <point x="229.05656565656565" y="717.6515151515151" type="curve"/>
      <point x="229.05656565656565" y="747.2585858585859" type="line"/>
      <point x="100.16666666666666" y="694.539393939394"/>
      <point x="39.95050505050504" y="574.9171717171716"/>
      <point x="39.95050505050504" y="315.42424242424244" type="curve" smooth="yes"/>
      <point x="39.95050505050504" y="55.35151515151516"/>
      <point x="100.16666666666666" y="-63.03939393939394"/>
    </contour>
  </outline>
</glyph>
<glyph name="parenright" format="2">
  <advance width="321.93636363636364"/>
  <unicode hex="0029"/>
  <outline>
    <contour>
      <point x="92.66868686868686" y="-116.9121212121212" type="line"/>
      <point x="221.55858585858587" y="-63.03939393939394"/>
      <point x="281.77474747474747" y="55.35151515151516"/>
      <point x="281.77474747474747" y="315.42424242424244" type="curve" smooth="yes"/>
      <point x="281.77474747474747" y="574.9171717171716"/>
      <point x="221.55858585858587" y="694.539393939394"/>
      <point x="92.66868686868686" y="747.2585858585859" type="curve"/>
      <point x="92.66868686868686" y="717.6515151515151" type="line"/>
      <point x="215.73131313131313" y="660.6090909090908"/>
      <point x="239.00707070707074" y="491.75757575757575"/>
      <point x="239.00707070707074" y="315.42424242424244" type="curve" smooth="yes"/>
      <point x="239.00707070707074" y="139.0909090909091"/>
      <point x="214.2343434343434" y="-25.924242424242422"/>
      <point x="92.66868686868686" y="-87.64848484848486" type="curve"/>
    </contour>
  </outline>
</glyph>
<glyph name="asterisk" format="2">
  <advance width="404.0060606060606"/>
  <unicode hex="002A"/>
  <outline>
    <contour>
      <point x="174.8939393939394" y="378.8444444444445" type="line"/>
      <point x="226.15454545454543" y="378.8444444444445" type="line"/>
      <point x="209.99696969696967" y="549.6838383838384" type="line"/>
      <point x="338.3484848484849" y="462.4646464646464" type="line"/>
      <point x="358.1424242424243" y="509.3909090909091" type="line"/>
      <point x="213.26363636363638" y="569.4222222222222" type="line"/>
      <point x="358.1424242424243" y="629.5878787878788" type="line"/>
      <point x="338.3484848484849" y="677.8767676767677" type="line"/>
      <point x="209.99696969696967" y="589.2383838383838" type="line"/>
      <point x="225.02222222222224" y="760.0" type="line"/>
      <point x="174.8939393939394" y="760.0" type="line"/>
      <point x="190.33838383838383" y="589.9484848484848" type="line"/>
      <point x="62.6979797979798" y="680.0111111111111" type="line"/>
      <point x="41.48282828282829" y="630.5878787878788" type="line"/>
      <point x="185.86262626262626" y="569.4222222222222" type="line"/>
      <point x="41.48282828282829" y="508.3909090909091" type="line"/>
      <point x="62.6979797979798" y="460.4646464646464" type="line"/>
      <point x="189.7050505050505" y="549.3949494949495" type="line"/>
    </contour>
  </outline>
</glyph>
<glyph name="plus" format="2">
  <advance width="509.8666666666667"/>
  <unicode hex="002B"/>
  <outline>
    <contour>
      <point x="237.17373737373737" y="143.0" type="line"/>
      <point x="272.0585858585859" y="143.0" type="line"/>
      <point x="272.0585858585859" y="340.45353535353536" type="line"/>
      <point x="450.9111111111111" y="340.45353535353536" type="line"/>
      <point x="450.9111111111111" y="374.4707070707071" type="line"/>
      <point x="272.0585858585859" y="374.4707070707071" type="line"/>
      <point x="272.0585858585859" y="572.0" type="line"/>
      <point x="237.17373737373737" y="572.0" type="line"/>
      <point x="237.17373737373737" y="374.4707070707071" type="line"/>
      <point x="58.82121212121211" y="374.4707070707071" type="line"/>
      <point x="58.82121212121211" y="340.45353535353536" type="line"/>
      <point x="237.17373737373737" y="340.45353535353536" type="line"/>
    </contour>
  </outline>
</glyph>
<glyph name="comma" format="2">
  <advance width="233.0121212121212"/>
  <unicode hex="002C"/>
  <outline>
    <contour>
      <point x="59.01010101010102" y="-154.0" type="line"/>
      <point x="142.3888888888889" y="-124.8040404040404"/>
      <point x="174.2131313131313" y="-60.27777777777777"/>
      <point x="174.2131313131313" y="7.127272727272729" type="curve" smooth="yes"/>
      <point x="174.2131313131313" y="61.286868686868694"/>
      <point x="149.23434343434343" y="83.27373737373738"/>
      <point x="120.86767676767677" y="83.27373737373738" type="curve" smooth="yes"/>
      <point x="99.53939393939395" y="83.27373737373738"/>
      <point x="86.66565656565656" y="69.23232323232324"/>
      <point x="86.66565656565656" y="48.51414141414141" type="curve" smooth="yes"/>
      <point x="86.66565656565656" y="15.226262626262626"/>
      <point x="136.33434343434342" y="8.313131313131313"/>
      <point x="136.33434343434342" y="-27.592929292929295" type="curve" smooth="yes"/>
      <point x="136.33434343434342" y="-61.0"/>
      <point x="114.26060606060608" y="-109.2"/>
      <point x="59.01010101010102" y="-127.18181818181817" type="curve"/>
    </contour>
  </outline>
</glyph>
<glyph name="hyphen" format="2">
  <advance width="283.64444444444445"/>
  <unicode hex="002D"/>
  <outline>
    <contour>
      <point x="23.032323232323236" y="254.25555555555556" type="line"/>
      <point x="260.47777777777776" y="254.25555555555556" type="line"/>
      <point x="260.47777777777776" y="291.5323232323232" type="line"/>
      <point x="23.032323232323236" y="291.5323232323232" type="line"/>
    </contour>
  </outline>
</glyph>
<glyph name="period" format="2">
  <advance width="220.88282828282829"/>
  <unicode hex="002E"/>
  <outline>
    <contour>
      <point x="127.83131313131312" y="-5.713131313131313" type="curve" smooth="yes"/>
      <point x="146.25858585858586" y="-5.713131313131313"/>
      <point x="161.9949494949495" y="4.982828282828283"/>
      <point x="161.9949494949495" y="39.2020202020202" type="curve" smooth="yes"/>
      <point x="161.9949494949495" y="73.07676767676767"/>
      <point x="146.25858585858586" y="83.27373737373738"/>
      <point x="127.83131313131312" y="83.27373737373738" type="curve" smooth="yes"/>
      <point x="108.74646464646464" y="83.27373737373738"/>
      <point x="92.58888888888889" y="73.07676767676767"/>
      <point x="92.58888888888889" y="39.2020202020202" type="curve" smooth="yes"/>
      <point x="92.58888888888889" y="4.982828282828283"/>
      <point x="108.74646464646464" y="-5.713131313131313"/>
    </contour>
  </outline>
</glyph>
<glyph name="slash" format="2">
  <advance width="263.4"/>
  <unicode hex="002F"/>
  <outline>
    <contour>
      <point x="0.0" y="-121.0" type="line"/>
      <point x="34.26060606060606" y="-120.92222222222223" type="line"/>
      <point x="263.4" y="760.0" type="line"/>
      <point x="229.42929292929293" y="760.0" type="line"/>
    </contour>
  </outline>
</glyph>
<glyph name="zero" format="2">
  <advance width="511.1888888888889"/>
  <unicode hex="0030"/>
  <outline>
    <contour>
      <point x="255.76666666666668" y="-10.0" type="curve" smooth="yes"/>
      <point x="391.310101010101" y="-10.0"/>
      <point x="460.3474747474748" y="114.34747474747475"/>
      <point x="460.3474747474748" y="358.0" type="curve" smooth="yes"/>
      <point x="460.3474747474748" y="600.8383838383837"/>
      <point x="392.77777777777777" y="724.0"/>
      <point x="256.76666666666665" y="724.0" type="curve" smooth="yes"/>
      <point x="111.6989898989899" y="724.0"/>
      <point x="50.474747474747474" y="595.4868686868685"/>
      <point x="50.474747474747474" y="359.0" type="curve" smooth="yes"/>
      <point x="50.474747474747474" y="112.64444444444445"/>
      <point x="114.95252525252526" y="-10.0"/>
    </contour>
    <contour>
      <point x="255.26767676767676" y="20.840404040404042" type="curve" smooth="yes"/>
      <point x="140.72727272727275" y="20.840404040404042"/>
      <point x="93.58484848484848" y="134.81717171717173"/>
      <point x="93.58484848484848" y="358.0" type="curve" smooth="yes"/>
      <point x="93.58484848484848" y="572.7"/>
      <point x="135.73737373737376" y="693.159595959596"/>
      <point x="256.26767676767673" y="693.159595959596" type="curve" smooth="yes"/>
      <point x="373.3010101010101" y="693.159595959596"/>
      <point x="417.3929292929293" y="576.1929292929293"/>
      <point x="417.3929292929293" y="358.0" type="curve" smooth="yes"/>
      <point x="417.3929292929293" y="138.8090909090909"/>
      <point x="370.3070707070707" y="20.840404040404042"/>
    </contour>
  </outline>
</glyph>
<glyph name="one" format="2">
  <advance width="511.1888888888889"/>
  <unicode hex="0031"/>
  <outline>
    <contour>
      <point x="106.75858585858586" y="0.0" type="line"/>
      <point x="431.22121212121215" y="0.0" type="line"/>
      <point x="431.22121212121215" y="25.586868686868687" type="line"/>
      <point x="353.81616161616165" y="25.586868686868687" type="line" smooth="yes"/>
      <point x="305.84343434343435" y="25.586868686868687"/>
      <point x="293.4676767676767" y="34.95353535353535"/>
      <point x="293.4676767676767" y="108.32828282828284" type="curve" smooth="yes"/>
      <point x="293.4676767676767" y="718.0" type="line"/>
      <point x="265.4121212121212" y="718.0" type="line"/>
      <point x="223.55050505050505" y="674.0616161616161" type="line" smooth="yes"/>
      <point x="170.3272727272727" y="616.420202020202"/>
      <point x="126.74848484848485" y="590.5939393939394"/>
      <point x="74.63333333333333" y="583.088888888889" type="curve"/>
      <point x="74.63333333333333" y="568.0010101010101"/>
      <point x="86.52424242424242" y="557.3434343434344"/>
      <point x="107.72929292929294" y="557.3434343434344" type="curve" smooth="yes"/>
      <point x="151.67777777777778" y="557.3434343434344"/>
      <point x="194.62121212121215" y="593.0666666666667"/>
      <point x="251.22727272727275" y="665.4191919191919" type="curve"/>
      <point x="251.22727272727275" y="108.32828282828284" type="line" smooth="yes"/>
      <point x="251.22727272727275" y="34.72020202020202"/>
      <point x="238.85151515151512" y="25.586868686868687"/>
      <point x="190.8787878787879" y="25.586868686868687" type="curve" smooth="yes"/>
      <point x="106.75858585858586" y="25.586868686868687" type="line"/>
    </contour>
  </outline>
</glyph>
<glyph name="two" format="2">
  <advance width="511.1888888888889"/>
  <unicode hex="0032"/>
  <outline>
    <contour>
      <point x="52.80404040404041" y="0.0" type="line"/>
      <point x="433.8444444444445" y="0.0" type="line"/>
      <point x="437.82222222222225" y="137.67979797979797" type="line"/>
      <point x="413.3888888888889" y="137.67979797979797" type="line"/>
      <point x="411.25353535353537" y="107.7050505050505" type="line" smooth="yes"/>
      <point x="407.5585858585859" y="56.13333333333334"/>
      <point x="399.72727272727275" y="37.300000000000004"/>
      <point x="346.9858585858586" y="37.300000000000004" type="curve" smooth="yes"/>
      <point x="94.74343434343434" y="37.300000000000004" type="line"/>
      <point x="270.8151515151515" y="262.0181818181818" type="line" smooth="yes"/>
      <point x="362.3909090909091" y="375.8232323232324"/>
      <point x="411.94848484848484" y="443.34747474747473"/>
      <point x="411.94848484848484" y="549.0717171717172" type="curve" smooth="yes"/>
      <point x="411.94848484848484" y="644.3464646464647"/>
      <point x="355.6040404040404" y="724.0"/>
      <point x="236.49191919191924" y="724.0" type="curve" smooth="yes"/>
      <point x="122.36262626262628" y="724.0"/>
      <point x="69.87373737373737" y="653.5282828282828"/>
      <point x="69.87373737373737" y="599.8434343434344" type="curve" smooth="yes"/>
      <point x="69.87373737373737" y="569.0383838383839"/>
      <point x="84.94747474747476" y="555.8272727272728"/>
      <point x="105.38181818181818" y="555.8272727272728" type="curve"/>
      <point x="105.38181818181818" y="636.7212121212121"/>
      <point x="146.94343434343438" y="693.7747474747475"/>
      <point x="236.49191919191924" y="693.7747474747475" type="curve" smooth="yes"/>
      <point x="334.5040404040404" y="693.7747474747475"/>
      <point x="369.2414141414141" y="622.2111111111111"/>
      <point x="369.2414141414141" y="544.5858585858587" type="curve" smooth="yes"/>
      <point x="369.2414141414141" y="451.06060606060606"/>
      <point x="330.02828282828284" y="387.6959595959596"/>
      <point x="231.83535353535353" y="263.0909090909091" type="curve" smooth="yes"/>
      <point x="52.80404040404041" y="32.35151515151515" type="line"/>
    </contour>
  </outline>
</glyph>
<glyph name="three" format="2">
  <advance width="511.1888888888889"/>
  <unicode hex="0033"/>
  <outline>
    <contour>
      <point x="232.57070707070707" y="-9.212121212121213" type="curve" smooth="yes"/>
      <point x="341.3666666666667" y="-9.212121212121213"/>
      <point x="436.10101010101005" y="56.26262626262626"/>
      <point x="436.10101010101005" y="191.34949494949495" type="curve" smooth="yes"/>
      <point x="436.10101010101005" y="324.24747474747477"/>
      <point x="347.8848484848485" y="369.5383838383839"/>
      <point x="269.2030303030303" y="376.8272727272727" type="curve"/>
      <point x="344.969696969697" y="394.4424242424243"/>
      <point x="413.2232323232323" y="454.91515151515154"/>
      <point x="413.2232323232323" y="558.8868686868686" type="curve" smooth="yes"/>
      <point x="413.2232323232323" y="661.2737373737374"/>
      <point x="347.48484848484844" y="724.0"/>
      <point x="244.2252525252525" y="724.0" type="curve" smooth="yes"/>
      <point x="135.63737373737374" y="724.0"/>
      <point x="79.31515151515153" y="661.5666666666667"/>
      <point x="79.31515151515153" y="597.930303030303" type="curve" smooth="yes"/>
      <point x="79.31515151515153" y="568.5111111111111"/>
      <point x="93.65757575757574" y="555.588888888889"/>
      <point x="112.93636363636364" y="555.588888888889" type="curve"/>
      <point x="113.43535353535353" y="638.1080808080808"/>
      <point x="154.80707070707072" y="693.7747474747475"/>
      <point x="243.18181818181822" y="693.7747474747475" type="curve" smooth="yes"/>
      <point x="324.64343434343436" y="693.7747474747475"/>
      <point x="370.32525252525255" y="643.6252525252526"/>
      <point x="370.32525252525255" y="556.3818181818182" type="curve" smooth="yes"/>
      <point x="370.32525252525255" y="450.2737373737374"/>
      <point x="298.74747474747477" y="388.6969696969697"/>
      <point x="201.27474747474747" y="388.6969696969697" type="curve"/>
      <point x="177.6858585858586" y="388.6969696969697" type="line"/>
      <point x="177.6858585858586" y="358.49292929292926" type="line"/>
      <point x="202.1949494949495" y="358.49292929292926" type="line" smooth="yes"/>
      <point x="330.79090909090905" y="358.49292929292926"/>
      <point x="393.0686868686868" y="298.40000000000003"/>
      <point x="393.0686868686868" y="192.34949494949495" type="curve" smooth="yes"/>
      <point x="393.0686868686868" y="80.79797979797979"/>
      <point x="326.12020202020204" y="21.783838383838386"/>
      <point x="231.62929292929292" y="21.783838383838386" type="curve" smooth="yes"/>
      <point x="135.1979797979798" y="21.783838383838386"/>
      <point x="90.63232323232323" y="69.13030303030303"/>
      <point x="90.63232323232323" y="142.15151515151516" type="curve"/>
      <point x="72.74949494949496" y="142.15151515151516"/>
      <point x="59.49191919191918" y="128.15757575757576"/>
      <point x="59.49191919191918" y="100.710101010101" type="curve" smooth="yes"/>
      <point x="59.49191919191918" y="44.91616161616162"/>
      <point x="114.63535353535354" y="-9.212121212121213"/>
    </contour>
  </outline>
</glyph>
<glyph name="four" format="2">
  <advance width="511.1888888888889"/>
  <unicode hex="0034"/>
  <outline>
    <contour>
      <point x="229.70505050505048" y="0.0" type="line"/>
      <point x="458.9313131313131" y="0.0" type="line"/>
      <point x="458.9313131313131" y="24.58888888888889" type="line"/>
      <point x="433.1909090909091" y="24.58888888888889" type="line" smooth="yes"/>
      <point x="383.71818181818185" y="24.58888888888889"/>
      <point x="371.18686868686865" y="34.586868686868684"/>
      <point x="371.18686868686865" y="107.17272727272729" type="curve" smooth="yes"/>
      <point x="371.18686868686865" y="205.53232323232322" type="line"/>
      <point x="497.42424242424244" y="205.53232323232322" type="line"/>
      <point x="497.42424242424244" y="237.03030303030303" type="line"/>
      <point x="371.18686868686865" y="237.03030303030303" type="line"/>
      <point x="371.18686868686865" y="714.0" type="line"/>
      <point x="329.67474747474745" y="714.0" type="line"/>
      <point x="18.684848484848487" y="227.75656565656567" type="line"/>
      <point x="18.684848484848487" y="205.53232323232322" type="line"/>
      <point x="330.4838383838384" y="205.53232323232322" type="line"/>
      <point x="330.4838383838384" y="107.17272727272729" type="line" smooth="yes"/>
      <point x="330.4838383838384" y="34.586868686868684"/>
      <point x="318.030303030303" y="24.58888888888889"/>
      <point x="268.76868686868687" y="24.58888888888889" type="curve" smooth="yes"/>
      <point x="229.70505050505048" y="24.58888888888889" type="line"/>
    </contour>
    <contour>
      <point x="59.288888888888884" y="237.03030303030303" type="line"/>
      <point x="232.05151515151513" y="506.73333333333335" type="line" smooth="yes"/>
      <point x="261.3828282828283" y="551.9969696969697"/>
      <point x="321.91111111111115" y="650.4878787878788"/>
      <point x="333.3888888888889" y="674.1474747474747" type="curve"/>
      <point x="331.32929292929293" y="611.5696969696969"/>
      <point x="330.4838383838384" y="503.61010101010095"/>
      <point x="330.4838383838384" y="445.61010101010095" type="curve" smooth="yes"/>
      <point x="330.4838383838384" y="237.03030303030303" type="line"/>
    </contour>
  </outline>
</glyph>
<glyph name="five" format="2">
  <advance width="511.1888888888889"/>
  <unicode hex="0035"/>
  <outline>
    <contour>
      <point x="227.87373737373738" y="-10.0" type="curve" smooth="yes"/>
      <point x="357.67070707070707" y="-10.0"/>
      <point x="434.5717171717171" y="77.45353535353536"/>
      <point x="434.5717171717171" y="216.92323232323233" type="curve" smooth="yes"/>
      <point x="434.5717171717171" y="354.4050505050505"/>
      <point x="346.5808080808081" y="424.27272727272725"/>
      <point x="237.2070707070707" y="424.27272727272725" type="curve" smooth="yes"/>
      <point x="186.9272727272727" y="424.27272727272725"/>
      <point x="152.75858585858586" y="414.1959595959596"/>
      <point x="125.40505050505051" y="403.1010101010101" type="curve"/>
      <point x="147.53232323232322" y="675.2030303030303" type="line"/>
      <point x="323.53030303030306" y="675.2030303030303" type="line" smooth="yes"/>
      <point x="371.81717171717173" y="675.2030303030303"/>
      <point x="378.90606060606063" y="669.7919191919192"/>
      <point x="381.7191919191919" y="621.6060606060606" type="curve" smooth="yes"/>
      <point x="383.43333333333334" y="594.7484848484848" type="line"/>
      <point x="407.8666666666667" y="594.7484848484848" type="line"/>
      <point x="404.5979797979798" y="714.0" type="line"/>
      <point x="120.56565656565657" y="714.0" type="line"/>
      <point x="92.26363636363635" y="368.16363636363633" type="line"/>
      <point x="108.20606060606062" y="363.29393939393935" type="line"/>
      <point x="137.51717171717172" y="380.17575757575753"/>
      <point x="177.1222222222222" y="393.22020202020195"/>
      <point x="231.4919191919192" y="393.22020202020195" type="curve" smooth="yes"/>
      <point x="326.74545454545455" y="393.22020202020195"/>
      <point x="391.4616161616161" y="333.4525252525252"/>
      <point x="391.4616161616161" y="216.42424242424244" type="curve" smooth="yes"/>
      <point x="391.4616161616161" y="87.1979797979798"/>
      <point x="328.71414141414147" y="21.58989898989899"/>
      <point x="226.23636363636365" y="21.58989898989899" type="curve" smooth="yes"/>
      <point x="148.02929292929292" y="21.58989898989899"/>
      <point x="92.57676767676767" y="61.6929292929293"/>
      <point x="92.57676767676767" y="131.47979797979798" type="curve"/>
      <point x="74.48888888888888" y="131.47979797979798"/>
      <point x="61.86969696969697" y="119.9090909090909"/>
      <point x="61.86969696969697" y="91.36464646464646" type="curve" smooth="yes"/>
      <point x="61.86969696969697" y="46.07373737373737"/>
      <point x="114.79898989898989" y="-10.0"/>
    </contour>
  </outline>
</glyph>
<glyph name="six" format="2">
  <advance width="511.1888888888889"/>
  <unicode hex="0036"/>
  <outline>
    <contour>
      <point x="269.18888888888887" y="-10.0" type="curve" smooth="yes"/>
      <point x="381.81515151515157" y="-10.0"/>
      <point x="451.00909090909096" y="72.5050505050505"/>
      <point x="451.00909090909096" y="220.75353535353534" type="curve" smooth="yes"/>
      <point x="451.00909090909096" y="355.05757575757576"/>
      <point x="381.3424242424243" y="428.9848484848485"/>
      <point x="273.6" y="428.9848484848485" type="curve" smooth="yes"/>
      <point x="200.36969696969697" y="428.9848484848485"/>
      <point x="146.510101010101" y="392.6949494949495"/>
      <point x="111.6888888888889" y="361.2030303030303" type="curve"/>
      <point x="112.57373737373737" y="595.0121212121212"/>
      <point x="181.81313131313132" y="694.1989898989899"/>
      <point x="291.76767676767673" y="694.1989898989899" type="curve" smooth="yes"/>
      <point x="364.05252525252524" y="694.1989898989899"/>
      <point x="396.4585858585859" y="656.1909090909091"/>
      <point x="396.4585858585859" y="582.2919191919192" type="curve"/>
      <point x="416.3949494949495" y="582.2919191919192"/>
      <point x="428.69191919191917" y="595.1555555555556"/>
      <point x="428.69191919191917" y="623.2282828282829" type="curve" smooth="yes"/>
      <point x="428.69191919191917" y="675.1010101010102"/>
      <point x="387.42121212121214" y="724.0"/>
      <point x="292.7888888888889" y="724.0" type="curve" smooth="yes"/>
      <point x="157.45858585858588" y="724.0"/>
      <point x="68.86868686868686" y="614.5474747474747"/>
      <point x="68.86868686868686" y="341.40000000000003" type="curve" smooth="yes"/>
      <point x="68.86868686868686" y="98.33939393939394"/>
      <point x="146.43232323232323" y="-10.0"/>
    </contour>
    <contour>
      <point x="271.5333333333333" y="20.974747474747474" type="curve" smooth="yes"/>
      <point x="167.3787878787879" y="20.974747474747474"/>
      <point x="114.47474747474747" y="121.28888888888889"/>
      <point x="111.47676767676768" y="322.84444444444443" type="curve"/>
      <point x="140.55959595959595" y="353.2111111111111"/>
      <point x="193.16363636363639" y="398.70303030303035"/>
      <point x="269.5131313131313" y="398.70303030303035" type="curve" smooth="yes"/>
      <point x="363.07878787878786" y="398.70303030303035"/>
      <point x="408.4787878787879" y="331.7646464646465"/>
      <point x="408.4787878787879" y="219.420202020202" type="curve" smooth="yes"/>
      <point x="408.4787878787879" y="92.1989898989899"/>
      <point x="361.3808080808081" y="20.974747474747474"/>
    </contour>
  </outline>
</glyph>
<glyph name="seven" format="2">
  <advance width="511.1888888888889"/>
  <unicode hex="0037"/>
  <outline>
    <contour>
      <point x="168.94040404040408" y="0.0" type="line"/>
      <point x="207.47474747474746" y="0.0" type="line"/>
      <point x="455.1959595959596" y="690.6707070707071" type="line"/>
      <point x="455.1959595959596" y="714.0" type="line"/>
      <point x="59.34343434343434" y="714.0" type="line"/>
      <point x="54.13333333333333" y="562.3848484848485" type="line"/>
      <point x="78.80000000000001" y="562.3848484848485" type="line"/>
      <point x="82.51111111111112" y="621.5272727272727" type="line" smooth="yes"/>
      <point x="85.51111111111112" y="667.8111111111111"/>
      <point x="97.08585858585857" y="675.2030303030303"/>
      <point x="132.25252525252526" y="675.2030303030303" type="curve" smooth="yes"/>
      <point x="415.24040404040403" y="675.2030303030303" type="line"/>
    </contour>
  </outline>
</glyph>
<glyph name="eight" format="2">
  <advance width="511.1888888888889"/>
  <unicode hex="0038"/>
  <outline>
    <contour>
      <point x="253.75252525252526" y="-10.0" type="curve" smooth="yes"/>
      <point x="372.91414141414145" y="-10.0"/>
      <point x="453.3575757575758" y="54.1030303030303"/>
      <point x="453.3575757575758" y="171.0272727272727" type="curve" smooth="yes"/>
      <point x="453.3575757575758" y="273.47777777777776"/>
      <point x="402.5717171717172" y="323.55252525252524"/>
      <point x="298.1393939393939" y="375.59797979797986" type="curve"/>
      <point x="384.40909090909093" y="415.050505050505"/>
      <point x="431.7252525252526" y="466.2828282828283"/>
      <point x="431.7252525252526" y="558.6121212121212" type="curve" smooth="yes"/>
      <point x="431.7252525252526" y="652.1545454545454"/>
      <point x="371.29292929292933" y="724.0"/>
      <point x="258.03737373737374" y="724.0" type="curve" smooth="yes"/>
      <point x="147.12424242424242" y="724.0"/>
      <point x="80.36262626262626" y="653.1424242424241"/>
      <point x="80.36262626262626" y="554.7404040404041" type="curve" smooth="yes"/>
      <point x="80.36262626262626" y="464.15353535353535"/>
      <point x="135.5" y="413.9525252525252"/>
      <point x="218.37070707070708" y="373.41919191919186" type="curve"/>
      <point x="119.66262626262628" y="333.0414141414141"/>
      <point x="58.275757575757574" y="272.42626262626266"/>
      <point x="58.275757575757574" y="171.23232323232324" type="curve" smooth="yes"/>
      <point x="58.275757575757574" y="61.45050505050505"/>
      <point x="125.41818181818181" y="-10.0"/>
    </contour>
    <contour>
      <point x="255.07878787878786" y="19.68787878787879" type="curve" smooth="yes"/>
      <point x="152.320202020202" y="19.68787878787879"/>
      <point x="99.74545454545455" y="76.95454545454545"/>
      <point x="99.74545454545455" y="170.63939393939395" type="curve" smooth="yes"/>
      <point x="99.74545454545455" y="252.94040404040405"/>
      <point x="147.76868686868687" y="319.62323232323234"/>
      <point x="252.38383838383837" y="357.22020202020195" type="curve"/>
      <point x="378.18888888888887" y="300.38080808080815"/>
      <point x="412.4606060606061" y="247.34747474747476"/>
      <point x="412.4606060606061" y="166.63838383838385" type="curve" smooth="yes"/>
      <point x="412.4606060606061" y="70.13030303030303"/>
      <point x="348.7222222222222" y="19.68787878787879"/>
    </contour>
    <contour>
      <point x="264.33535353535353" y="390.93030303030304" type="curve"/>
      <point x="170.5858585858586" y="434.1363636363637"/>
      <point x="121.5848484848485" y="472.6606060606061"/>
      <point x="121.5848484848485" y="559.0191919191919" type="curve" smooth="yes"/>
      <point x="121.5848484848485" y="640.5464646464646"/>
      <point x="173.36363636363637" y="694.1777777777778"/>
      <point x="257.5747474747475" y="694.1777777777778" type="curve" smooth="yes"/>
      <point x="354.6767676767677" y="694.1777777777778"/>
      <point x="391.71919191919187" y="626.6838383838384"/>
      <point x="391.71919191919187" y="558.7252525252525" type="curve" smooth="yes"/>
      <point x="391.71919191919187" y="476.750505050505"/>
      <point x="358.5333333333333" y="430.8717171717172"/>
    </contour>
  </outline>
</glyph>
<glyph name="nine" format="2">
  <advance width="511.1888888888889"/>
  <unicode hex="0039"/>
  <outline>
    <contour>
      <point x="209.1888888888889" y="-11.577777777777778" type="curve"/>
      <point x="372.9474747474748" y="-11.577777777777778"/>
      <point x="442.1090909090909" y="123.39898989898988"/>
      <point x="442.1090909090909" y="388.0" type="curve" smooth="yes"/>
      <point x="442.1090909090909" y="620.7121212121212"/>
      <point x="362.18888888888887" y="724.0"/>
      <point x="239.13737373737376" y="724.0" type="curve" smooth="yes"/>
      <point x="121.84141414141416" y="724.0"/>
      <point x="59.89090909090908" y="629.5616161616163"/>
      <point x="59.89090909090908" y="488.1838383838384" type="curve" smooth="yes"/>
      <point x="59.89090909090908" y="361.479797979798"/>
      <point x="124.67676767676767" y="284.3434343434343"/>
      <point x="242.27777777777777" y="284.3434343434343" type="curve" smooth="yes"/>
      <point x="322.3252525252525" y="284.3434343434343"/>
      <point x="371.6434343434343" y="325.639393939394"/>
      <point x="399.3666666666666" y="354.840404040404" type="curve"/>
      <point x="396.30404040404045" y="131.41717171717173"/>
      <point x="336.91818181818184" y="19.70808080808081"/>
      <point x="214.14848484848483" y="19.70808080808081" type="curve" smooth="yes"/>
      <point x="154.7141414141414" y="19.70808080808081"/>
      <point x="121.0171717171717" y="47.43737373737374"/>
      <point x="102.56666666666666" y="88.96565656565657" type="curve"/>
      <point x="94.26868686868687" y="85.38585858585857"/>
      <point x="89.11212121212121" y="75.97474747474747"/>
      <point x="89.11212121212121" y="61.348484848484844" type="curve" smooth="yes"/>
      <point x="89.11212121212121" y="27.59292929292929"/>
      <point x="125.83939393939394" y="-11.577777777777778"/>
    </contour>
    <contour>
      <point x="244.9484848484849" y="315.7777777777778" type="curve" smooth="yes"/>
      <point x="151.41414141414143" y="316.0111111111111"/>
      <point x="102.63333333333333" y="378.5717171717172"/>
      <point x="102.63333333333333" y="490.9939393939394" type="curve" smooth="yes"/>
      <point x="102.63333333333333" y="609.2"/>
      <point x="142.67373737373737" y="693.0252525252525"/>
      <point x="239.44848484848487" y="693.0252525252525" type="curve" smooth="yes"/>
      <point x="341.6232323232323" y="693.0252525252525"/>
      <point x="399.02020202020196" y="593.8929292929294"/>
      <point x="399.65656565656565" y="395.58181818181816" type="curve"/>
      <point x="364.5313131313131" y="353.24848484848485"/>
      <point x="320.9373737373738" y="316.0111111111111"/>
    </contour>
  </outline>
</glyph>
<glyph name="colon" format="2">
  <advance width="221.0939393939394"/>
  <unicode hex="003A"/>
  <outline>
    <contour>
      <point x="127.75353535353536" y="426.9080808080808" type="curve" smooth="yes"/>
      <point x="146.18080808080808" y="426.9080808080808"/>
      <point x="162.20606060606062" y="437.23737373737373"/>
      <point x="162.20606060606062" y="471.6111111111111" type="curve" smooth="yes"/>
      <point x="162.20606060606062" y="505.62020202020204"/>
      <point x="146.18080808080808" y="515.3161616161616"/>
      <point x="127.75353535353536" y="515.3161616161616" type="curve" smooth="yes"/>
      <point x="108.66868686868688" y="515.3161616161616"/>
      <point x="92.58888888888889" y="505.62020202020204"/>
      <point x="92.58888888888889" y="471.6111111111111" type="curve" smooth="yes"/>
      <point x="92.58888888888889" y="437.23737373737373"/>
      <point x="108.66868686868688" y="426.9080808080808"/>
    </contour>
    <contour>
      <point x="127.75353535353536" y="-5.424242424242424" type="curve" smooth="yes"/>
      <point x="146.18080808080808" y="-5.424242424242424"/>
      <point x="162.20606060606062" y="4.982828282828283"/>
      <point x="162.20606060606062" y="39.49090909090909" type="curve" smooth="yes"/>
      <point x="162.20606060606062" y="73.36565656565656"/>
      <point x="146.18080808080808" y="83.27373737373738"/>
      <point x="127.75353535353536" y="83.27373737373738" type="curve" smooth="yes"/>
      <point x="108.66868686868688" y="83.27373737373738"/>
      <point x="92.58888888888889" y="73.36565656565656"/>
      <point x="92.58888888888889" y="39.49090909090909" type="curve" smooth="yes"/>
      <point x="92.58888888888889" y="4.982828282828283"/>
      <point x="108.66868686868688" y="-5.424242424242424"/>
    </contour>
  </outline>
</glyph>
<glyph name="semicolon" format="2">
  <advance width="247.27373737373736"/>
  <unicode hex="003B"/>
  <outline>
    <contour>
      <point x="59.01010101010102" y="-154.0" type="line"/>
      <point x="142.46666666666667" y="-124.8040404040404"/>
      <point x="174.29090909090908" y="-60.27777777777777"/>
      <point x="174.29090909090908" y="7.127272727272729" type="curve" smooth="yes"/>
      <point x="174.29090909090908" y="61.286868686868694"/>
      <point x="148.8131313131313" y="83.27373737373738"/>
      <point x="120.73333333333333" y="83.27373737373738" type="curve" smooth="yes"/>
      <point x="99.61717171717173" y="83.27373737373738"/>
      <point x="86.74343434343433" y="69.23232323232324"/>
      <point x="86.74343434343433" y="48.51414141414141" type="curve" smooth="yes"/>
      <point x="86.74343434343433" y="15.226262626262626"/>
      <point x="136.489898989899" y="8.313131313131313"/>
      <point x="136.489898989899" y="-27.592929292929295" type="curve"/>
      <point x="136.489898989899" y="-61.077777777777776"/>
      <point x="114.28181818181818" y="-109.2"/>
      <point x="59.01010101010102" y="-127.18181818181817" type="curve"/>
    </contour>
    <contour>
      <point x="128.2909090909091" y="426.9080808080808" type="curve" smooth="yes"/>
      <point x="147.0848484848485" y="426.9080808080808"/>
      <point x="162.87777777777777" y="437.23737373737373"/>
      <point x="162.87777777777777" y="471.6111111111111" type="curve" smooth="yes"/>
      <point x="162.87777777777777" y="505.62020202020204"/>
      <point x="147.0848484848485" y="515.3161616161616"/>
      <point x="128.2909090909091" y="515.3161616161616" type="curve" smooth="yes"/>
      <point x="109.2060606060606" y="515.3161616161616"/>
      <point x="93.26060606060607" y="505.62020202020204"/>
      <point x="93.26060606060607" y="471.6111111111111" type="curve" smooth="yes"/>
      <point x="93.26060606060607" y="437.23737373737373"/>
      <point x="109.2060606060606" y="426.9080808080808"/>
    </contour>
  </outline>
</glyph>
<glyph name="less" format="2">
  <advance width="509.8666666666667"/>
  <unicode hex="003C"/>
  <outline>
    <contour>
      <point x="450.9111111111111" y="116.22626262626262" type="line"/>
      <point x="450.9111111111111" y="155.6919191919192" type="line"/>
      <point x="100.479797979798" y="357.0" type="line"/>
      <point x="450.9111111111111" y="560.3858585858586" type="line"/>
      <point x="450.9111111111111" y="599.7737373737374" type="line"/>
      <point x="58.95555555555556" y="371.8484848484849" type="line"/>
      <point x="58.95555555555556" y="343.1515151515151" type="line"/>
    </contour>
  </outline>
</glyph>
<glyph name="equal" format="2">
  <advance width="509.0"/>
  <unicode hex="003D"/>
  <outline>
    <contour>
      <point x="59.95353535353536" y="443.42121212121214" type="line"/>
      <point x="448.04848484848486" y="443.42121212121214" type="line"/>
      <point x="448.04848484848486" y="477.5161616161616" type="line"/>
      <point x="59.95353535353536" y="477.5161616161616" type="line"/>
    </contour>
    <contour>
      <point x="59.95353535353536" y="236.63838383838385" type="line"/>
      <point x="448.04848484848486" y="236.63838383838385" type="line"/>
      <point x="448.04848484848486" y="270.86767676767676" type="line"/>
      <point x="59.95353535353536" y="270.86767676767676" type="line"/>
    </contour>
  </outline>
</glyph>
<glyph name="greater" format="2">
  <advance width="509.8666666666667"/>
  <unicode hex="003E"/>
  <outline>
    <contour>
      <point x="58.95555555555556" y="116.22626262626262" type="line"/>
      <point x="450.9111111111111" y="343.1515151515151" type="line"/>
      <point x="450.9111111111111" y="371.8484848484849" type="line"/>
      <point x="58.95555555555556" y="599.7737373737374" type="line"/>
      <point x="58.95555555555556" y="560.3858585858586" type="line"/>
      <point x="407.31313131313135" y="357.0" type="line"/>
      <point x="58.95555555555556" y="155.6919191919192" type="line"/>
    </contour>
  </outline>
</glyph>
<glyph name="question" format="2">
  <advance width="404.8959595959596"/>
  <unicode hex="003F"/>
  <outline>
    <contour>
      <point x="171.83434343434342" y="174.83434343434345" type="line"/>
      <point x="200.70707070707073" y="174.83434343434345" type="line"/>
      <point x="203.55959595959595" y="321.79090909090905" type="line"/>
      <point x="307.8080808080808" y="371.7676767676768"/>
      <point x="361.8888888888889" y="438.669696969697"/>
      <point x="361.8888888888889" y="549.9030303030303" type="curve" smooth="yes"/>
      <point x="361.8888888888889" y="655.7626262626263"/>
      <point x="295.0727272727272" y="724.0"/>
      <point x="192.03232323232322" y="724.0" type="curve" smooth="yes"/>
      <point x="77.10808080808081" y="724.0"/>
      <point x="35.52020202020202" y="656.8303030303031"/>
      <point x="35.52020202020202" y="611.5010101010101" type="curve" smooth="yes"/>
      <point x="35.52020202020202" y="579.9515151515152"/>
      <point x="49.72525252525252" y="564.8000000000001"/>
      <point x="69.54848484848485" y="564.8000000000001" type="curve"/>
      <point x="69.54848484848485" y="630.8535353535353"/>
      <point x="99.34444444444445" y="693.9868686868687"/>
      <point x="194.02727272727273" y="693.9868686868687" type="curve" smooth="yes"/>
      <point x="274.22626262626267" y="693.9868686868687"/>
      <point x="319.1252525252525" y="636.5464646464648"/>
      <point x="319.1252525252525" y="551.6868686868687" type="curve" smooth="yes"/>
      <point x="319.1252525252525" y="454.7545454545455"/>
      <point x="273.8969696969697" y="389.7111111111111"/>
      <point x="168.77070707070706" y="339.84949494949495" type="curve"/>
    </contour>
    <contour>
      <point x="185.82020202020203" y="-5.424242424242424" type="curve" smooth="yes"/>
      <point x="205.53838383838385" y="-5.424242424242424"/>
      <point x="221.8323232323232" y="5.1171717171717175"/>
      <point x="221.8323232323232" y="39.759595959595956" type="curve" smooth="yes"/>
      <point x="221.8323232323232" y="74.03737373737374"/>
      <point x="205.53838383838385" y="83.94545454545454"/>
      <point x="185.82020202020203" y="83.94545454545454" type="curve" smooth="yes"/>
      <point x="167.12222222222223" y="83.94545454545454"/>
      <point x="150.9080808080808" y="74.03737373737374"/>
      <point x="150.9080808080808" y="39.759595959595956" type="curve" smooth="yes"/>
      <point x="150.9080808080808" y="5.1171717171717175"/>
      <point x="167.12222222222223" y="-5.424242424242424"/>
    </contour>
  </outline>
</glyph>
<glyph name="bracketleft" format="2">
  <advance width="262.1777777777778"/>
  <unicode hex="005B"/>
  <outline>
    <contour>
      <point x="67.71111111111111" y="-128.0" type="line"/>
      <point x="226.09595959595958" y="-128.0" type="line"/>
      <point x="226.09595959595958" y="-103.67979797979798" type="line"/>
      <point x="168.70909090909092" y="-103.67979797979798" type="line" smooth="yes"/>
      <point x="120.54747474747477" y="-103.67979797979798"/>
      <point x="109.05353535353535" y="-93.10404040404042"/>
      <point x="109.05353535353535" y="-18.939393939393938" type="curve" smooth="yes"/>
      <point x="109.05353535353535" y="650.8050505050505" type="line" smooth="yes"/>
      <point x="109.05353535353535" y="725.1040404040403"/>
      <point x="120.54747474747477" y="735.679797979798"/>
      <point x="168.70909090909092" y="735.679797979798" type="curve" smooth="yes"/>
      <point x="226.09595959595958" y="735.679797979798" type="line"/>
      <point x="226.09595959595958" y="760.0" type="line"/>
      <point x="67.71111111111111" y="760.0" type="line"/>
    </contour>
  </outline>
</glyph>
<glyph name="bracketright" format="2">
  <advance width="315.1474747474748"/>
  <unicode hex="005D"/>
  <outline>
    <contour>
      <point x="88.55151515151515" y="-128.0" type="line"/>
      <point x="246.72424242424242" y="-128.0" type="line"/>
      <point x="246.72424242424242" y="760.0" type="line"/>
      <point x="88.55151515151515" y="760.0" type="line"/>
      <point x="88.55151515151515" y="735.679797979798" type="line"/>
      <point x="145.72626262626264" y="735.679797979798" type="line" smooth="yes"/>
      <point x="194.1" y="735.679797979798"/>
      <point x="205.51616161616164" y="725.1040404040403"/>
      <point x="205.51616161616164" y="650.8050505050505" type="curve" smooth="yes"/>
      <point x="205.51616161616164" y="-18.939393939393938" type="line" smooth="yes"/>
      <point x="205.51616161616164" y="-93.10404040404042"/>
      <point x="194.1" y="-103.67979797979798"/>
      <point x="145.72626262626264" y="-103.67979797979798" type="curve" smooth="yes"/>
      <point x="88.55151515151515" y="-103.67979797979798" type="line"/>
    </contour>
  </outline>
</glyph>
<glyph name="asciicircum" format="2">
  <advance width="509.5"/>
  <unicode hex="005E"/>
  <outline>
    <contour>
      <point x="49.18282828282829" y="270.65050505050505" type="line"/>
      <point x="86.77171717171717" y="270.65050505050505" type="line"/>
      <point x="253.43333333333334" y="663.8262626262625" type="line"/>
      <point x="422.0171717171717" y="270.65050505050505" type="line"/>
      <point x="459.54949494949494" y="270.65050505050505" type="line"/>
      <point x="266.33838383838383" y="714.0" type="line"/>
      <point x="240.24141414141414" y="714.0" type="line"/>
    </contour>
  </outline>
</glyph>
<glyph name="underscore" format="2">
  <advance width="419.1"/>
  <unicode hex="005F"/>
  <outline>
    <contour>
      <point x="-4.9222222222222225" y="-114.80909090909091" type="line"/>
      <point x="424.02222222222224" y="-114.80909090909091" type="line"/>
      <point x="424.02222222222224" y="-83.0" type="line"/>
      <point x="-4.9222222222222225" y="-83.0" type="line"/>
    </contour>
  </outline>
</glyph>
<glyph name="braceleft" format="2">
  <advance width="337.19191919191917"/>
  <unicode hex="007B"/>
  <outline>
    <contour>
      <point x="245.86161616161615" y="-131.15151515151516" type="curve" smooth="yes"/>
      <point x="279.73838383838387" y="-131.15151515151516" type="line"/>
      <point x="279.73838383838387" y="-102.67979797979798" type="line"/>
      <point x="254.17171717171718" y="-102.67979797979798" type="line" smooth="yes"/>
      <point x="199.78080808080807" y="-102.67979797979798"/>
      <point x="176.53838383838385" y="-64.68181818181819"/>
      <point x="176.53838383838385" y="10.77979797979798" type="curve" smooth="yes"/>
      <point x="176.53838383838385" y="184.5939393939394" type="line" smooth="yes"/>
      <point x="176.53838383838385" y="259.2888888888889"/>
      <point x="143.23838383838384" y="305.420202020202"/>
      <point x="84.61313131313132" y="314.84646464646465" type="curve"/>
      <point x="84.61313131313132" y="316.6343434343434" type="line"/>
      <point x="142.47070707070708" y="325.48383838383836"/>
      <point x="176.53838383838385" y="372.55757575757576"/>
      <point x="176.53838383838385" y="446.0424242424242" type="curve" smooth="yes"/>
      <point x="176.53838383838385" y="616.7040404040404" type="line" smooth="yes"/>
      <point x="176.53838383838385" y="694.2414141414141"/>
      <point x="199.78080808080807" y="731.5282828282828"/>
      <point x="256.8010101010101" y="731.5282828282828" type="curve" smooth="yes"/>
      <point x="279.73838383838387" y="731.5282828282828" type="line"/>
      <point x="279.73838383838387" y="760.0" type="line"/>
      <point x="245.28383838383837" y="760.0" type="line" smooth="yes"/>
      <point x="173.80707070707072" y="760.0"/>
      <point x="135.04242424242423" y="708.1313131313132"/>
      <point x="135.04242424242423" y="620.2858585858586" type="curve" smooth="yes"/>
      <point x="135.04242424242423" y="448.620202020202" type="line" smooth="yes"/>
      <point x="135.04242424242423" y="356.84949494949495"/>
      <point x="87.94141414141414" y="330.6454545454546"/>
      <point x="25.421212121212122" y="327.2010101010101" type="curve"/>
      <point x="25.421212121212122" y="302.9353535353535" type="line"/>
      <point x="87.94141414141414" y="298.77979797979793"/>
      <point x="135.04242424242423" y="273.86464646464646"/>
      <point x="135.04242424242423" y="181.3050505050505" type="curve" smooth="yes"/>
      <point x="135.04242424242423" y="9.562626262626262" type="line" smooth="yes"/>
      <point x="135.04242424242423" y="-76.5161616161616"/>
      <point x="173.51818181818183" y="-131.15151515151516"/>
    </contour>
  </outline>
</glyph>
<glyph name="braceright" format="2">
  <advance width="362.11313131313136"/>
  <unicode hex="007D"/>
  <outline>
    <contour>
      <point x="96.45151515151514" y="-131.15151515151516" type="line"/>
      <point x="130.54040404040404" y="-131.15151515151516" type="line" smooth="yes"/>
      <point x="202.3848484848485" y="-131.15151515151516"/>
      <point x="240.64848484848486" y="-76.5161616161616"/>
      <point x="240.64848484848486" y="9.562626262626262" type="curve" smooth="yes"/>
      <point x="240.64848484848486" y="181.3050505050505" type="line" smooth="yes"/>
      <point x="240.64848484848486" y="273.86464646464646"/>
      <point x="288.5383838383838" y="298.77979797979793"/>
      <point x="350.90303030303033" y="302.9353535353535" type="curve"/>
      <point x="350.90303030303033" y="327.2010101010101" type="line"/>
      <point x="288.5383838383838" y="330.6454545454546"/>
      <point x="240.64848484848486" y="356.84949494949495"/>
      <point x="240.64848484848486" y="448.620202020202" type="curve" smooth="yes"/>
      <point x="240.64848484848486" y="620.2858585858586" type="line" smooth="yes"/>
      <point x="240.64848484848486" y="708.1313131313132"/>
      <point x="202.09595959595964" y="760.0"/>
      <point x="131.11818181818182" y="760.0" type="curve" smooth="yes"/>
      <point x="96.45151515151514" y="760.0" type="line"/>
      <point x="96.45151515151514" y="731.5282828282828" type="line"/>
      <point x="119.60101010101009" y="731.5282828282828" type="line" smooth="yes"/>
      <point x="176.69898989898988" y="731.5282828282828"/>
      <point x="199.7858585858586" y="694.2414141414141"/>
      <point x="199.7858585858586" y="616.7040404040404" type="curve" smooth="yes"/>
      <point x="199.7858585858586" y="446.0424242424242" type="line" smooth="yes"/>
      <point x="199.7858585858586" y="372.55757575757576"/>
      <point x="233.93131313131315" y="325.48383838383836"/>
      <point x="291.36767676767676" y="316.6343434343434" type="curve"/>
      <point x="291.36767676767676" y="314.84646464646465" type="line"/>
      <point x="232.87373737373736" y="305.420202020202"/>
      <point x="199.7858585858586" y="259.2888888888889"/>
      <point x="199.7858585858586" y="184.5939393939394" type="curve" smooth="yes"/>
      <point x="199.7858585858586" y="10.77979797979798" type="line" smooth="yes"/>
      <point x="199.7858585858586" y="-64.68181818181819"/>
      <point x="176.69898989898988" y="-102.67979797979798"/>
      <point x="122.23030303030303" y="-102.67979797979798" type="curve" smooth="yes"/>
      <point x="96.45151515151514" y="-102.67979797979798" type="line"/>
    </contour>
  </outline>
</glyph>
<glyph name="asciitilde" format="2">
  <advance width="509.8666666666667"/>
  <unicode hex="007E"/>
  <outline>
    <contour>
      <point x="55.23535353535354" y="275.5151515151515" type="curve"/>
      <point x="89.93939393939394" y="275.5151515151515" type="line"/>
      <point x="102.93030303030302" y="357.58585858585855"/>
      <point x="115.6010101010101" y="403.989898989899"/>
      <point x="158.9686868686869" y="403.989898989899" type="curve" smooth="yes"/>
      <point x="194.55454545454543" y="403.989898989899"/>
      <point x="217.80505050505053" y="374.36161616161615"/>
      <point x="247.8090909090909" y="339.61616161616166" type="curve" smooth="yes"/>
      <point x="282.4353535353535" y="299.43838383838386"/>
      <point x="312.45757575757574" y="275.8040404040404"/>
      <point x="350.96262626262626" y="275.8040404040404" type="curve" smooth="yes"/>
      <point x="428.75252525252523" y="275.8040404040404"/>
      <point x="444.889898989899" y="374.9606060606061"/>
      <point x="454.23131313131313" y="437.2737373737374" type="curve"/>
      <point x="418.8161616161616" y="437.2737373737374" type="line"/>
      <point x="406.1333333333333" y="365.9888888888889"/>
      <point x="395.1515151515152" y="309.37676767676766"/>
      <point x="350.8636363636364" y="309.37676767676766" type="curve" smooth="yes"/>
      <point x="322.8575757575758" y="309.37676767676766"/>
      <point x="298.76262626262627" y="331.8838383838384"/>
      <point x="266.3222222222222" y="369.1989898989899" type="curve" smooth="yes"/>
      <point x="230.76565656565657" y="409.2838383838384"/>
      <point x="202.48787878787877" y="437.5626262626263"/>
      <point x="158.73535353535357" y="437.5626262626263" type="curve" smooth="yes"/>
      <point x="79.13737373737374" y="437.5626262626263"/>
      <point x="66.57272727272728" y="343.54949494949494"/>
    </contour>
  </outline>
</glyph>
<glyph name="multiply" format="2">
  <advance width="509.7323232323232"/>
  <unicode hex="00D7"/>
  <outline>
    <contour>
      <point x="85.7040404040404" y="146.45050505050506" type="line"/>
      <point x="256.68888888888887" y="333.5252525252526" type="line"/>
      <point x="427.67373737373737" y="146.45050505050506" type="line"/>
      <point x="453.01616161616164" y="169.22727272727272" type="line"/>
      <point x="280.04242424242426" y="358.94545454545454" type="line"/>
      <point x="453.01616161616164" y="549.6626262626263" type="line"/>
      <point x="428.4616161616161" y="572.649494949495" type="line"/>
      <point x="256.68888888888887" y="384.5979797979798" type="line"/>
      <point x="85.49292929292929" y="572.0939393939394" type="line"/>
      <point x="60.86060606060607" y="549.2414141414142" type="line"/>
      <point x="233.9121212121212" y="359.079797979798" type="line"/>
      <point x="61.35959595959596" y="169.78282828282826" type="line"/>
    </contour>
  </outline>
</glyph>
<glyph name="divide" format="2">
  <advance width="509.8666666666667"/>
  <unicode hex="00F7"/>
  <outline>
    <contour>
      <point x="58.95555555555556" y="340.45353535353536" type="line"/>
      <point x="450.9111111111111" y="340.45353535353536" type="line"/>
      <point x="450.9111111111111" y="374.4707070707071" type="line"/>
      <point x="58.95555555555556" y="374.4707070707071" type="line"/>
    </contour>
    <contour>
      <point x="255.43333333333334" y="134.43838383838386" type="curve" smooth="yes"/>
      <point x="276.95050505050506" y="134.43838383838386"/>
      <point x="294.33131313131315" y="145.2080808080808"/>
      <point x="294.33131313131315" y="177.25050505050504" type="curve" smooth="yes"/>
      <point x="294.33131313131315" y="211.0808080808081"/>
      <point x="276.95050505050506" y="221.13939393939395"/>
      <point x="255.43333333333334" y="221.13939393939395" type="curve" smooth="yes"/>
      <point x="232.91616161616162" y="221.13939393939395"/>
      <point x="216.74646464646463" y="211.0808080808081"/>
      <point x="216.74646464646463" y="177.25050505050504" type="curve" smooth="yes"/>
      <point x="216.74646464646463" y="145.2080808080808"/>
      <point x="232.91616161616162" y="134.43838383838386"/>
    </contour>
    <contour>
      <point x="255.43333333333334" y="495.15050505050505" type="curve" smooth="yes"/>
      <point x="276.95050505050506" y="495.15050505050505"/>
      <point x="294.33131313131315" y="505.7858585858586"/>
      <point x="294.33131313131315" y="538.3272727272728" type="curve" smooth="yes"/>
      <point x="294.33131313131315" y="571.6585858585859"/>
      <point x="276.95050505050506" y="581.7171717171718"/>
      <point x="255.43333333333334" y="581.7171717171718" type="curve" smooth="yes"/>
      <point x="232.91616161616162" y="581.7171717171718"/>
      <point x="216.74646464646463" y="571.6585858585859"/>
      <point x="216.74646464646463" y="538.3272727272728" type="curve" smooth="yes"/>
      <point x="216.74646464646463" y="505.7858585858586"/>
      <point x="232.91616161616162" y="495.15050505050505"/>
    </contour>
  </outline>
</glyph>
<glyph name="udatta-deva" format="2">
  <unicode hex="0951"/>
  <anchor x="-299.0" y="-238.47070707070708" name="_vedic"/>
  <outline>
    <contour>
      <point x="-313.52828282828284" y="706.0" type="line"/>
      <point x="-284.25959595959597" y="706.0" type="line"/>
      <point x="-284.25959595959597" y="911.7878787878788" type="line"/>
      <point x="-313.52828282828284" y="911.7878787878788" type="line"/>
    </contour>
  </outline>
</glyph>
<glyph name="anudatta-deva" format="2">
  <unicode hex="0952"/>
  <anchor x="-299.0" y="347.14141414141415" name="_vedic"/>
  <outline>
    <contour>
      <point x="-484.94242424242424" y="-130.6060606060606" type="line"/>
      <point x="-112.34646464646465" y="-130.6060606060606" type="line"/>
      <point x="-112.34646464646465" y="-103.81818181818181" type="line"/>
      <point x="-484.94242424242424" y="-103.81818181818181" type="line"/>
    </contour>
  </outline>
</glyph>
<glyph name="danda-deva" format="2">
  <advance width="421.9797979797979"/>
  <unicode hex="0964"/>
  <outline>
    <contour>
      <point x="325.66666666666663" y="-12.757575757575758" type="line"/>
      <point x="328.66666666666663" y="-11.757575757575758" type="line"/>
      <point x="328.66666666666663" y="592.8787878787879" type="line"/>
      <point x="302.09090909090907" y="614.1212121212121" type="line"/>
      <point x="299.09090909090907" y="614.1212121212121" type="line"/>
      <point x="299.09090909090907" y="3.4242424242424243" type="line"/>
    </contour>
  </outline>
</glyph>
<glyph name="dbldanda-deva" format="2">
  <advance width="560.4979797979798"/>
  <unicode hex="0965"/>
  <outline>
    <contour>
      <point x="464.18484848484854" y="-12.757575757575758" type="line"/>
      <point x="467.18484848484854" y="-11.757575757575758" type="line"/>
      <point x="467.18484848484854" y="592.8787878787879" type="line"/>
      <point x="440.6090909090909" y="614.1212121212121" type="line"/>
      <point x="437.6090909090909" y="614.1212121212121" type="line"/>
      <point x="437.6090909090909" y="3.4242424242424243" type="line"/>
    </contour>
    <contour>
      <point x="325.66666666666663" y="-12.757575757575758" type="line"/>
      <point x="328.66666666666663" y="-11.757575757575758" type="line"/>
      <point x="328.66666666666663" y="592.8787878787879" type="line"/>
      <point x="302.09090909090907" y="614.1212121212121" type="line"/>
      <point x="299.09090909090907" y="614.1212121212121" type="line"/>
      <point x="299.09090909090907" y="3.4242424242424243" type="line"/>
    </contour>
  </outline>
</glyph>
<glyph name="anji-beng" format="2">
  <advance width="467.4525252525252"/>
  <unicode hex="0980"/>
  <anchor x="246.93030303030307" y="595.2121212121212" name="top"/>
  <outline>
    <contour>
      <point x="377.9727272727273" y="17.333333333333332" type="curve" smooth="yes"/>
      <point x="402.95959595959596" y="17.333333333333332"/>
      <point x="419.4414141414141" y="34.74444444444444"/>
      <point x="419.4414141414141" y="59.714141414141416" type="curve" smooth="yes"/>
      <point x="419.4414141414141" y="86.94949494949495"/>
      <point x="402.55454545454546" y="103.91818181818182"/>
      <point x="378.57171717171724" y="103.91818181818182" type="curve" smooth="yes"/>
      <point x="354.6484848484849" y="103.91818181818182"/>
      <point x="345.9545454545455" y="90.22121212121212"/>
      <point x="343.6858585858586" y="72.46363636363637" type="curve"/>
      <point x="357.3030303030303" y="70.88787878787879" type="line"/>
      <point x="357.3030303030303" y="500.95151515151514" type="line" smooth="yes"/>
      <point x="357.3030303030303" y="571.9343434343434"/>
      <point x="321.17373737373737" y="625.1515151515151"/>
      <point x="241.98282828282828" y="625.1515151515151" type="curve" smooth="yes"/>
      <point x="144.3787878787879" y="625.1515151515151"/>
      <point x="64.36767676767677" y="544.589898989899"/>
      <point x="64.36767676767677" y="434.7232323232323" type="curve" smooth="yes"/>
      <point x="64.36767676767677" y="340.64949494949497"/>
      <point x="118.72727272727272" y="278.75252525252523"/>
      <point x="192.54848484848486" y="278.75252525252523" type="curve" smooth="yes"/>
      <point x="235.44646464646465" y="278.75252525252523"/>
      <point x="257.830303030303" y="302.2191919191919"/>
      <point x="257.830303030303" y="339.45454545454544" type="curve" smooth="yes"/>
      <point x="257.830303030303" y="372.78989898989903"/>
      <point x="237.61717171717174" y="394.139393939394"/>
      <point x="206.5454545454546" y="394.139393939394" type="curve" smooth="yes"/>
      <point x="178.1989898989899" y="394.139393939394"/>
      <point x="157.64343434343434" y="372.94444444444446"/>
      <point x="157.64343434343434" y="342.64949494949497" type="curve" smooth="yes"/>
      <point x="157.64343434343434" y="324.55858585858584"/>
      <point x="164.65858585858587" y="310.1363636363636"/>
      <point x="172.65151515151518" y="303.289898989899" type="curve"/>
      <point x="193.29393939393938" y="317.6212121212121" type="line"/>
      <point x="186.1020202020202" y="314.40909090909093"/>
      <point x="179.19898989898988" y="313.40909090909093"/>
      <point x="172.7949494949495" y="313.40909090909093" type="curve" smooth="yes"/>
      <point x="133.23939393939395" y="313.40909090909093"/>
      <point x="96.05454545454545" y="356.13232323232324"/>
      <point x="96.05454545454545" y="422.92323232323236" type="curve" smooth="yes"/>
      <point x="96.05454545454545" y="525.9040404040404"/>
      <point x="173.64343434343434" y="593.0343434343434"/>
      <point x="251.6808080808081" y="593.0343434343434" type="curve" smooth="yes"/>
      <point x="302.1333333333333" y="593.0343434343434"/>
      <point x="328.24949494949493" y="560.7707070707071"/>
      <point x="328.24949494949493" y="499.0383838383838" type="curve" smooth="yes"/>
      <point x="328.24949494949493" y="76.32020202020203" type="line" smooth="yes"/>
      <point x="328.24949494949493" y="39.97979797979798"/>
      <point x="347.9858585858586" y="17.333333333333332"/>
    </contour>
  </outline>
</glyph>
<glyph name="candrabindu-beng" format="2">
  <unicode hex="0981"/>
  <anchor x="0.0" y="622.0" name="_top"/>
  <outline>
    <contour>
      <point x="-15.684848484848485" y="733.6666666666666" type="curve" smooth="yes"/>
      <point x="56.68989898989899" y="733.6666666666666"/>
      <point x="92.44141414141414" y="789.630303030303"/>
      <point x="104.77979797979798" y="869.7787878787879" type="curve"/>
      <point x="84.4070707070707" y="877.720202020202" type="line"/>
      <point x="69.18888888888888" y="803.739393939394"/>
      <point x="39.15252525252525" y="766.060606060606"/>
      <point x="-15.455555555555557" y="766.060606060606" type="curve" smooth="yes"/>
      <point x="-69.30909090909091" y="766.060606060606"/>
      <point x="-101.27373737373738" y="804.6060606060606"/>
      <point x="-121.31919191919192" y="877.720202020202" type="curve"/>
      <point x="-141.55757575757576" y="869.7787878787879" type="line"/>
      <point x="-124.66262626262626" y="789.630303030303"/>
      <point x="-85.47979797979798" y="733.6666666666666"/>
    </contour>
    <contour>
      <point x="-15.534343434343436" y="836.2727272727273" type="curve" smooth="yes"/>
      <point x="4.583838383838383" y="836.2727272727273"/>
      <point x="20.944444444444446" y="850.2212121212121"/>
      <point x="20.944444444444446" y="875.1070707070708" type="curve" smooth="yes"/>
      <point x="20.944444444444446" y="899.1686868686869"/>
      <point x="5.082828282828282" y="914.3636363636364"/>
      <point x="-15.534343434343436" y="914.3636363636364" type="curve" smooth="yes"/>
      <point x="-37.78484848484849" y="914.3636363636364"/>
      <point x="-54.06868686868687" y="899.6676767676768"/>
      <point x="-54.06868686868687" y="875.1070707070708" type="curve" smooth="yes"/>
      <point x="-54.06868686868687" y="850.2212121212121"/>
      <point x="-37.151515151515156" y="836.2727272727273"/>
    </contour>
  </outline>
</glyph>
<glyph name="anusvara-beng" format="2">
  <advance width="361.7626262626263"/>
  <unicode hex="0982"/>
  <anchor x="-170.15454545454546" y="0.0" name="vedic"/>
  <outline>
    <contour>
      <point x="176.65151515151516" y="376.8181818181818" type="curve" smooth="yes"/>
      <point x="243.74444444444447" y="376.8181818181818"/>
      <point x="291.0383838383838" y="430.1080808080808"/>
      <point x="291.0383838383838" y="507.610101010101" type="curve" smooth="yes"/>
      <point x="291.0383838383838" y="575.9555555555555"/>
      <point x="251.97979797979795" y="626.939393939394"/>
      <point x="184.7080808080808" y="626.939393939394" type="curve" smooth="yes"/>
      <point x="117.53737373737374" y="626.939393939394"/>
      <point x="70.74444444444444" y="572.7272727272727"/>
      <point x="70.74444444444444" y="498.3030303030303" type="curve" smooth="yes"/>
      <point x="70.74444444444444" y="430.35858585858585"/>
      <point x="108.92525252525252" y="376.8181818181818"/>
    </contour>
    <contour>
      <point x="166.82929292929293" y="406.1212121212121" type="curve" smooth="yes"/>
      <point x="127.62525252525252" y="406.1212121212121"/>
      <point x="100.45151515151515" y="438.6666666666667"/>
      <point x="100.45151515151515" y="485.79090909090905" type="curve" smooth="yes"/>
      <point x="100.45151515151515" y="543.7242424242424"/>
      <point x="139.29898989898993" y="596.5757575757576"/>
      <point x="195.74545454545458" y="596.5757575757576" type="curve" smooth="yes"/>
      <point x="234.98787878787877" y="596.5757575757576"/>
      <point x="262.25555555555553" y="566.1808080808081"/>
      <point x="262.25555555555553" y="519.470707070707" type="curve" smooth="yes"/>
      <point x="262.25555555555553" y="460.669696969697"/>
      <point x="223.27272727272725" y="406.1212121212121"/>
    </contour>
    <contour>
      <point x="301.27474747474747" y="-26.96969696969697" type="curve"/>
      <point x="320.18383838383835" y="-15.90909090909091" type="line"/>
      <point x="269.9515151515152" y="104.0030303030303"/>
      <point x="186.94949494949495" y="211.11414141414141"/>
      <point x="100.06060606060605" y="286.6757575757576" type="curve"/>
      <point x="73.70303030303032" y="248.75757575757575" type="line"/>
      <point x="163.06969696969696" y="186.33333333333334"/>
      <point x="246.06161616161617" y="79.8040404040404"/>
    </contour>
  </outline>
</glyph>
<glyph name="visarga-beng" format="2">
  <advance width="362.7808080808081"/>
  <unicode hex="0983"/>
  <anchor x="-170.15454545454546" y="0.0" name="vedic"/>
  <outline>
    <contour>
      <point x="176.65151515151516" y="375.3212121212121" type="curve" smooth="yes"/>
      <point x="244.24343434343433" y="375.3212121212121"/>
      <point x="292.03636363636366" y="428.61111111111114"/>
      <point x="292.03636363636366" y="506.1131313131313" type="curve" smooth="yes"/>
      <point x="292.03636363636366" y="573.959595959596"/>
      <point x="251.97979797979795" y="624.9434343434343"/>
      <point x="185.2070707070707" y="624.9434343434343" type="curve" smooth="yes"/>
      <point x="117.53737373737374" y="624.9434343434343"/>
      <point x="70.74444444444444" y="570.7313131313132"/>
      <point x="70.74444444444444" y="496.8060606060606" type="curve" smooth="yes"/>
      <point x="70.74444444444444" y="428.86161616161615"/>
      <point x="109.92323232323233" y="375.3212121212121"/>
    </contour>
    <contour>
      <point x="166.82929292929293" y="404.6242424242424" type="curve" smooth="yes"/>
      <point x="127.62525252525252" y="404.6242424242424"/>
      <point x="100.95050505050506" y="437.169696969697"/>
      <point x="100.95050505050506" y="484.2939393939394" type="curve" smooth="yes"/>
      <point x="100.95050505050506" y="542.2272727272727"/>
      <point x="139.29898989898993" y="595.0787878787879"/>
      <point x="196.24444444444447" y="595.0787878787879" type="curve" smooth="yes"/>
      <point x="235.4868686868687" y="595.0787878787879"/>
      <point x="262.75454545454545" y="564.1848484848485"/>
      <point x="262.75454545454545" y="517.4747474747475" type="curve" smooth="yes"/>
      <point x="262.75454545454545" y="459.1727272727273"/>
      <point x="223.77171717171717" y="404.6242424242424"/>
    </contour>
    <contour>
      <point x="176.65151515151516" y="4.6959595959595966" type="curve" smooth="yes"/>
      <point x="244.24343434343433" y="4.6959595959595966"/>
      <point x="292.03636363636366" y="57.98585858585859"/>
      <point x="292.03636363636366" y="135.35353535353536" type="curve" smooth="yes"/>
      <point x="292.03636363636366" y="203.33434343434345"/>
      <point x="251.97979797979795" y="254.18383838383838"/>
      <point x="185.2070707070707" y="254.18383838383838" type="curve" smooth="yes"/>
      <point x="117.53737373737374" y="254.18383838383838"/>
      <point x="70.74444444444444" y="200.1060606060606"/>
      <point x="70.74444444444444" y="126.04646464646464" type="curve" smooth="yes"/>
      <point x="70.74444444444444" y="58.236363636363635"/>
      <point x="109.92323232323233" y="4.6959595959595966"/>
    </contour>
    <contour>
      <point x="166.82929292929293" y="33.86464646464647" type="curve" smooth="yes"/>
      <point x="127.62525252525252" y="33.86464646464647"/>
      <point x="100.95050505050506" y="66.41010101010102"/>
      <point x="100.95050505050506" y="113.53434343434343" type="curve" smooth="yes"/>
      <point x="100.95050505050506" y="171.6020202020202"/>
      <point x="139.29898989898993" y="224.31919191919192"/>
      <point x="196.24444444444447" y="224.31919191919192" type="curve" smooth="yes"/>
      <point x="235.4868686868687" y="224.31919191919192"/>
      <point x="262.75454545454545" y="193.42525252525252"/>
      <point x="262.75454545454545" y="146.84949494949495" type="curve" smooth="yes"/>
      <point x="262.75454545454545" y="88.54747474747475"/>
      <point x="223.77171717171717" y="33.86464646464647"/>
    </contour>
  </outline>
</glyph>
<glyph name="a-beng" format="2">
  <advance width="684.6515151515151"/>
  <unicode hex="0985"/>
  <anchor x="596.4949494949494" y="-10.242424242424242" name="bottom"/>
  <anchor x="598.5696969696969" y="54.24242424242424" name="bottom.rakaar"/>
  <anchor x="598.5696969696969" y="7.272727272727273" name="bottom.rvocalic"/>
  <anchor x="587.4929292929294" y="1.2727272727272734" name="bottom.virama"/>
  <anchor x="598.5696969696969" y="595.2121212121212" name="top"/>
  <anchor x="598.5696969696969" y="595.2121212121212" name="topright"/>
  <anchor x="342.1424242424243" y="0.0" name="vedic"/>
  <outline>
    <contour>
      <point x="594.9121212121212" y="-5.121212121212121" type="line"/>
      <point x="598.4141414141415" y="-4.121212121212121" type="line"/>
      <point x="598.4141414141415" y="595.2121212121212" type="line"/>
      <point x="704.3060606060607" y="595.2121212121212" type="line"/>
      <point x="687.1080808080808" y="622.0" type="line"/>
      <point x="-19.654545454545456" y="622.0" type="line"/>
      <point x="-2.6686868686868688" y="595.2121212121212" type="line"/>
      <point x="569.360606060606" y="595.2121212121212" type="line"/>
      <point x="569.360606060606" y="52.37272727272727" type="line"/>
      <point x="578.1929292929293" y="51.900000000000006" type="line"/>
      <point x="552.1121212121212" y="127.81313131313131"/>
      <point x="508.6181818181818" y="185.87777777777777"/>
      <point x="453.0585858585859" y="232.81919191919192" type="curve"/>
      <point x="441.70101010101007" y="201.56868686868688" type="line"/>
      <point x="500.22424242424245" y="154.51414141414142"/>
      <point x="542.1828282828283" y="93.22525252525253"/>
      <point x="574.1909090909091" y="12.924242424242424" type="curve"/>
    </contour>
    <contour>
      <point x="319.2040404040404" y="124.9040404040404" type="curve" smooth="yes"/>
      <point x="415.7787878787879" y="124.9040404040404"/>
      <point x="478.2747474747474" y="188.56262626262628"/>
      <point x="480.84848484848476" y="309.4343434343434" type="curve" smooth="yes"/>
      <point x="483.7111111111111" y="435.2363636363636"/>
      <point x="411.22828282828283" y="514.5696969696969"/>
      <point x="310.48080808080806" y="512.0747474747475" type="curve" smooth="yes"/>
      <point x="248.84343434343438" y="510.5777777777778"/>
      <point x="218.1020202020202" y="483.3020202020202"/>
      <point x="218.1020202020202" y="438.8040404040404" type="curve" smooth="yes"/>
      <point x="218.1020202020202" y="399.8666666666667"/>
      <point x="243.62323232323232" y="374.610101010101"/>
      <point x="279.16565656565655" y="374.610101010101" type="curve" smooth="yes"/>
      <point x="317.920202020202" y="374.610101010101"/>
      <point x="338.53434343434344" y="405.869696969697"/>
      <point x="338.53434343434344" y="446.169696969697" type="curve" smooth="yes"/>
      <point x="338.53434343434344" y="519.4767676767677"/>
      <point x="296.1212121212121" y="571.4444444444445"/>
      <point x="262.49898989898986" y="599.060606060606" type="curve"/>
      <point x="208.77474747474747" y="598.6363636363636" type="line"/>
      <point x="274.4737373737374" y="565.3515151515152"/>
      <point x="304.31313131313135" y="518.2969696969698"/>
      <point x="311.5616161616162" y="469.0747474747475" type="curve"/>
      <point x="319.9090909090909" y="472.559595959596"/>
      <point x="326.6252525252525" y="473.98383838383836"/>
      <point x="335.9353535353535" y="473.98383838383836" type="curve" smooth="yes"/>
      <point x="390.4373737373738" y="473.98383838383836"/>
      <point x="453.01212121212126" y="426.76666666666665"/>
      <point x="453.6838383838384" y="320.5151515151515" type="curve" smooth="yes"/>
      <point x="454.35555555555555" y="219.1818181818182"/>
      <point x="402.43636363636364" y="164.9040404040404"/>
      <point x="314.92121212121214" y="164.9040404040404" type="curve" smooth="yes"/>
      <point x="213.36161616161618" y="164.9040404040404"/>
      <point x="119.56767676767677" y="249.10303030303032"/>
      <point x="57.54141414141414" y="507.46060606060604" type="curve"/>
      <point x="33.97373737373738" y="501.4414141414141" type="line"/>
      <point x="101.08585858585859" y="210.95656565656566"/>
      <point x="207.86565656565656" y="124.9040404040404"/>
    </contour>
  </outline>
</glyph>
<glyph name="aa-beng" format="2">
  <advance width="874.0434343434343"/>
  <unicode hex="0986"/>
  <anchor x="596.4949494949494" y="-10.242424242424242" name="bottom"/>
  <anchor x="598.5696969696969" y="54.24242424242424" name="bottom.rakaar"/>
  <anchor x="598.5696969696969" y="7.272727272727273" name="bottom.rvocalic"/>
  <anchor x="587.4929292929294" y="1.2727272727272734" name="bottom.virama"/>
  <anchor x="788.3282828282828" y="595.2121212121212" name="top"/>
  <anchor x="788.3282828282828" y="543.5757575757576" name="topright"/>
  <anchor x="436.7050505050505" y="0.0" name="vedic"/>
  <outline>
    <contour>
      <point x="594.9121212121212" y="-5.121212121212121" type="line"/>
      <point x="598.4141414141415" y="-4.121212121212121" type="line"/>
      <point x="598.4141414141415" y="595.2121212121212" type="line"/>
      <point x="685.678787878788" y="595.2121212121212" type="line"/>
      <point x="668.4808080808081" y="622.0" type="line"/>
      <point x="-19.654545454545456" y="622.0" type="line"/>
      <point x="-2.6686868686868688" y="595.2121212121212" type="line"/>
      <point x="569.360606060606" y="595.2121212121212" type="line"/>
      <point x="569.360606060606" y="52.37272727272727" type="line"/>
      <point x="578.1929292929293" y="51.900000000000006" type="line"/>
      <point x="552.1121212121212" y="127.81313131313131"/>
      <point x="508.6181818181818" y="185.87777777777777"/>
      <point x="453.0585858585859" y="232.81919191919192" type="curve"/>
      <point x="441.70101010101007" y="201.56868686868688" type="line"/>
      <point x="500.22424242424245" y="154.51414141414142"/>
      <point x="542.1828282828283" y="93.22525252525253"/>
      <point x="574.1909090909091" y="12.924242424242424" type="curve"/>
    </contour>
    <contour>
      <point x="319.2040404040404" y="124.9040404040404" type="curve" smooth="yes"/>
      <point x="415.7787878787879" y="124.9040404040404"/>
      <point x="478.2747474747474" y="188.56262626262628"/>
      <point x="480.84848484848476" y="309.4343434343434" type="curve" smooth="yes"/>
      <point x="483.7111111111111" y="435.2363636363636"/>
      <point x="411.22828282828283" y="514.5696969696969"/>
      <point x="310.48080808080806" y="512.0747474747475" type="curve" smooth="yes"/>
      <point x="248.84343434343438" y="510.5777777777778"/>
      <point x="218.1020202020202" y="483.3020202020202"/>
      <point x="218.1020202020202" y="438.8040404040404" type="curve" smooth="yes"/>
      <point x="218.1020202020202" y="399.8666666666667"/>
      <point x="243.62323232323232" y="374.610101010101"/>
      <point x="279.16565656565655" y="374.610101010101" type="curve" smooth="yes"/>
      <point x="317.920202020202" y="374.610101010101"/>
      <point x="338.53434343434344" y="405.869696969697"/>
      <point x="338.53434343434344" y="446.169696969697" type="curve" smooth="yes"/>
      <point x="338.53434343434344" y="519.4767676767677"/>
      <point x="296.1212121212121" y="571.4444444444445"/>
      <point x="262.49898989898986" y="599.060606060606" type="curve"/>
      <point x="208.77474747474747" y="598.6363636363636" type="line"/>
      <point x="274.4737373737374" y="565.3515151515152"/>
      <point x="304.31313131313135" y="518.2969696969698"/>
      <point x="311.5616161616162" y="469.0747474747475" type="curve"/>
      <point x="319.9090909090909" y="472.559595959596"/>
      <point x="326.6252525252525" y="473.98383838383836"/>
      <point x="335.9353535353535" y="473.98383838383836" type="curve" smooth="yes"/>
      <point x="390.4373737373738" y="473.98383838383836"/>
      <point x="453.6838383838384" y="426.76666666666665"/>
      <point x="453.6838383838384" y="320.5151515151515" type="curve" smooth="yes"/>
      <point x="453.6838383838384" y="219.04747474747475"/>
      <point x="402.3020202020202" y="164.9040404040404"/>
      <point x="314.92121212121214" y="164.9040404040404" type="curve" smooth="yes"/>
      <point x="213.36161616161618" y="164.9040404040404"/>
      <point x="119.56767676767677" y="249.10303030303032"/>
      <point x="57.54141414141414" y="507.46060606060604" type="curve"/>
      <point x="33.97373737373738" y="501.4414141414141" type="line"/>
      <point x="101.08585858585859" y="210.95656565656566"/>
      <point x="207.86565656565656" y="124.9040404040404"/>
    </contour>
    <contour>
      <point x="784.7282828282829" y="-13.181818181818182" type="line"/>
      <point x="787.8060606060606" y="-12.181818181818182" type="line"/>
      <point x="787.8060606060606" y="595.2121212121212" type="line"/>
      <point x="893.6979797979799" y="595.2121212121212" type="line"/>
      <point x="876.3656565656565" y="622.0" type="line"/>
      <point x="787.5727272727273" y="622.0" type="line"/>
      <point x="784.5717171717172" y="661.8484848484849" type="line"/>
      <point x="762.4636363636364" y="679.0909090909091" type="line"/>
      <point x="758.7525252525253" y="678.0909090909091" type="line"/>
      <point x="758.7525252525253" y="619.5555555555555" type="line" smooth="yes"/>
      <point x="758.7525252525253" y="602.4"/>
      <point x="760.3111111111111" y="570.4747474747475"/>
      <point x="762.5242424242424" y="532.8686868686868" type="curve"/>
      <point x="768.5787878787878" y="532.3515151515152" type="line"/>
      <point x="760.631313131313" y="606.6878787878787"/>
      <point x="723.1434343434344" y="622.0"/>
      <point x="694.3636363636365" y="622.0" type="curve" smooth="yes"/>
      <point x="650.1737373737374" y="622.0" type="line"/>
      <point x="667.2373737373737" y="595.2121212121212" type="line"/>
      <point x="690.9494949494949" y="595.2121212121212" type="line" smooth="yes"/>
      <point x="729.0444444444446" y="595.2121212121212"/>
      <point x="751.8707070707071" y="566.969696969697"/>
      <point x="758.7525252525253" y="505.09090909090907" type="curve"/>
      <point x="758.7525252525253" y="3.0" type="line"/>
    </contour>
  </outline>
</glyph>
<glyph name="i-beng" format="2">
  <advance width="423.45959595959596"/>
  <unicode hex="0987"/>
  <anchor x="264.9282828282828" y="77.31616161616162" name="bottom"/>
  <anchor x="376.1363636363636" y="-91.45858585858586" name="bottom.rakaar"/>
  <anchor x="304.49191919191924" y="97.87878787878788" name="bottom.rvocalic"/>
  <anchor x="234.38585858585856" y="90.0" name="bottom.virama"/>
  <anchor x="264.7848484848485" y="624.0909090909091" name="top"/>
  <anchor x="205.9939393939394" y="633.1080808080808" name="topright"/>
  <anchor x="211.44141414141416" y="0.0" name="vedic"/>
  <outline>
    <contour>
      <point x="331.7868686868687" y="616.7272727272727" type="curve"/>
      <point x="355.64444444444445" y="616.7272727272727" type="line"/>
      <point x="349.8777777777778" y="725.6858585858586"/>
      <point x="313.27575757575755" y="775.880808080808"/>
      <point x="240.3989898989899" y="775.880808080808" type="curve" smooth="yes"/>
      <point x="194.54848484848483" y="775.880808080808"/>
      <point x="156.48080808080806" y="763.7494949494949"/>
      <point x="103.92727272727274" y="763.7494949494949" type="curve" smooth="yes"/>
      <point x="45.656565656565654" y="763.7494949494949"/>
      <point x="15.495959595959597" y="788.3020202020202"/>
      <point x="15.495959595959597" y="865.0020202020203" type="curve" smooth="yes"/>
      <point x="15.495959595959597" y="876.1010101010102"/>
      <point x="16.495959595959597" y="890.0666666666666"/>
      <point x="18.07272727272727" y="901.1040404040403" type="curve"/>
      <point x="-4.551515151515153" y="903.5282828282828" type="line"/>
      <point x="-6.34040404040404" y="890.8090909090909"/>
      <point x="-7.839393939393941" y="872.1535353535353"/>
      <point x="-7.839393939393941" y="857.0393939393939" type="curve" smooth="yes"/>
      <point x="-7.839393939393941" y="766.878787878788"/>
      <point x="33.37878787878788" y="728.5858585858587"/>
      <point x="103.22020202020202" y="728.5858585858587" type="curve" smooth="yes"/>
      <point x="159.33838383838383" y="728.5858585858587"/>
      <point x="192.19393939393942" y="740.929292929293"/>
      <point x="246.39696969696968" y="740.929292929293" type="curve" smooth="yes"/>
      <point x="304.84141414141413" y="740.929292929293"/>
      <point x="327.3666666666667" y="692.9606060606061"/>
    </contour>
    <component base="ha-beng" xOffset="0.5777777777777777"/>
  </outline>
</glyph>
<glyph name="ii-beng" format="2">
  <advance width="546.059595959596"/>
  <unicode hex="0988"/>
  <anchor x="474.42424242424244" y="-27.757575757575758" name="bottom"/>
  <anchor x="474.6363636363637" y="70.0" name="bottom.rakaar"/>
  <anchor x="461.17777777777775" y="13.848484848484848" name="bottom.rvocalic"/>
  <anchor x="466.73030303030305" y="0.0" name="bottom.virama"/>
  <anchor x="311.97272727272724" y="624.0909090909091" name="top"/>
  <anchor x="269.9686868686869" y="633.030303030303" name="topright"/>
  <anchor x="272.5686868686869" y="0.0" name="vedic"/>
  <outline>
    <contour>
      <point x="453.18888888888887" y="-0.9272727272727279" type="curve"/>
      <point x="475.0666666666667" y="7.9393939393939394" type="line"/>
      <point x="454.2111111111111" y="74.7939393939394"/>
      <point x="439.71616161616157" y="133.1040404040404"/>
      <point x="439.71616161616157" y="222.83333333333331" type="curve" smooth="yes"/>
      <point x="439.71616161616157" y="316.57373737373734"/>
      <point x="459.93939393939394" y="393.76767676767673"/>
      <point x="486.9616161616162" y="441.05858585858584" type="curve"/>
      <point x="448.25656565656567" y="479.9414141414141" type="line"/>
      <point x="394.4494949494949" y="446.8555555555556"/>
      <point x="325.5969696969697" y="368.0070707070707"/>
      <point x="274.98686868686866" y="272.7858585858586" type="curve"/>
      <point x="289.7020202020202" y="275.2434343434344" type="line"/>
      <point x="295.2727272727273" y="293.75252525252523"/>
      <point x="305.54343434343434" y="316.77171717171717"/>
      <point x="305.54343434343434" y="354.9020202020202" type="curve" smooth="yes"/>
      <point x="305.54343434343434" y="453.9313131313131"/>
      <point x="248.45858585858585" y="508.7878787878788"/>
      <point x="155.18383838383838" y="508.7878787878788" type="curve" smooth="yes"/>
      <point x="98.80404040404039" y="508.7878787878788"/>
      <point x="67.04040404040404" y="483.6666666666667"/>
      <point x="67.53939393939393" y="441.4848484848485" type="curve" smooth="yes"/>
      <point x="68.03838383838384" y="407.09090909090907"/>
      <point x="89.48080808080809" y="387.6969696969697"/>
      <point x="120.13737373737374" y="387.6969696969697" type="curve" smooth="yes"/>
      <point x="156.75252525252523" y="387.6969696969697"/>
      <point x="175.64141414141415" y="418.0262626262626"/>
      <point x="175.64141414141415" y="458.48080808080806" type="curve" smooth="yes"/>
      <point x="175.64141414141415" y="501.48080808080806"/>
      <point x="149.7959595959596" y="560.3353535353535"/>
      <point x="101.25151515151515" y="599.8484848484849" type="curve"/>
      <point x="49.9969696969697" y="599.8484848484849" type="line"/>
      <point x="99.16666666666666" y="573.969696969697"/>
      <point x="133.29898989898987" y="535.969696969697"/>
      <point x="147.1080808080808" y="482.1818181818182" type="curve"/>
      <point x="125.99191919191918" y="456.77171717171717" type="line"/>
      <point x="144.1050505050505" y="467.8929292929293"/>
      <point x="159.49292929292932" y="473.95353535353536"/>
      <point x="180.97070707070705" y="473.95353535353536" type="curve" smooth="yes"/>
      <point x="239.81010101010102" y="473.95353535353536"/>
      <point x="278.97777777777776" y="429.4"/>
      <point x="278.97777777777776" y="356.48383838383836" type="curve" smooth="yes"/>
      <point x="278.97777777777776" y="314.31818181818176"/>
      <point x="271.8272727272727" y="276.77373737373733"/>
      <point x="253.39393939393938" y="243.98686868686866" type="curve" smooth="yes"/>
      <point x="232.44343434343438" y="207.2585858585859"/>
      <point x="201.44646464646465" y="177.92929292929293"/>
      <point x="169.77979797979796" y="177.92929292929293" type="curve" smooth="yes"/>
      <point x="127.99191919191918" y="177.92929292929293"/>
      <point x="97.0979797979798" y="228.85050505050503"/>
      <point x="77.89090909090909" y="267.7242424242424" type="curve"/>
      <point x="57.670707070707074" y="257.8161616161616" type="line"/>
      <point x="83.4020202020202" y="198.43636363636364"/>
      <point x="121.1090909090909" y="140.169696969697"/>
      <point x="176.82222222222222" y="140.169696969697" type="curve" smooth="yes"/>
      <point x="230.14747474747475" y="140.169696969697"/>
      <point x="262.8454545454545" y="189.83232323232326"/>
      <point x="299.45454545454544" y="250.77575757575758" type="curve" smooth="yes"/>
      <point x="340.7181818181818" y="317.4777777777778"/>
      <point x="403.12323232323234" y="403.0535353535353"/>
      <point x="460.6222222222222" y="443.63535353535354" type="curve"/>
      <point x="452.16565656565655" y="448.3575757575757" type="line"/>
      <point x="428.59494949494945" y="411.56969696969696"/>
      <point x="409.4707070707071" y="323.81515151515157"/>
      <point x="409.4707070707071" y="237.63535353535352" type="curve" smooth="yes"/>
      <point x="409.4707070707071" y="152.5818181818182"/>
      <point x="425.7949494949495" y="76.68080808080808"/>
    </contour>
    <contour>
      <point x="-2.6686868686868688" y="595.2121212121212" type="line"/>
      <point x="565.7141414141414" y="595.2121212121212" type="line"/>
      <point x="548.5939393939394" y="622.0" type="line"/>
      <point x="-19.654545454545456" y="622.0" type="line"/>
    </contour>
    <contour>
      <point x="426.1242424242424" y="616.7272727272727" type="curve"/>
      <point x="450.0383838383838" y="616.7272727272727" type="line"/>
      <point x="440.73434343434343" y="725.4747474747475"/>
      <point x="397.26262626262627" y="776.6363636363636"/>
      <point x="318.8787878787879" y="776.6363636363636" type="curve" smooth="yes"/>
      <point x="265.35757575757583" y="776.6363636363636"/>
      <point x="235.32323232323236" y="763.6969696969697"/>
      <point x="175.02424242424243" y="763.6969696969697" type="curve" smooth="yes"/>
      <point x="106.43030303030304" y="763.6969696969697"/>
      <point x="72.48383838383839" y="788.5151515151515"/>
      <point x="72.48383838383839" y="866.7272727272727" type="curve" smooth="yes"/>
      <point x="72.48383838383839" y="876.7232323232323"/>
      <point x="73.27171717171717" y="889.7414141414141"/>
      <point x="74.84848484848484" y="901.1818181818181" type="curve"/>
      <point x="52.51414141414141" y="903.6060606060606" type="line"/>
      <point x="50.09191919191919" y="889.0464646464646"/>
      <point x="49.01414141414141" y="872.3363636363637"/>
      <point x="49.01414141414141" y="858.3333333333334" type="curve" smooth="yes"/>
      <point x="49.01414141414141" y="766.6535353535354"/>
      <point x="93.34949494949495" y="727.9111111111112"/>
      <point x="173.33838383838383" y="727.9111111111112" type="curve" smooth="yes"/>
      <point x="237.58080808080808" y="727.9111111111112"/>
      <point x="266.81919191919195" y="741.0626262626263"/>
      <point x="328.4222222222223" y="741.0626262626263" type="curve" smooth="yes"/>
      <point x="389.09898989898994" y="741.0626262626263"/>
      <point x="418.74343434343433" y="692.8828282828283"/>
    </contour>
  </outline>
</glyph>
<glyph name="u-beng" format="2">
  <advance width="562.3727272727273"/>
  <unicode hex="0989"/>
  <anchor x="402.5979797979798" y="38.72727272727273" name="bottom"/>
  <anchor x="445.85353535353534" y="-21.835353535353537" name="bottom.rakaar"/>
  <anchor x="375.46262626262626" y="79.35050505050505" name="bottom.rvocalic"/>
  <anchor x="340.6565656565656" y="26.683838383838385" name="bottom.virama"/>
  <anchor x="280.2939393939394" y="611.2484848484848" name="top"/>
  <anchor x="260.46565656565656" y="615.5646464646464" name="topright"/>
  <anchor x="281.14747474747475" y="0.0" name="vedic"/>
  <anchor x="297.3333333333333" y="-22.60606060606061" name="nukta"/>
  <outline>
    <contour>
      <point x="444.9818181818182" y="616.7272727272727" type="curve"/>
      <point x="468.8959595959596" y="616.7272727272727" type="line"/>
      <point x="459.82525252525255" y="725.3191919191919"/>
      <point x="416.8848484848485" y="776.3252525252525"/>
      <point x="338.0474747474748" y="776.3252525252525" type="curve" smooth="yes"/>
      <point x="283.18484848484843" y="776.3252525252525"/>
      <point x="249.89090909090905" y="763.3858585858586"/>
      <point x="189.9808080808081" y="763.3858585858586" type="curve" smooth="yes"/>
      <point x="121.62020202020203" y="763.3858585858586"/>
      <point x="87.90707070707072" y="788.9040404040404"/>
      <point x="87.90707070707072" y="865.3272727272728" type="curve" smooth="yes"/>
      <point x="87.90707070707072" y="875.7121212121212"/>
      <point x="88.77272727272728" y="889.2747474747475"/>
      <point x="90.34949494949494" y="901.1040404040403" type="curve"/>
      <point x="67.70404040404041" y="903.5282828282828" type="line"/>
      <point x="65.28181818181818" y="888.7353535353535"/>
      <point x="64.28181818181818" y="872.0252525252525"/>
      <point x="64.28181818181818" y="857.5555555555557" type="curve" smooth="yes"/>
      <point x="64.28181818181818" y="766.5757575757576"/>
      <point x="108.53939393939395" y="728.0666666666667"/>
      <point x="188.45050505050506" y="728.0666666666667" type="curve" smooth="yes"/>
      <point x="252.3818181818182" y="728.0666666666667"/>
      <point x="284.1020202020202" y="741.2181818181818"/>
      <point x="347.04646464646464" y="741.2181818181818" type="curve" smooth="yes"/>
      <point x="408.72121212121215" y="741.2181818181818"/>
      <point x="437.5232323232324" y="692.8828282828283"/>
    </contour>
    <component base="dda-beng"/>
  </outline>
</glyph>
<glyph name="uu-beng" format="2">
  <advance width="615.0181818181819"/>
  <unicode hex="098A"/>
  <anchor x="457.37575757575763" y="38.72727272727273" name="bottom"/>
  <anchor x="500.63131313131316" y="-21.757575757575758" name="bottom.rakaar"/>
  <anchor x="429.95151515151514" y="79.27272727272728" name="bottom.rvocalic"/>
  <anchor x="394.98989898989896" y="26.606060606060606" name="bottom.virama"/>
  <anchor x="346.26868686868687" y="621.7272727272727" name="top"/>
  <anchor x="321.7787878787879" y="633.030303030303" name="topright"/>
  <anchor x="307.25959595959597" y="0.0" name="vedic"/>
  <outline>
    <contour>
      <point x="379.3161616161616" y="76.78787878787878" type="curve" smooth="yes"/>
      <point x="503.3313131313132" y="76.78787878787878"/>
      <point x="563.0888888888888" y="158.51616161616164"/>
      <point x="563.0888888888888" y="278.30909090909086" type="curve" smooth="yes"/>
      <point x="563.0888888888888" y="361.6272727272727"/>
      <point x="535.1030303030302" y="415.6020202020202"/>
      <point x="502.0393939393939" y="449.589898989899" type="curve"/>
      <point x="461.6060606060606" y="386.41212121212124"/>
      <point x="403.3070707070707" y="328.710101010101"/>
      <point x="353.9464646464646" y="328.710101010101" type="curve" smooth="yes"/>
      <point x="325.5060606060606" y="328.710101010101"/>
      <point x="311.6676767676768" y="344.72424242424245"/>
      <point x="311.6676767676768" y="370.8131313131313" type="curve" smooth="yes"/>
      <point x="311.6676767676768" y="595.2121212121212" type="line"/>
      <point x="634.6727272727273" y="595.2121212121212" type="line"/>
      <point x="617.1080808080809" y="622.0" type="line"/>
      <point x="-19.654545454545456" y="622.0" type="line"/>
      <point x="-2.456565656565657" y="595.2121212121212" type="line"/>
      <point x="282.61414141414144" y="595.2121212121212" type="line"/>
      <point x="282.61414141414144" y="368.7757575757576" type="line" smooth="yes"/>
      <point x="282.61414141414144" y="338.160606060606"/>
      <point x="293.8777777777778" y="320.19494949494947"/>
      <point x="309.26262626262627" y="308.93939393939394" type="curve" smooth="yes"/>
      <point x="323.66565656565655" y="298.24242424242425"/>
      <point x="339.8" y="293.510101010101"/>
      <point x="358.779797979798" y="293.510101010101" type="curve" smooth="yes"/>
      <point x="411.8575757575758" y="293.510101010101"/>
      <point x="468.0535353535354" y="336.0464646464646"/>
      <point x="517.5808080808081" y="407.4323232323232" type="curve"/>
      <point x="497.6808080808081" y="408.5949494949495" type="line"/>
      <point x="517.3888888888889" y="387.23333333333335"/>
      <point x="535.3262626262626" y="350.83434343434345"/>
      <point x="535.3262626262626" y="287.3131313131313" type="curve" smooth="yes"/>
      <point x="535.3262626262626" y="174.2949494949495"/>
      <point x="479.95656565656566" y="116.08888888888889"/>
      <point x="384.94242424242424" y="115.68585858585858" type="curve" smooth="yes"/>
      <point x="249.28888888888886" y="115.01414141414142"/>
      <point x="190.2080808080808" y="284.1212121212121"/>
      <point x="143.82020202020203" y="499.34747474747473" type="curve"/>
      <point x="120.6969696969697" y="493.1515151515151" type="line"/>
      <point x="153.74141414141414" y="323.12525252525256"/>
      <point x="193.64545454545456" y="189.35050505050506"/>
      <point x="283.3212121212121" y="112.45454545454545" type="curve"/>
      <point x="302.1878787878788" y="119.12121212121212" type="line"/>
      <point x="183.46464646464648" y="146.1818181818182"/>
      <point x="104.35151515151516" y="277.9232323232323"/>
      <point x="53.1949494949495" y="499.34747474747473" type="curve"/>
      <point x="30.07171717171717" y="493.1515151515151" type="line"/>
      <point x="87.68686868686869" y="220.87878787878788"/>
      <point x="188.68080808080808" y="76.78787878787878"/>
    </contour>
    <contour>
      <point x="504.25656565656556" y="616.7272727272727" type="curve"/>
      <point x="528.0929292929294" y="616.7272727272727" type="line"/>
      <point x="518.7888888888889" y="725.4747474747475"/>
      <point x="470.3888888888889" y="777.4848484848485"/>
      <point x="385.9171717171717" y="777.4848484848485" type="curve" smooth="yes"/>
      <point x="323.6373737373737" y="777.4848484848485"/>
      <point x="263.05757575757576" y="759.5858585858587"/>
      <point x="190.72424242424242" y="759.5858585858587" type="curve" smooth="yes"/>
      <point x="119.0050505050505" y="759.5858585858587"/>
      <point x="76.3050505050505" y="788.9040404040404"/>
      <point x="76.3050505050505" y="865.3272727272728" type="curve" smooth="yes"/>
      <point x="76.3050505050505" y="875.7121212121212"/>
      <point x="77.17070707070707" y="889.2747474747475"/>
      <point x="78.74747474747475" y="901.1040404040403" type="curve"/>
      <point x="55.967676767676764" y="903.5282828282828" type="line"/>
      <point x="53.67979797979798" y="888.7353535353535"/>
      <point x="52.67979797979798" y="872.0252525252525"/>
      <point x="52.67979797979798" y="857.5555555555557" type="curve" smooth="yes"/>
      <point x="52.67979797979798" y="765.769696969697"/>
      <point x="105.92424242424242" y="724.2666666666667"/>
      <point x="189.19393939393942" y="724.2666666666667" type="curve" smooth="yes"/>
      <point x="266.139393939394" y="724.2666666666667"/>
      <point x="321.0969696969697" y="742.3777777777779"/>
      <point x="391.8666666666667" y="742.3777777777779" type="curve" smooth="yes"/>
      <point x="461.0747474747475" y="742.3777777777779"/>
      <point x="496.72020202020195" y="692.8828282828283"/>
    </contour>
  </outline>
</glyph>
<glyph name="rVocalic-beng" format="2">
  <advance width="612.0343434343434"/>
  <unicode hex="098B"/>
  <anchor x="397.14343434343436" y="-10.242424242424242" name="bottom"/>
  <anchor x="399.21818181818185" y="54.24242424242424" name="bottom.rakaar"/>
  <anchor x="319.9232323232323" y="144.1868686868687" name="bottom.rvocalic"/>
  <anchor x="387.77474747474747" y="1.2727272727272734" name="bottom.virama"/>
  <anchor x="399.21818181818185" y="595.2121212121212" name="top"/>
  <anchor x="401.8515151515152" y="595.2121212121212" name="topright"/>
  <anchor x="306.0171717171717" y="0.0" name="vedic"/>
  <outline>
    <contour>
      <point x="396.2939393939394" y="-5.121212121212121" type="line"/>
      <point x="399.79595959595963" y="-4.121212121212121" type="line"/>
      <point x="399.79595959595963" y="639.2727272727273" type="line"/>
      <point x="374.45353535353536" y="659.0909090909091" type="line"/>
      <point x="370.74242424242425" y="658.0909090909091" type="line"/>
      <point x="370.74242424242425" y="485.3919191919192" type="line"/>
      <point x="379.0272727272727" y="501.55252525252524" type="line"/>
      <point x="269.75454545454545" y="463.5"/>
      <point x="161.3050505050505" y="403.66868686868685"/>
      <point x="57.41616161616162" y="325.1454545454545" type="curve"/>
      <point x="79.02121212121212" y="279.2929292929293" type="line"/>
      <point x="208.86060606060607" y="236.54545454545453"/>
      <point x="313.55252525252524" y="145.66464646464647"/>
      <point x="375.57272727272726" y="12.924242424242424" type="curve"/>
    </contour>
    <contour>
      <point x="370.74242424242425" y="47.38282828282828" type="line"/>
      <point x="379.5747474747475" y="51.900000000000006" type="line"/>
      <point x="323.14343434343436" y="178.74141414141414"/>
      <point x="211.97171717171716" y="266.9676767676768"/>
      <point x="93.19090909090909" y="314.2828282828283" type="curve"/>
      <point x="94.6919191919192" y="302.87676767676766" type="line"/>
      <point x="193.9818181818182" y="383.13535353535354"/>
      <point x="302.75151515151515" y="434.1818181818182"/>
      <point x="378.4131313131313" y="460.4767676767677" type="curve"/>
      <point x="370.74242424242425" y="472.0828282828283" type="line"/>
    </contour>
    <contour>
      <point x="86.10808080808081" y="470.33535353535353" type="curve" smooth="yes"/>
      <point x="155.1" y="470.33535353535353"/>
      <point x="231.48282828282828" y="512.9464646464646"/>
      <point x="267.62626262626264" y="588.4292929292928" type="curve"/>
      <point x="249.64141414141415" y="583.8181818181818" type="line"/>
      <point x="275.09292929292934" y="564.1212121212121"/>
      <point x="302.88383838383834" y="526.1676767676769"/>
      <point x="334.03737373737374" y="472.44242424242424" type="curve"/>
      <point x="356.4606060606061" y="474.45656565656566" type="line"/>
      <point x="320.5383838383839" y="551.1282828282829"/>
      <point x="282.13838383838385" y="597.6646464646465"/>
      <point x="249.67575757575756" y="624.0565656565657" type="curve"/>
      <point x="210.15151515151516" y="544.689898989899"/>
      <point x="144.67474747474748" y="506.779797979798"/>
      <point x="90.43131313131313" y="506.779797979798" type="curve" smooth="yes"/>
      <point x="83.68080808080809" y="506.779797979798"/>
      <point x="75.33030303030303" y="508.2040404040404"/>
      <point x="70.84949494949497" y="510.35959595959594" type="curve"/>
      <point x="83.83434343434344" y="492.6020202020202" type="line"/>
      <point x="95.43030303030304" y="504.16363636363633"/>
      <point x="99.4878787878788" y="514.0131313131312"/>
      <point x="99.4878787878788" y="530.2707070707071" type="curve" smooth="yes"/>
      <point x="99.4878787878788" y="554.2404040404041"/>
      <point x="85.04343434343434" y="571.939393939394"/>
      <point x="58.171717171717184" y="571.939393939394" type="curve" smooth="yes"/>
      <point x="31.915151515151514" y="571.939393939394"/>
      <point x="15.00606060606061" y="554.1828282828284"/>
      <point x="15.00606060606061" y="526.0929292929294" type="curve" smooth="yes"/>
      <point x="15.00606060606061" y="487.27272727272725"/>
      <point x="47.28080808080808" y="470.33535353535353"/>
    </contour>
    <contour>
      <point x="522.5636363636364" y="95.97272727272727" type="line"/>
      <point x="525.7969696969698" y="96.97272727272727" type="line"/>
      <point x="525.7969696969698" y="595.2121212121212" type="line"/>
      <point x="631.6888888888889" y="595.2121212121212" type="line"/>
      <point x="614.3565656565657" y="622.0" type="line"/>
      <point x="525.5636363636364" y="622.0" type="line"/>
      <point x="522.5626262626263" y="661.8484848484849" type="line"/>
      <point x="500.4545454545454" y="679.0909090909091" type="line"/>
      <point x="496.7434343434343" y="678.0909090909091" type="line"/>
      <point x="496.7434343434343" y="148.47676767676765" type="line"/>
      <point x="505.5757575757576" y="152.9939393939394" type="line"/>
      <point x="477.40505050505055" y="217.57676767676767"/>
      <point x="436.91212121212124" y="276.8636363636364"/>
      <point x="388.9585858585859" y="320.7121212121212" type="curve"/>
      <point x="383.71414141414147" y="284.00404040404044" type="line"/>
      <point x="431.37373737373736" y="241.11919191919193"/>
      <point x="471.12828282828286" y="180.76565656565657"/>
      <point x="501.57373737373734" y="114.01818181818182" type="curve"/>
    </contour>
  </outline>
</glyph>
<glyph name="lVocalic-beng" format="2">
  <advance width="449.8959595959596"/>
  <unicode hex="098C"/>
  <anchor x="313.6727272727273" y="595.2121212121212" name="top"/>
  <anchor x="224.51515151515153" y="0.0" name="vedic"/>
  <outline>
    <contour>
      <point x="268.2393939393939" y="45.57575757575758" type="line"/>
      <point x="337.67171717171715" y="64.42424242424242"/>
      <point x="415.84343434343435" y="140.67474747474748"/>
      <point x="415.84343434343435" y="268.7414141414141" type="curve" smooth="yes"/>
      <point x="415.84343434343435" y="393.16363636363633"/>
      <point x="352.0020202020202" y="432.8949494949495"/>
      <point x="247.13333333333333" y="462.22222222222223" type="curve" smooth="yes"/>
      <point x="165.1757575757576" y="485.140404040404"/>
      <point x="103.39191919191919" y="505.3484848484848"/>
      <point x="103.39191919191919" y="593.610101010101" type="curve" smooth="yes"/>
      <point x="103.39191919191919" y="631.7404040404041"/>
      <point x="114.06363636363638" y="659.3939393939394"/>
      <point x="124.56262626262627" y="684.6060606060606" type="curve"/>
      <point x="102.68484848484849" y="693.8787878787879" type="line"/>
      <point x="85.99595959595959" y="659.1080808080808"/>
      <point x="77.3959595959596" y="621.989898989899"/>
      <point x="77.3959595959596" y="587.9020202020203" type="curve" smooth="yes"/>
      <point x="77.3959595959596" y="481.2444444444444"/>
      <point x="140.03939393939393" y="454.41010101010096"/>
      <point x="236.7858585858586" y="428.0888888888889" type="curve" smooth="yes"/>
      <point x="330.859595959596" y="402.0171717171717"/>
      <point x="388.87070707070706" y="375.6393939393939"/>
      <point x="388.87070707070706" y="261.1363636363636" type="curve" smooth="yes"/>
      <point x="388.87070707070706" y="167.5"/>
      <point x="334.9636363636364" y="99.9"/>
      <point x="285.59595959595964" y="86.610101010101" type="curve"/>
      <point x="300.50808080808076" y="78.9090909090909" type="line"/>
      <point x="306.94444444444446" y="200.57575757575756"/>
      <point x="272.00808080808076" y="287.42424242424244"/>
      <point x="177.279797979798" y="287.42424242424244" type="curve" smooth="yes"/>
      <point x="105.81212121212121" y="287.42424242424244"/>
      <point x="69.08585858585857" y="231.5919191919192"/>
      <point x="69.08585858585857" y="171.789898989899" type="curve" smooth="yes"/>
      <point x="69.08585858585857" y="103.42828282828283"/>
      <point x="105.12222222222223" y="65.15151515151516"/>
      <point x="145.18080808080808" y="65.15151515151516" type="curve" smooth="yes"/>
      <point x="176.72222222222223" y="65.15151515151516"/>
      <point x="191.2414141414141" y="86.83434343434344"/>
      <point x="191.2414141414141" y="112.87878787878788" type="curve" smooth="yes"/>
      <point x="191.2414141414141" y="139.84848484848484"/>
      <point x="172.24141414141417" y="157.75757575757575"/>
      <point x="148.58383838383838" y="157.75757575757575" type="curve" smooth="yes"/>
      <point x="126.16060606060606" y="157.75757575757575"/>
      <point x="107.66060606060604" y="140.27272727272728"/>
      <point x="108.81313131313132" y="114.84646464646464" type="curve"/>
      <point x="126.4949494949495" y="114.40505050505051" type="line"/>
      <point x="112.57373737373737" y="120.9070707070707"/>
      <point x="97.19494949494951" y="137.54545454545456"/>
      <point x="97.19494949494951" y="175.6969696969697" type="curve" smooth="yes"/>
      <point x="97.19494949494951" y="234.1040404040404"/>
      <point x="138.28383838383837" y="256.5151515151515"/>
      <point x="174.7737373737374" y="256.5151515151515" type="curve" smooth="yes"/>
      <point x="246.07575757575756" y="256.5151515151515"/>
      <point x="268.75555555555553" y="185.34646464646465"/>
      <point x="268.75555555555553" y="102.93939393939394" type="curve" smooth="yes"/>
      <point x="268.75555555555553" y="79.79191919191919"/>
      <point x="266.83535353535353" y="63.57979797979798"/>
      <point x="264.54646464646464" y="48.78787878787878" type="curve"/>
    </contour>
  </outline>
</glyph>
<glyph name="e-beng" format="2">
  <advance width="576.8373737373737"/>
  <unicode hex="098F"/>
  <anchor x="498.31919191919195" y="-14.969696969696969" name="bottom"/>
  <anchor x="498.31919191919195" y="2.212121212121212" name="bottom.rvocalic"/>
  <anchor x="486.95353535353536" y="1.2727272727272734" name="bottom.virama"/>
  <anchor x="419.089898989899" y="595.2121212121212" name="top"/>
  <anchor x="421.8010101010101" y="595.2121212121212" name="topright"/>
  <anchor x="288.3515151515152" y="0.0" name="vedic"/>
  <outline>
    <contour>
      <point x="495.08383838383844" y="-8.272727272727273" type="line"/>
      <point x="498.5858585858586" y="-7.272727272727273" type="line"/>
      <point x="498.5858585858586" y="529.4979797979798" type="line" smooth="yes"/>
      <point x="498.5858585858586" y="595.8080808080808"/>
      <point x="473.4838383838384" y="630.9232323232324"/>
      <point x="416.69696969696975" y="630.9232323232324" type="curve" smooth="yes"/>
      <point x="318.39191919191916" y="630.9232323232324"/>
      <point x="216.3848484848485" y="494.42626262626266"/>
      <point x="216.3848484848485" y="381.1979797979798" type="curve" smooth="yes"/>
      <point x="216.3848484848485" y="317.0949494949495"/>
      <point x="250.75050505050507" y="293.85050505050503"/>
      <point x="283.8515151515151" y="293.42626262626266" type="curve" smooth="yes"/>
      <point x="323.0131313131313" y="293.0020202020202"/>
      <point x="344.2808080808081" y="318.78080808080813"/>
      <point x="344.2808080808081" y="352.57575757575756" type="curve" smooth="yes"/>
      <point x="344.2808080808081" y="387.06060606060606"/>
      <point x="323.66565656565655" y="409.8"/>
      <point x="291.8757575757575" y="409.8" type="curve" smooth="yes"/>
      <point x="271.76868686868687" y="409.8"/>
      <point x="252.77272727272728" y="399.5151515151515"/>
      <point x="246.02222222222224" y="378.3030303030303" type="curve"/>
      <point x="256.35555555555555" y="382.87070707070706" type="line"/>
      <point x="254.8" y="494.61616161616166"/>
      <point x="353.74242424242425" y="600.1151515151515"/>
      <point x="417.4666666666667" y="600.1151515151515" type="curve" smooth="yes"/>
      <point x="457.2141414141414" y="600.1151515151515"/>
      <point x="469.5323232323232" y="576.9373737373737"/>
      <point x="469.5323232323232" y="521.989898989899" type="curve" smooth="yes"/>
      <point x="469.5323232323232" y="173.1818181818182" type="line" smooth="yes"/>
      <point x="469.5323232323232" y="138.64848484848486"/>
      <point x="469.82222222222225" y="94.74949494949495"/>
      <point x="472.1121212121213" y="59.907070707070716" type="curve"/>
      <point x="440.97474747474746" y="122.35353535353535"/>
      <point x="399.07676767676764" y="135.35757575757575"/>
      <point x="355.7262626262626" y="135.35757575757575" type="curve" smooth="yes"/>
      <point x="301.3131313131313" y="135.35757575757575"/>
      <point x="264.0989898989899" y="119.31212121212121"/>
      <point x="196.6" y="119.31212121212121" type="curve" smooth="yes"/>
      <point x="119.08080808080808" y="119.31212121212121"/>
      <point x="76.82222222222224" y="162.8777777777778"/>
      <point x="76.82222222222224" y="256.5818181818182" type="curve" smooth="yes"/>
      <point x="76.82222222222224" y="295.240404040404"/>
      <point x="82.97474747474747" y="323.57373737373734"/>
      <point x="88.8969696969697" y="346.20707070707067" type="curve"/>
      <point x="64.82727272727271" y="352.4555555555555" type="line"/>
      <point x="57.03939393939394" y="324.6636363636364"/>
      <point x="51.32828282828282" y="286.4080808080808"/>
      <point x="51.32828282828282" y="246.33030303030304" type="curve" smooth="yes"/>
      <point x="51.32828282828282" y="119.68181818181817"/>
      <point x="116.26868686868687" y="80.14646464646465"/>
      <point x="196.03434343434344" y="80.14646464646465" type="curve" smooth="yes"/>
      <point x="268.82020202020203" y="80.14646464646465"/>
      <point x="301.3242424242424" y="97.04040404040403"/>
      <point x="363.00505050505046" y="97.04040404040403" type="curve" smooth="yes"/>
      <point x="408.0919191919192" y="97.04040404040403"/>
      <point x="443.34141414141413" y="81.52121212121212"/>
      <point x="475.3828282828283" y="9.82828282828283" type="curve"/>
    </contour>
  </outline>
</glyph>
<glyph name="ai-beng" format="2">
  <advance width="663.6727272727273"/>
  <unicode hex="0990"/>
  <anchor x="441.84747474747473" y="601.5757575757576" name="top"/>
  <anchor x="415.7686868686869" y="613.030303030303" name="topright"/>
  <anchor x="331.58686868686874" y="0.0" name="vedic"/>
  <anchor x="498.31919191919195" y="-14.969696969696969" name="bottom"/>
  <anchor x="498.31919191919195" y="2.212121212121212" name="bottom.rvocalic"/>
  <anchor x="486.95353535353536" y="1.2727272727272734" name="bottom.virama"/>
  <outline>
    <contour>
      <point x="494.89191919191916" y="349.9676767676768" type="line"/>
      <point x="553.579797979798" y="407.84646464646465"/>
      <point x="595.6121212121212" y="472.3151515151515"/>
      <point x="595.6121212121212" y="565.6010101010102" type="curve" smooth="yes"/>
      <point x="595.6121212121212" y="699.49898989899"/>
      <point x="506.129292929293" y="735.4373737373737"/>
      <point x="381.31111111111113" y="749.420202020202" type="curve" smooth="yes"/>
      <point x="283.0010101010101" y="760.2686868686868"/>
      <point x="200.250505050505" y="771.1919191919192"/>
      <point x="200.250505050505" y="870.5424242424242" type="curve" smooth="yes"/>
      <point x="200.250505050505" y="902.5818181818181"/>
      <point x="207.98282828282828" y="927.7434343434344"/>
      <point x="218.32525252525252" y="949.379797979798" type="curve"/>
      <point x="195.31616161616162" y="958.3636363636364" type="line"/>
      <point x="183.22121212121212" y="932.4929292929293"/>
      <point x="174.410101010101" y="901.8868686868688"/>
      <point x="174.410101010101" y="864.8020202020201" type="curve" smooth="yes"/>
      <point x="174.410101010101" y="746.960606060606"/>
      <point x="260.0171717171717" y="725.9737373737374"/>
      <point x="374.51616161616164" y="715.7010101010101" type="curve" smooth="yes"/>
      <point x="484.80202020202023" y="705.929292929293"/>
      <point x="569.3131313131313" y="677.6707070707071"/>
      <point x="569.3131313131313" y="564.8787878787879" type="curve" smooth="yes"/>
      <point x="569.3131313131313" y="485.9777777777778"/>
      <point x="538.0161616161615" y="433.1939393939394"/>
      <point x="485.67373737373737" y="381.68282828282827" type="curve"/>
    </contour>
    <component base="e-beng"/>
  </outline>
</glyph>
<glyph name="o-beng" format="2">
  <advance width="626.2151515151515"/>
  <unicode hex="0993"/>
  <anchor x="462.7111111111111" y="40.57575757575758" name="bottom"/>
  <anchor x="505.96666666666664" y="-19.909090909090907" name="bottom.rakaar"/>
  <anchor x="435.3646464646465" y="81.12121212121212" name="bottom.rvocalic"/>
  <anchor x="400.4808080808081" y="28.454545454545453" name="bottom.virama"/>
  <anchor x="397.40808080808085" y="595.2121212121212" name="top"/>
  <anchor x="396.1808080808081" y="595.2121212121212" name="topright"/>
  <anchor x="312.8959595959596" y="0.0" name="vedic"/>
  <outline>
    <contour>
      <point x="393.7070707070707" y="78.63636363636364" type="curve" smooth="yes"/>
      <point x="503.9858585858585" y="78.63636363636364"/>
      <point x="568.2686868686868" y="144.56464646464644"/>
      <point x="568.2686868686868" y="251.00202020202022" type="curve" smooth="yes"/>
      <point x="568.2686868686868" y="359.3070707070707"/>
      <point x="492.1272727272728" y="409.6969696969697"/>
      <point x="442.2131313131313" y="409.6969696969697" type="curve" smooth="yes"/>
      <point x="412.5626262626262" y="409.6969696969697"/>
      <point x="392.12121212121207" y="391.3656565656566"/>
      <point x="392.12121212121207" y="359.8969696969697" type="curve" smooth="yes"/>
      <point x="392.12121212121207" y="328.21818181818185"/>
      <point x="412.7151515151515" y="309.5939393939394"/>
      <point x="442.6575757575757" y="309.5939393939394" type="curve" smooth="yes"/>
      <point x="491.86666666666673" y="309.5939393939394"/>
      <point x="551.0989898989899" y="382.1505050505051"/>
      <point x="551.0989898989899" y="486.0" type="curve" smooth="yes"/>
      <point x="551.0989898989899" y="570.3494949494949"/>
      <point x="500.99595959595956" y="619.1818181818181"/>
      <point x="418.8212121212121" y="619.1818181818181" type="curve" smooth="yes"/>
      <point x="296.7" y="619.1818181818181"/>
      <point x="199.64848484848486" y="510.8787878787879"/>
      <point x="199.64848484848486" y="420.7878787878788" type="curve" smooth="yes"/>
      <point x="199.64848484848486" y="372.1989898989899"/>
      <point x="225.97575757575757" y="349.65353535353535"/>
      <point x="256.5929292929293" y="349.65353535353535" type="curve" smooth="yes"/>
      <point x="286.9767676767677" y="349.65353535353535"/>
      <point x="307.26666666666665" y="369.00404040404044"/>
      <point x="307.26666666666665" y="403.24646464646463" type="curve" smooth="yes"/>
      <point x="307.26666666666665" y="431.8272727272727"/>
      <point x="289.46060606060604" y="453.58080808080814"/>
      <point x="261.84949494949495" y="453.58080808080814" type="curve" smooth="yes"/>
      <point x="247.13939393939393" y="453.58080808080814"/>
      <point x="230.06565656565655" y="447.50404040404044"/>
      <point x="219.12929292929292" y="421.5151515151515" type="curve"/>
      <point x="238.71818181818182" y="413.45454545454544" type="line"/>
      <point x="244.2919191919192" y="527.7575757575758"/>
      <point x="342.6515151515151" y="590.9151515151515"/>
      <point x="423.7555555555556" y="590.9151515151515" type="curve" smooth="yes"/>
      <point x="488.35151515151523" y="590.9151515151515"/>
      <point x="521.7525252525253" y="551.8626262626262"/>
      <point x="521.7525252525253" y="491.969696969697" type="curve" smooth="yes"/>
      <point x="521.7525252525253" y="437.0535353535354"/>
      <point x="499.58484848484846" y="395.51919191919194"/>
      <point x="466.8191919191919" y="377.3939393939394" type="curve"/>
      <point x="475.0181818181818" y="360.9797979797979" type="line"/>
      <point x="506.949494949495" y="360.19191919191917"/>
      <point x="540.1595959595959" y="318.2767676767677"/>
      <point x="540.1595959595959" y="256.3747474747475" type="curve" smooth="yes"/>
      <point x="540.1595959595959" y="161.91616161616162"/>
      <point x="478.9848484848485" y="117.66868686868686"/>
      <point x="395.7646464646465" y="117.66868686868686" type="curve" smooth="yes"/>
      <point x="247.069696969697" y="117.66868686868686"/>
      <point x="129.51616161616164" y="247.43434343434345"/>
      <point x="58.19696969696969" y="523.7666666666667" type="curve"/>
      <point x="34.60808080808081" y="517.5151515151515" type="line"/>
      <point x="109.4020202020202" y="204.52525252525254"/>
      <point x="246.86262626262626" y="78.63636363636364"/>
    </contour>
  </outline>
</glyph>
<glyph name="au-beng" format="2">
  <advance width="682.040404040404"/>
  <unicode hex="0994"/>
  <anchor x="510.0" y="40.57575757575758" name="bottom"/>
  <anchor x="558.0" y="-19.909090909090907" name="bottom.rakaar"/>
  <anchor x="478.90909090909093" y="81.12121212121212" name="bottom.rvocalic"/>
  <anchor x="440.969696969697" y="28.454545454545453" name="bottom.virama"/>
  <anchor x="518.969696969697" y="601.5757575757576" name="top"/>
  <anchor x="472.42424242424244" y="613.030303030303" name="topright"/>
  <anchor x="341.020202020202" y="0.0" name="vedic"/>
  <outline>
    <contour>
      <point x="513.259595959596" y="349.9676767676768" type="line"/>
      <point x="571.9474747474748" y="407.84646464646465"/>
      <point x="613.979797979798" y="472.3151515151515"/>
      <point x="613.979797979798" y="564.2383838383838" type="curve" smooth="yes"/>
      <point x="613.979797979798" y="699.8454545454546"/>
      <point x="523.8252525252524" y="735.5717171717172"/>
      <point x="399.6787878787879" y="749.420202020202" type="curve" smooth="yes"/>
      <point x="301.36868686868684" y="760.2686868686868"/>
      <point x="218.61818181818182" y="771.1919191919192"/>
      <point x="218.61818181818182" y="870.5424242424242" type="curve" smooth="yes"/>
      <point x="218.61818181818182" y="902.5818181818181"/>
      <point x="226.35050505050506" y="927.7434343434344"/>
      <point x="236.69292929292928" y="949.379797979798" type="curve"/>
      <point x="213.6838383838384" y="958.3636363636364" type="line"/>
      <point x="201.5888888888889" y="932.4929292929293"/>
      <point x="192.77777777777777" y="901.8868686868688"/>
      <point x="192.77777777777777" y="864.8020202020201" type="curve" smooth="yes"/>
      <point x="192.77777777777777" y="746.960606060606"/>
      <point x="278.3848484848485" y="725.9737373737374"/>
      <point x="392.74949494949493" y="715.7010101010101" type="curve" smooth="yes"/>
      <point x="503.16969696969693" y="705.7949494949495"/>
      <point x="587.6808080808081" y="677.6707070707071"/>
      <point x="587.6808080808081" y="563.3818181818182" type="curve" smooth="yes"/>
      <point x="587.6808080808081" y="484.6343434343434"/>
      <point x="556.249494949495" y="432.1191919191919"/>
      <point x="503.9070707070707" y="380.6080808080808" type="curve"/>
    </contour>
    <component base="o-beng"/>
  </outline>
</glyph>
<glyph name="ka-beng" format="2">
  <advance width="644.9717171717172"/>
  <unicode hex="0995"/>
  <anchor x="376.25555555555553" y="15.030303030303031" name="bottom"/>
  <anchor x="383.4949494949494" y="30.60606060606061" name="bottom.rakaar"/>
  <anchor x="384.53939393939396" y="6.961616161616162" name="bottom.rvocalic"/>
  <anchor x="379.99696969696964" y="26.484848484848484" name="bottom.virama"/>
  <anchor x="189.87878787878788" y="87.42424242424242" name="nukta"/>
  <anchor x="392.4808080808081" y="595.2121212121212" name="top"/>
  <anchor x="385.8171717171717" y="595.2121212121212" name="topright"/>
  <anchor x="322.37979797979796" y="0.0" name="vedic"/>
  <outline>
    <contour>
      <point x="381.0373737373738" y="-5.121212121212121" type="line"/>
      <point x="384.53939393939396" y="-4.121212121212121" type="line"/>
      <point x="384.53939393939396" y="486.5565656565656" type="line"/>
      <point x="372.05858585858584" y="472.779797979798" type="line"/>
      <point x="375.1161616161616" y="474.4131313131313"/>
      <point x="380.01818181818186" y="475.4131313131313"/>
      <point x="385.36161616161615" y="475.4131313131313" type="curve" smooth="yes"/>
      <point x="478.55151515151516" y="475.4131313131313"/>
      <point x="573.4666666666666" y="399.33030303030296"/>
      <point x="573.4666666666666" y="296.5232323232323" type="curve" smooth="yes"/>
      <point x="573.4666666666666" y="277.3484848484848"/>
      <point x="569.9646464646464" y="266.8515151515151"/>
      <point x="562.0646464646464" y="257.2929292929293" type="curve"/>
      <point x="573.4515151515152" y="260.9777777777778" type="line"/>
      <point x="568.6444444444445" y="289.159595959596"/>
      <point x="551.1818181818181" y="304.56363636363636"/>
      <point x="527.0848484848485" y="304.56363636363636" type="curve" smooth="yes"/>
      <point x="496.81515151515146" y="304.56363636363636"/>
      <point x="479.6989898989899" y="283.25050505050507"/>
      <point x="479.6989898989899" y="254.2060606060606" type="curve" smooth="yes"/>
      <point x="479.6989898989899" y="223.14545454545453"/>
      <point x="500.6767676767677" y="200.9030303030303"/>
      <point x="532.4151515151515" y="200.9030303030303" type="curve" smooth="yes"/>
      <point x="567.1343434343434" y="200.9030303030303"/>
      <point x="599.2646464646464" y="227.92828282828285"/>
      <point x="599.2646464646464" y="296.32929292929293" type="curve" smooth="yes"/>
      <point x="599.2646464646464" y="416.65656565656565"/>
      <point x="493.45656565656566" y="507.1545454545455"/>
      <point x="375.9989898989899" y="515.4444444444445" type="curve"/>
      <point x="384.53939393939396" y="499.2909090909091" type="line"/>
      <point x="384.53939393939396" y="595.2121212121212" type="line"/>
      <point x="664.6262626262627" y="595.2121212121212" type="line"/>
      <point x="647.1393939393939" y="622.0" type="line"/>
      <point x="-19.654545454545456" y="622.0" type="line"/>
      <point x="-2.456565656565657" y="595.2121212121212" type="line"/>
      <point x="355.4858585858586" y="595.2121212121212" type="line"/>
      <point x="355.4858585858586" y="499.579797979798" type="line"/>
      <point x="363.7707070707071" y="515.8888888888889" type="line"/>
      <point x="253.28989898989897" y="477.03030303030306"/>
      <point x="146.5151515151515" y="411.59393939393937"/>
      <point x="42.15959595959596" y="331.67070707070707" type="curve"/>
      <point x="63.76464646464646" y="285.8181818181818" type="line"/>
      <point x="193.60404040404043" y="241.72727272727275"/>
      <point x="296.79898989898993" y="147.66060606060606"/>
      <point x="360.31616161616165" y="12.924242424242424" type="curve"/>
    </contour>
    <contour>
      <point x="355.4858585858586" y="47.38282828282828" type="line"/>
      <point x="364.3181818181818" y="51.900000000000006" type="line"/>
      <point x="307.88686868686864" y="178.74141414141414"/>
      <point x="196.7151515151515" y="274.12626262626264"/>
      <point x="77.93434343434343" y="320.80808080808083" type="curve"/>
      <point x="79.43535353535354" y="309.53636363636366" type="line"/>
      <point x="178.4242424242424" y="390.17878787878794"/>
      <point x="286.9181818181818" y="448.3777777777778"/>
      <point x="363.1565656565657" y="474.79191919191925" type="curve"/>
      <point x="355.4858585858586" y="487.03434343434344" type="line"/>
    </contour>
  </outline>
</glyph>
<glyph name="kha-beng" format="2">
  <advance width="521.8787878787879"/>
  <unicode hex="0996"/>
  <anchor x="427.279797979798" y="15.030303030303031" name="bottom"/>
  <anchor x="435.06363636363636" y="45.57575757575758" name="bottom.rakaar"/>
  <anchor x="435.6414141414141" y="7.272727272727273" name="bottom.rvocalic"/>
  <anchor x="425.720202020202" y="10.517171717171717" name="bottom.virama"/>
  <anchor x="434.7858585858586" y="576.6242424242424" name="top"/>
  <anchor x="433.5282828282829" y="562.3212121212122" name="topright"/>
  <anchor x="242.7838383838384" y="0.0" name="vedic"/>
  <outline>
    <contour>
      <point x="432.2171717171717" y="-5.121212121212121" type="line"/>
      <point x="435.6414141414141" y="-4.121212121212121" type="line"/>
      <point x="435.6414141414141" y="595.2121212121212" type="line"/>
      <point x="541.5333333333333" y="595.2121212121212" type="line"/>
      <point x="524.2010101010102" y="622.0" type="line"/>
      <point x="435.40808080808074" y="622.0" type="line"/>
      <point x="432.4070707070707" y="661.8484848484849" type="line"/>
      <point x="410.29898989898993" y="679.0909090909091" type="line"/>
      <point x="406.5878787878788" y="678.0909090909091" type="line"/>
      <point x="406.5878787878788" y="47.61616161616161" type="line"/>
      <point x="415.1868686868687" y="52.91111111111111" type="line"/>
      <point x="361.95959595959596" y="177.46868686868686"/>
      <point x="253.01515151515147" y="274.66868686868685"/>
      <point x="135.95252525252525" y="316.9040404040404" type="curve"/>
      <point x="142.18383838383838" y="302.69595959595955" type="line"/>
      <point x="261.4434343434344" y="322.830303030303"/>
      <point x="318.7262626262626" y="383.02727272727276"/>
      <point x="318.7262626262626" y="472.56666666666666" type="curve" smooth="yes"/>
      <point x="318.7262626262626" y="550.8282828282828"/>
      <point x="282.51515151515156" y="593.8020202020202"/>
      <point x="252.4141414141414" y="624.0565656565657" type="curve"/>
      <point x="213.35656565656566" y="546.1868686868687"/>
      <point x="150.56666666666666" y="505.589898989899"/>
      <point x="92.79191919191919" y="505.589898989899" type="curve" smooth="yes"/>
      <point x="84.9090909090909" y="505.589898989899"/>
      <point x="76.0979797979798" y="507.0141414141414"/>
      <point x="71.25252525252525" y="509.43838383838386" type="curve"/>
      <point x="85.33131313131314" y="491.75757575757575" type="line"/>
      <point x="97.42626262626263" y="503.8181818181818"/>
      <point x="101.4838383838384" y="513.6676767676768"/>
      <point x="101.4838383838384" y="530.4242424242424" type="curve" smooth="yes"/>
      <point x="101.4838383838384" y="554.8929292929292"/>
      <point x="86.54040404040406" y="573.0909090909091"/>
      <point x="59.16969696969697" y="573.0909090909091" type="curve" smooth="yes"/>
      <point x="32.41414141414141" y="573.0909090909091"/>
      <point x="15.00606060606061" y="554.8353535353535"/>
      <point x="15.00606060606061" y="526.2464646464647" type="curve" smooth="yes"/>
      <point x="15.00606060606061" y="486.330303030303"/>
      <point x="47.376767676767685" y="468.98989898989896"/>
      <point x="86.56868686868688" y="468.98989898989896" type="curve" smooth="yes"/>
      <point x="160.6848484848485" y="468.98989898989896"/>
      <point x="235.03131313131317" y="513.9444444444445"/>
      <point x="270.67575757575753" y="588.4292929292928" type="curve"/>
      <point x="250.72626262626267" y="582.640404040404" type="line"/>
      <point x="269.9515151515152" y="564.0040404040403"/>
      <point x="289.750505050505" y="532.5444444444444"/>
      <point x="289.750505050505" y="479.92121212121214" type="curve" smooth="yes"/>
      <point x="289.750505050505" y="384.69595959595955"/>
      <point x="199.38181818181818" y="343.61818181818177"/>
      <point x="97.01717171717172" y="334.5626262626263" type="curve"/>
      <point x="112.83636363636364" y="282.06060606060606" type="line"/>
      <point x="242.94646464646462" y="248.3050505050505"/>
      <point x="350.0636363636363" y="149.85757575757575"/>
      <point x="411.26262626262627" y="13.468686868686868" type="curve"/>
    </contour>
  </outline>
</glyph>
<glyph name="ga-beng" format="2">
  <advance width="520.4787878787878"/>
  <unicode hex="0997"/>
  <anchor x="419.169696969697" y="63.696969696969695" name="bottom"/>
  <anchor x="433.66363636363633" y="-14.03030303030303" name="bottom.rakaar"/>
  <anchor x="434.2414141414141" y="-1.290909090909091" name="bottom.rvocalic"/>
  <anchor x="425.5595959595959" y="5.212121212121212" name="bottom.virama"/>
  <anchor x="433.3858585858586" y="548.1818181818181" name="top"/>
  <anchor x="432.1282828282828" y="562.3212121212122" name="topright"/>
  <anchor x="259.9888888888888" y="0.0" name="vedic"/>
  <outline>
    <contour>
      <point x="431.16363636363633" y="-13.181818181818182" type="line"/>
      <point x="434.2414141414141" y="-12.181818181818182" type="line"/>
      <point x="434.2414141414141" y="595.2121212121212" type="line"/>
      <point x="540.1333333333333" y="595.2121212121212" type="line"/>
      <point x="522.80101010101" y="622.0" type="line"/>
      <point x="434.0080808080808" y="622.0" type="line"/>
      <point x="431.00707070707074" y="661.8484848484849" type="line"/>
      <point x="408.8989898989899" y="679.0909090909091" type="line"/>
      <point x="405.1878787878788" y="678.0909090909091" type="line"/>
      <point x="405.1878787878788" y="569.0353535353535" type="line" smooth="yes"/>
      <point x="405.1878787878788" y="521.5171717171717"/>
      <point x="406.37979797979796" y="467.0090909090909"/>
      <point x="409.24646464646463" y="421.02828282828284" type="curve"/>
      <point x="416.57373737373734" y="415.5656565656566" type="line"/>
      <point x="367.93636363636364" y="546.8686868686868"/>
      <point x="298.28080808080813" y="630.5757575757576"/>
      <point x="207.21717171717174" y="630.5757575757576" type="curve" smooth="yes"/>
      <point x="126.53131313131314" y="630.5757575757576"/>
      <point x="64.63636363636364" y="565.2565656565657"/>
      <point x="25.913131313131313" y="457.0939393939394" type="curve"/>
      <point x="61.800000000000004" y="429.5252525252526" type="line"/>
      <point x="94.9040404040404" y="456.23333333333335"/>
      <point x="128.32929292929293" y="473.9616161616162"/>
      <point x="169.71010101010103" y="473.9616161616162" type="curve" smooth="yes"/>
      <point x="213.9787878787879" y="473.9616161616162"/>
      <point x="234.3212121212121" y="442.31919191919195"/>
      <point x="234.3212121212121" y="406.2454545454545" type="curve" smooth="yes"/>
      <point x="234.3212121212121" y="352.91818181818184"/>
      <point x="201.45050505050503" y="305.87474747474744"/>
      <point x="132.23838383838384" y="265.57373737373734" type="curve"/>
      <point x="160.07777777777778" y="227.61818181818182" type="line"/>
      <point x="222.41111111111113" y="272.3181818181818"/>
      <point x="265.59090909090907" y="326.37373737373736"/>
      <point x="265.59090909090907" y="399.8888888888889" type="curve" smooth="yes"/>
      <point x="265.59090909090907" y="461.8757575757576"/>
      <point x="229.01616161616164" y="504.3222222222222"/>
      <point x="171.15454545454546" y="504.3222222222222" type="curve" smooth="yes"/>
      <point x="126.96666666666665" y="504.3222222222222"/>
      <point x="88.94646464646465" y="485.3515151515152"/>
      <point x="62.425252525252525" y="461.27777777777777" type="curve"/>
      <point x="71.61919191919193" y="455.04848484848486" type="line"/>
      <point x="105.05757575757576" y="554.209090909091"/>
      <point x="157.02323232323235" y="595.9545454545455"/>
      <point x="213.67272727272726" y="595.9545454545455" type="curve" smooth="yes"/>
      <point x="293.31717171717173" y="595.9545454545455"/>
      <point x="359.0656565656565" y="511.4010101010101"/>
      <point x="410.90000000000003" y="368.38282828282826" type="curve"/>
      <point x="405.1878787878788" y="411.3070707070707" type="line"/>
      <point x="405.1878787878788" y="3.0" type="line"/>
    </contour>
  </outline>
</glyph>
<glyph name="gha-beng" format="2">
  <advance width="472.79191919191913"/>
  <unicode hex="0998"/>
  <anchor x="378.2707070707071" y="15.030303030303031" name="bottom"/>
  <anchor x="385.51010101010104" y="45.57575757575758" name="bottom.rakaar"/>
  <anchor x="386.55454545454546" y="6.961616161616162" name="bottom.rvocalic"/>
  <anchor x="377.0222222222222" y="10.517171717171717" name="bottom.virama"/>
  <anchor x="387.510101010101" y="595.2121212121212" name="top"/>
  <anchor x="387.83232323232323" y="595.2121212121212" name="topright"/>
  <anchor x="236.14646464646464" y="0.0" name="vedic"/>
  <outline>
    <contour>
      <point x="383.05252525252524" y="-5.121212121212121" type="line"/>
      <point x="386.55454545454546" y="-4.121212121212121" type="line"/>
      <point x="386.55454545454546" y="595.2121212121212" type="line"/>
      <point x="492.4464646464646" y="595.2121212121212" type="line"/>
      <point x="475.24848484848485" y="622.0" type="line"/>
      <point x="-19.654545454545456" y="622.0" type="line"/>
      <point x="-2.456565656565657" y="595.2121212121212" type="line"/>
      <point x="357.5010101010101" y="595.2121212121212" type="line"/>
      <point x="357.5010101010101" y="47.38282828282828" type="line"/>
      <point x="366.33333333333337" y="51.900000000000006" type="line"/>
      <point x="311.6868686868687" y="179.16363636363636"/>
      <point x="206.3878787878788" y="259.83737373737375"/>
      <point x="79.94949494949495" y="306.67474747474745" type="curve"/>
      <point x="82.21717171717172" y="294.46868686868686" type="line"/>
      <point x="153.62828282828283" y="354.3989898989899"/>
      <point x="230.78585858585856" y="396.24242424242425"/>
      <point x="289.13232323232324" y="427.74545454545455" type="curve"/>
      <point x="271.1010101010101" y="460.75555555555553" type="line"/>
      <point x="242.65353535353537" y="440.0212121212121"/>
      <point x="208.67979797979797" y="424.8949494949495"/>
      <point x="177.36262626262626" y="424.8949494949495" type="curve" smooth="yes"/>
      <point x="132.24949494949496" y="424.8949494949495"/>
      <point x="85.92929292929293" y="453.13434343434346"/>
      <point x="85.92929292929293" y="509.21515151515143" type="curve" smooth="yes"/>
      <point x="85.92929292929293" y="571.589898989899"/>
      <point x="134.94141414141416" y="593.6363636363636"/>
      <point x="173.43939393939397" y="599.6969696969697" type="curve"/>
      <point x="136.15151515151516" y="618.5757575757576" type="line"/>
      <point x="91.57979797979797" y="607.4808080808081"/>
      <point x="48.557575757575755" y="576.2434343434343"/>
      <point x="48.557575757575755" y="510.2414141414141" type="curve" smooth="yes"/>
      <point x="48.557575757575755" y="444.1292929292929"/>
      <point x="103.64040404040404" y="398.8929292929293"/>
      <point x="178.34040404040402" y="397.94545454545454" type="curve"/>
      <point x="175.24747474747474" y="406.29292929292933" type="line"/>
      <point x="123.85353535353536" y="376.4161616161616"/>
      <point x="84.42121212121211" y="348.1474747474748"/>
      <point x="45.663636363636364" y="317.2262626262626" type="curve"/>
      <point x="65.77979797979796" y="271.68484848484854" type="line"/>
      <point x="195.0818181818182" y="232.63939393939393"/>
      <point x="299.9464646464646" y="150.65454545454546"/>
      <point x="362.3313131313131" y="12.924242424242424" type="curve"/>
    </contour>
  </outline>
</glyph>
<glyph name="nga-beng" format="2">
  <advance width="539.9838383838385"/>
  <unicode hex="0999"/>
  <anchor x="358.250505050505" y="31.87878787878788" name="bottom"/>
  <anchor x="440.07575757575756" y="-48.36363636363636" name="bottom.rakaar"/>
  <anchor x="367.330303030303" y="47.57575757575758" name="bottom.rvocalic"/>
  <anchor x="335.8787878787878" y="0.0" name="bottom.virama"/>
  <anchor x="279.9383838383838" y="595.2121212121212" name="top"/>
  <anchor x="277.2414141414141" y="595.2121212121212" name="topright"/>
  <anchor x="269.6363636363637" y="0.0" name="vedic"/>
  <outline>
    <contour>
      <point x="325.04040404040404" y="50.18181818181818" type="curve" smooth="yes"/>
      <point x="441.5323232323232" y="50.18181818181818"/>
      <point x="501.5444444444445" y="131.18080808080808"/>
      <point x="501.5444444444445" y="250.54040404040404" type="curve" smooth="yes"/>
      <point x="501.5444444444445" y="328.6939393939394"/>
      <point x="476.410101010101" y="382.6111111111111"/>
      <point x="446.8121212121212" y="417.0656565656566" type="curve"/>
      <point x="403.8636363636364" y="351.90101010101006"/>
      <point x="341.3909090909091" y="288.7555555555556"/>
      <point x="285.14747474747475" y="288.7555555555556" type="curve" smooth="yes"/>
      <point x="259.29595959595963" y="288.7555555555556"/>
      <point x="245.14949494949494" y="304.1929292929293"/>
      <point x="245.14949494949494" y="330.859595959596" type="curve" smooth="yes"/>
      <point x="245.14949494949494" y="489.97878787878784" type="line" smooth="yes"/>
      <point x="245.14949494949494" y="568.1272727272727"/>
      <point x="276.4888888888889" y="603.8464646464646"/>
      <point x="320.3717171717172" y="603.8464646464646" type="curve" smooth="yes"/>
      <point x="357.1939393939394" y="603.8464646464646"/>
      <point x="383.5414141414141" y="578.7555555555556"/>
      <point x="383.5414141414141" y="530.3474747474747" type="curve" smooth="yes"/>
      <point x="383.5414141414141" y="484.2262626262626"/>
      <point x="363.05454545454546" y="446.06060606060606"/>
      <point x="299.1888888888889" y="446.06060606060606" type="curve" smooth="yes"/>
      <point x="213.83838383838383" y="446.06060606060606"/>
      <point x="163.07070707070707" y="506.0454545454545"/>
      <point x="123.18080808080809" y="620.9787878787879" type="curve"/>
      <point x="101.24848484848485" y="611.4545454545455" type="line"/>
      <point x="129.2707070707071" y="526.2303030303029"/>
      <point x="182.3959595959596" y="414.6363636363636"/>
      <point x="298.57575757575756" y="414.6363636363636" type="curve" smooth="yes"/>
      <point x="385.31111111111113" y="414.6363636363636"/>
      <point x="411.9585858585858" y="474.2111111111111"/>
      <point x="412.09292929292934" y="525.6505050505051" type="curve" smooth="yes"/>
      <point x="412.22727272727275" y="585.7858585858586"/>
      <point x="380.35252525252525" y="632.7878787878788"/>
      <point x="319.6010101010101" y="632.7878787878788" type="curve" smooth="yes"/>
      <point x="253.2585858585859" y="632.7878787878788"/>
      <point x="215.82727272727274" y="579.1010101010102"/>
      <point x="215.82727272727274" y="497.9737373737374" type="curve" smooth="yes"/>
      <point x="215.82727272727274" y="328.7848484848485" type="line" smooth="yes"/>
      <point x="215.82727272727274" y="299.5141414141414"/>
      <point x="226.46161616161615" y="280.97070707070714"/>
      <point x="241.4575757575757" y="268.73838383838387" type="curve" smooth="yes"/>
      <point x="254.86161616161615" y="257.96363636363634"/>
      <point x="272.43838383838386" y="252.84444444444446"/>
      <point x="291.7070707070707" y="252.84444444444446" type="curve" smooth="yes"/>
      <point x="349.189898989899" y="252.84444444444446"/>
      <point x="408.8838383838384" y="303.95454545454544"/>
      <point x="459.1888888888889" y="372.1242424242424" type="curve"/>
      <point x="440.3010101010101" y="376.7979797979798" type="line"/>
      <point x="457.1787878787879" y="354.3757575757575"/>
      <point x="473.7252525252526" y="316.610101010101"/>
      <point x="473.7252525252526" y="257.74545454545455" type="curve" smooth="yes"/>
      <point x="473.7252525252526" y="146.1919191919192"/>
      <point x="416.0888888888889" y="89.36868686868686"/>
      <point x="325.72727272727275" y="89.36868686868686" type="curve" smooth="yes"/>
      <point x="173.0191919191919" y="89.36868686868686"/>
      <point x="102.61717171717173" y="244.73333333333332"/>
      <point x="48.11111111111111" y="497.2262626262626" type="curve"/>
      <point x="24.39090909090909" y="491.41919191919186" type="line"/>
      <point x="83.9070707070707" y="187.06363636363636"/>
      <point x="172.76464646464646" y="50.18181818181818"/>
    </contour>
  </outline>
</glyph>
<glyph name="ca-beng" format="2">
  <advance width="437.27373737373733"/>
  <unicode hex="099A"/>
  <anchor x="269.85252525252525" y="43.39393939393939" name="bottom"/>
  <anchor x="322.71919191919187" y="0.0" name="bottom.rakaar"/>
  <anchor x="257.04545454545456" y="49.63636363636364" name="bottom.rvocalic"/>
  <anchor x="215.42929292929293" y="35.21212121212121" name="bottom.virama"/>
  <anchor x="114.51313131313131" y="595.2121212121212" name="top"/>
  <anchor x="117.06868686868687" y="595.2121212121212" name="topright"/>
  <anchor x="218.59797979797978" y="0.0" name="vedic"/>
  <outline>
    <contour>
      <point x="180.5888888888889" y="45.96969696969697" type="curve" smooth="yes"/>
      <point x="293.73535353535357" y="45.96969696969697"/>
      <point x="381.0373737373737" y="215.52020202020202"/>
      <point x="380.0393939393939" y="347.5010101010101" type="curve" smooth="yes"/>
      <point x="380.0393939393939" y="371.24444444444447"/>
      <point x="361.4545454545455" y="387.63838383838385"/>
      <point x="352.35252525252525" y="393.04646464646464" type="curve"/>
      <point x="249.1757575757576" y="402.9131313131313"/>
      <point x="161.4818181818182" y="467.33030303030307"/>
      <point x="109.65656565656565" y="573.2686868686868" type="curve"/>
      <point x="105.56363636363638" y="540.7959595959595" type="line"/>
      <point x="147.6949494949495" y="435.5272727272727"/>
      <point x="244.75252525252523" y="366.75555555555553"/>
      <point x="356.7888888888889" y="355.27171717171717" type="curve"/>
      <point x="344.5353535353535" y="368.5838383838383" type="line"/>
      <point x="346.8545454545454" y="222.68080808080808"/>
      <point x="261.36161616161615" y="78.9909090909091"/>
      <point x="177.71313131313133" y="78.9909090909091" type="curve" smooth="yes"/>
      <point x="140.21919191919193" y="78.9909090909091"/>
      <point x="115.2909090909091" y="105.1131313131313"/>
      <point x="115.2909090909091" y="144.24444444444444" type="curve" smooth="yes"/>
      <point x="115.2909090909091" y="595.2121212121212" type="line"/>
      <point x="456.9282828282828" y="595.2121212121212" type="line"/>
      <point x="439.4414141414141" y="622.0" type="line"/>
      <point x="-19.654545454545456" y="622.0" type="line"/>
      <point x="-1.8212121212121197" y="595.2121212121212" type="line"/>
      <point x="86.23737373737374" y="595.2121212121212" type="line"/>
      <point x="86.23737373737374" y="143.45656565656566" type="line" smooth="yes"/>
      <point x="86.23737373737374" y="84.94848484848485"/>
      <point x="125.69595959595961" y="45.96969696969697"/>
    </contour>
  </outline>
</glyph>
<glyph name="cha-beng" format="2">
  <advance width="467.25757575757575"/>
  <unicode hex="099B"/>
  <anchor x="265.3838383838384" y="96.0969696969697" name="bottom"/>
  <anchor x="379.2474747474747" y="-99.57575757575758" name="bottom.rakaar"/>
  <anchor x="314.53636363636366" y="91.05050505050504" name="bottom.rvocalic"/>
  <anchor x="249.91919191919192" y="81.72727272727272" name="bottom.virama"/>
  <anchor x="100.55050505050505" y="595.2121212121212" name="top"/>
  <anchor x="103.10606060606061" y="595.2121212121212" name="topright"/>
  <anchor x="233.3121212121212" y="0.0" name="vedic"/>
  <outline>
    <contour>
      <point x="441.95353535353536" y="-44.26464646464646" type="curve"/>
      <point x="458.30505050505053" y="-27.022222222222222" type="line"/>
      <point x="397.14141414141415" y="46.2989898989899"/>
      <point x="291.6242424242424" y="151.38787878787878"/>
      <point x="151.71212121212122" y="196.93030303030307" type="curve"/>
      <point x="150.63939393939395" y="185.05858585858587" type="line"/>
      <point x="173.76565656565657" y="180.24848484848485"/>
      <point x="194.62121212121215" y="178.25050505050507"/>
      <point x="216.74949494949496" y="178.25050505050507" type="curve" smooth="yes"/>
      <point x="324.66464646464647" y="178.25050505050507"/>
      <point x="400.17676767676767" y="240.5121212121212"/>
      <point x="400.17676767676767" y="349.630303030303" type="curve" smooth="yes"/>
      <point x="400.17676767676767" y="450.11414141414144"/>
      <point x="338.6494949494949" y="505.0090909090909"/>
      <point x="249.21515151515155" y="505.0090909090909" type="curve" smooth="yes"/>
      <point x="181.06767676767677" y="505.0090909090909"/>
      <point x="124.92020202020201" y="530.6969696969697"/>
      <point x="96.7939393939394" y="595.2121212121212" type="curve"/>
      <point x="92.00808080808082" y="573.2727272727273" type="line"/>
      <point x="116.42424242424242" y="508.969696969697"/>
      <point x="167.67676767676767" y="474.38989898989894"/>
      <point x="252.96666666666664" y="471.8343434343434" type="curve"/>
      <point x="240.92525252525255" y="487.57575757575756" type="line"/>
      <point x="241.6151515151515" y="389.6363636363636"/>
      <point x="196.54545454545456" y="312.7060606060606"/>
      <point x="144.36565656565656" y="312.7060606060606" type="curve" smooth="yes"/>
      <point x="116.61212121212121" y="312.7060606060606"/>
      <point x="101.63939393939394" y="329.95151515151514"/>
      <point x="101.63939393939394" y="363.5131313131313" type="curve" smooth="yes"/>
      <point x="101.63939393939394" y="595.2121212121212" type="line"/>
      <point x="486.91212121212124" y="595.2121212121212" type="line"/>
      <point x="469.6363636363636" y="622.0" type="line"/>
      <point x="-19.654545454545456" y="622.0" type="line"/>
      <point x="-2.456565656565657" y="595.2121212121212" type="line"/>
      <point x="72.58585858585859" y="595.2121212121212" type="line"/>
      <point x="72.58585858585859" y="362.8030303030303" type="line" smooth="yes"/>
      <point x="72.58585858585859" y="311.059595959596"/>
      <point x="104.48686868686869" y="279.45454545454544"/>
      <point x="148.41010101010102" y="279.45454545454544" type="curve" smooth="yes"/>
      <point x="215.75454545454545" y="279.45454545454544"/>
      <point x="275.4232323232323" y="362.7050505050505"/>
      <point x="279.0070707070707" y="489.06060606060606" type="curve"/>
      <point x="264.1141414141414" y="475.45454545454544" type="line"/>
      <point x="321.23636363636365" y="471.4373737373737"/>
      <point x="370.830303030303" y="441.020202020202"/>
      <point x="370.830303030303" y="357.03737373737374" type="curve" smooth="yes"/>
      <point x="370.830303030303" y="257.76767676767673"/>
      <point x="302.4646464646465" y="213.5252525252525"/>
      <point x="210.8262626262626" y="213.5252525252525" type="curve" smooth="yes"/>
      <point x="157.73535353535354" y="213.5252525252525"/>
      <point x="123.35353535353536" y="222.41111111111113"/>
      <point x="90.6989898989899" y="237.8919191919192" type="curve"/>
      <point x="107.17979797979798" y="175.57979797979797" type="line"/>
      <point x="242.9919191919192" y="143.77474747474747"/>
      <point x="360.669696969697" y="51.42323232323232"/>
    </contour>
  </outline>
</glyph>
<glyph name="ja-beng" format="2">
  <advance width="690.8070707070707"/>
  <unicode hex="099C"/>
  <anchor x="586.5212121212121" y="91.4121212121212" name="bottom"/>
  <anchor x="602.9929292929293" y="83.73535353535352" name="bottom.rakaar"/>
  <anchor x="602.590909090909" y="25.37171717171717" name="bottom.rvocalic"/>
  <anchor x="594.7979797979798" y="13.735353535353536" name="bottom.virama"/>
  <anchor x="375.1575757575758" y="595.2121212121212" name="top"/>
  <anchor x="378.0020202020203" y="595.2121212121212" name="topright"/>
  <anchor x="345.33636363636367" y="0.0" name="vedic"/>
  <outline>
    <contour>
      <point x="307.9979797979798" y="75.12121212121212" type="curve" smooth="yes"/>
      <point x="412.3969696969697" y="75.12121212121212"/>
      <point x="463.7474747474747" y="148.069696969697"/>
      <point x="463.7474747474747" y="249.45959595959596" type="curve" smooth="yes"/>
      <point x="463.7474747474747" y="310.64141414141415"/>
      <point x="449.41212121212124" y="365.3939393939394"/>
      <point x="403.8676767676768" y="415.9878787878788" type="curve"/>
      <point x="361.72828282828283" y="343.44141414141416"/>
      <point x="323.7" y="316.9909090909091"/>
      <point x="282.9191919191919" y="316.9909090909091" type="curve" smooth="yes"/>
      <point x="243.06868686868688" y="316.9909090909091"/>
      <point x="213.96767676767678" y="347.0242424242424"/>
      <point x="213.96767676767678" y="400.4181818181818" type="curve" smooth="yes"/>
      <point x="213.96767676767678" y="499.1454545454545"/>
      <point x="313.4626262626263" y="571.5050505050505"/>
      <point x="383.90202020202025" y="595.2121212121212" type="curve"/>
      <point x="710.4616161616161" y="595.2121212121212" type="line"/>
      <point x="693.7626262626263" y="622.0" type="line"/>
      <point x="-19.654545454545456" y="622.0" type="line"/>
      <point x="-2.456565656565657" y="595.2121212121212" type="line"/>
      <point x="350.1020202020202" y="595.2121212121212" type="line"/>
      <point x="336.1131313131313" y="607.0565656565657" type="line"/>
      <point x="267.9464646464646" y="579.8585858585858"/>
      <point x="182.85353535353536" y="506.82222222222225"/>
      <point x="182.85353535353536" y="405.059595959596" type="curve" smooth="yes"/>
      <point x="182.85353535353536" y="326.2606060606061"/>
      <point x="231.84646464646463" y="281.250505050505"/>
      <point x="288.3060606060606" y="281.250505050505" type="curve" smooth="yes"/>
      <point x="350.3040404040404" y="281.250505050505"/>
      <point x="393.02727272727276" y="331.9292929292929"/>
      <point x="422.5141414141414" y="379.1515151515151" type="curve"/>
      <point x="400.42929292929296" y="377.60202020202024" type="line"/>
      <point x="423.7020202020202" y="344.5737373737374"/>
      <point x="436.6212121212121" y="314.1333333333334"/>
      <point x="436.6212121212121" y="258.0929292929293" type="curve" smooth="yes"/>
      <point x="436.6212121212121" y="165.1848484848485"/>
      <point x="388.7353535353535" y="113.55959595959595"/>
      <point x="307.55151515151516" y="113.55959595959595" type="curve" smooth="yes"/>
      <point x="174.0919191919192" y="113.55959595959595"/>
      <point x="98.8030303030303" y="257.7828282828283"/>
      <point x="56.93333333333333" y="497.2585858585859" type="curve"/>
      <point x="33.55656565656565" y="491.8181818181818" type="line"/>
      <point x="81.67272727272727" y="196.5848484848485"/>
      <point x="174.95757575757577" y="75.12121212121212"/>
    </contour>
    <contour>
      <point x="580.7131313131313" y="12.808080808080808" type="curve"/>
      <point x="602.590909090909" y="21.674747474747473" type="line"/>
      <point x="583.4050505050504" y="86.39898989898988"/>
      <point x="568.8141414141414" y="146.74343434343433"/>
      <point x="568.8141414141414" y="228.51212121212123" type="curve" smooth="yes"/>
      <point x="568.8141414141414" y="325.3535353535354"/>
      <point x="590.3858585858586" y="389.11717171717174"/>
      <point x="628.3363636363636" y="442.4848484848485" type="curve"/>
      <point x="607.2080808080808" y="477.3939393939394" type="line"/>
      <point x="510.38888888888897" y="481.3939393939394"/>
      <point x="450.7111111111111" y="514.5434343434343"/>
      <point x="396.12020202020204" y="611.7212121212121" type="curve"/>
      <point x="373.67070707070707" y="598.2424242424242" type="line"/>
      <point x="429.91818181818184" y="490.4707070707071"/>
      <point x="506.86666666666673" y="447.14343434343436"/>
      <point x="595.6191919191918" y="441.09898989898994" type="curve"/>
      <point x="590.3676767676767" y="454.9343434343434" type="line"/>
      <point x="560.9818181818182" y="410.14343434343436"/>
      <point x="538.8373737373737" y="337.43333333333334"/>
      <point x="538.8373737373737" y="244.19696969696972" type="curve" smooth="yes"/>
      <point x="538.8373737373737" y="159.25454545454545"/>
      <point x="555.1232323232323" y="87.78686868686869"/>
    </contour>
  </outline>
</glyph>
<glyph name="jha-beng" format="2">
  <advance width="596.7777777777778"/>
  <unicode hex="099D"/>
  <anchor x="376.25555555555553" y="15.030303030303031" name="bottom"/>
  <anchor x="383.4949494949494" y="45.57575757575758" name="bottom.rakaar"/>
  <anchor x="384.53939393939396" y="6.961616161616162" name="bottom.rvocalic"/>
  <anchor x="375.0070707070707" y="10.517171717171717" name="bottom.virama"/>
  <anchor x="382.8080808080808" y="595.2121212121212" name="top"/>
  <anchor x="432.6888888888889" y="595.2121212121212" name="topleft"/>
  <anchor x="383.13030303030297" y="595.2121212121212" name="topright"/>
  <anchor x="297.9949494949495" y="0.0" name="vedic"/>
  <outline>
    <contour>
      <point x="381.0373737373738" y="-5.121212121212121" type="line"/>
      <point x="384.53939393939396" y="-4.121212121212121" type="line"/>
      <point x="384.53939393939396" y="622.0" type="line"/>
      <point x="-19.654545454545456" y="622.0" type="line"/>
      <point x="-2.456565656565657" y="595.2121212121212" type="line"/>
      <point x="355.4858585858586" y="595.2121212121212" type="line"/>
      <point x="355.4858585858586" y="500.11717171717174" type="line"/>
      <point x="363.7707070707071" y="515.8888888888889" type="line"/>
      <point x="253.00101010101008" y="477.03030303030306"/>
      <point x="146.5151515151515" y="411.59393939393937"/>
      <point x="42.15959595959596" y="331.67070707070707" type="curve"/>
      <point x="63.76464646464646" y="285.8181818181818" type="line"/>
      <point x="193.60404040404043" y="241.72727272727275"/>
      <point x="296.79898989898993" y="147.66060606060606"/>
      <point x="360.31616161616165" y="12.924242424242424" type="curve"/>
    </contour>
    <contour>
      <point x="355.4858585858586" y="47.38282828282828" type="line"/>
      <point x="364.3181818181818" y="51.900000000000006" type="line"/>
      <point x="307.88686868686864" y="178.74141414141414"/>
      <point x="196.7151515151515" y="274.12626262626264"/>
      <point x="77.93434343434343" y="320.80808080808083" type="curve"/>
      <point x="79.43535353535354" y="309.4020202020202" type="line"/>
      <point x="178.9232323232323" y="390.25454545454545"/>
      <point x="286.9181818181818" y="448.24343434343433"/>
      <point x="363.1565656565657" y="474.6575757575758" type="curve"/>
      <point x="355.4858585858586" y="486.49696969696964" type="line"/>
    </contour>
    <contour>
      <point x="507.3070707070707" y="95.97272727272727" type="line"/>
      <point x="510.540404040404" y="96.97272727272727" type="line"/>
      <point x="510.540404040404" y="595.2121212121212" type="line"/>
      <point x="616.4323232323233" y="595.2121212121212" type="line"/>
      <point x="599.0999999999999" y="622.0" type="line"/>
      <point x="510.3070707070707" y="622.0" type="line"/>
      <point x="507.30606060606067" y="661.8484848484849" type="line"/>
      <point x="485.1979797979798" y="679.0909090909091" type="line"/>
      <point x="481.4868686868687" y="678.0909090909091" type="line"/>
      <point x="481.4868686868687" y="148.47676767676765" type="line"/>
      <point x="490.3191919191919" y="152.9939393939394" type="line"/>
      <point x="462.1484848484849" y="217.57676767676767"/>
      <point x="421.6555555555556" y="276.8636363636364"/>
      <point x="373.70202020202015" y="320.7121212121212" type="curve"/>
      <point x="368.4575757575757" y="284.00404040404044" type="line"/>
      <point x="416.1171717171717" y="241.11919191919193"/>
      <point x="455.8717171717172" y="180.76565656565657"/>
      <point x="486.3171717171718" y="114.01818181818182" type="curve"/>
    </contour>
  </outline>
</glyph>
<glyph name="nya-beng" format="2">
  <advance width="806.6545454545454"/>
  <unicode hex="099E"/>
  <anchor x="490.3020202020202" y="11.878787878787879" name="bottom"/>
  <anchor x="521.8575757575758" y="42.42424242424243" name="bottom.rakaar"/>
  <anchor x="498.5858585858586" y="3.2727272727272734" name="bottom.rvocalic"/>
  <anchor x="489.0535353535354" y="7.365656565656565" name="bottom.virama"/>
  <anchor x="436.6646464646465" y="595.2121212121212" name="top"/>
  <anchor x="441.8979797979798" y="595.2121212121212" name="topright"/>
  <anchor x="403.0777777777778" y="0.0" name="vedic"/>
  <outline>
    <contour>
      <point x="643.509090909091" y="85.54949494949494" type="curve" smooth="yes"/>
      <point x="709.6656565656566" y="85.54949494949494"/>
      <point x="744.3666666666667" y="139.44444444444446"/>
      <point x="744.3666666666667" y="215.12525252525253" type="curve" smooth="yes"/>
      <point x="744.3666666666667" y="277.5767676767677"/>
      <point x="715.8868686868688" y="321.64040404040406"/>
      <point x="687.9262626262627" y="346.2464646464647" type="curve"/>
      <point x="691.4888888888889" y="328.8828282828283" type="line"/>
      <point x="716.979797979798" y="357.5969696969697"/>
      <point x="740.8131313131314" y="406.3707070707071"/>
      <point x="740.8131313131314" y="473.61010101010106" type="curve" smooth="yes"/>
      <point x="740.8131313131314" y="539.1989898989899"/>
      <point x="710.3727272727273" y="596.0343434343434"/>
      <point x="650.7737373737374" y="596.0343434343434" type="curve" smooth="yes"/>
      <point x="560.6686868686869" y="596.0343434343434"/>
      <point x="494.5383838383838" y="449.51919191919194"/>
      <point x="487.27171717171717" y="379.03434343434344" type="curve"/>
      <point x="487.27171717171717" y="299.8828282828283" type="line"/>
      <point x="501.0171717171717" y="188.24646464646466"/>
      <point x="563.9979797979798" y="85.54949494949494"/>
    </contour>
    <contour>
      <point x="642.3515151515152" y="123.21616161616161" type="curve" smooth="yes"/>
      <point x="564.8717171717171" y="123.21616161616161"/>
      <point x="503.72222222222223" y="244.67171717171718"/>
      <point x="503.72222222222223" y="333.85252525252525" type="curve" smooth="yes"/>
      <point x="503.72222222222223" y="409.4727272727273"/>
      <point x="565.0272727272728" y="559.2161616161616"/>
      <point x="651.2121212121212" y="559.2161616161616" type="curve" smooth="yes"/>
      <point x="691.1161616161617" y="559.2161616161616"/>
      <point x="714.010101010101" y="524.4585858585858"/>
      <point x="714.010101010101" y="478.9434343434344" type="curve" smooth="yes"/>
      <point x="714.010101010101" y="421.4313131313132"/>
      <point x="691.5161616161616" y="376.2464646464647"/>
      <point x="656.6454545454545" y="352.9434343434344" type="curve"/>
      <point x="680.4232323232324" y="351.3979797979798" type="line"/>
      <point x="661.3363636363637" y="373.9434343434344"/>
      <point x="642.7222222222223" y="380.3676767676768"/>
      <point x="624.5717171717172" y="380.3676767676768" type="curve" smooth="yes"/>
      <point x="598.7444444444444" y="380.3676767676768"/>
      <point x="579.2464646464647" y="363.95656565656566"/>
      <point x="579.2464646464647" y="335.0646464646465" type="curve" smooth="yes"/>
      <point x="579.2464646464647" y="304.4585858585859"/>
      <point x="598.7474747474747" y="289.9131313131313"/>
      <point x="626.1303030303031" y="289.9131313131313" type="curve" smooth="yes"/>
      <point x="650.0131313131315" y="289.9131313131313"/>
      <point x="668.8757575757577" y="301.1090909090909"/>
      <point x="686.5444444444445" y="323.0949494949495" type="curve"/>
      <point x="665.4636363636364" y="331.3676767676768" type="line"/>
      <point x="691.0454545454545" y="311.2161616161616"/>
      <point x="718.2989898989899" y="280.29292929292933"/>
      <point x="718.2989898989899" y="220.0949494949495" type="curve" smooth="yes"/>
      <point x="718.2989898989899" y="156.42828282828282"/>
      <point x="689.2363636363636" y="123.21616161616161"/>
    </contour>
    <component base="e-beng"/>
  </outline>
</glyph>
<glyph name="tta-beng" format="2">
  <advance width="440.25959595959597"/>
  <unicode hex="099F"/>
  <anchor x="270.6303030303031" y="54.92323232323232" name="bottom"/>
  <anchor x="323.49696969696964" y="11.7020202020202" name="bottom.rakaar"/>
  <anchor x="258.22626262626267" y="62.54747474747475" name="bottom.rvocalic"/>
  <anchor x="216.20707070707073" y="46.91414141414141" name="bottom.virama"/>
  <anchor x="230.8040404040404" y="641.7030303030302" name="top"/>
  <anchor x="187.16363636363636" y="652.629292929293" name="topright"/>
  <anchor x="220.06262626262628" y="0.0" name="vedic"/>
  <anchor x="188.83535353535353" y="-40.484848484848484" name="nukta"/>
  <outline>
    <contour>
      <point x="339.1818181818182" y="616.7272727272727" type="curve"/>
      <point x="363.17373737373737" y="616.7272727272727" type="line"/>
      <point x="358.90404040404036" y="726.0888888888888"/>
      <point x="325.3727272727273" y="775.880808080808"/>
      <point x="254.76060606060608" y="775.880808080808" type="curve" smooth="yes"/>
      <point x="209.37070707070708" y="775.880808080808"/>
      <point x="173.98989898989902" y="764.0181818181818"/>
      <point x="124.4111111111111" y="764.0181818181818" type="curve" smooth="yes"/>
      <point x="64.10606060606061" y="764.0181818181818"/>
      <point x="39.10808080808081" y="789.5111111111112"/>
      <point x="39.10808080808081" y="864.59898989899" type="curve" smooth="yes"/>
      <point x="39.10808080808081" y="875.9666666666667"/>
      <point x="40.10808080808081" y="889.7979797979798"/>
      <point x="41.68484848484849" y="901.1040404040403" type="curve"/>
      <point x="19.194949494949498" y="903.5282828282828" type="line"/>
      <point x="17.406060606060606" y="891.2121212121211"/>
      <point x="15.772727272727272" y="872.2878787878788"/>
      <point x="15.772727272727272" y="857.3080808080808" type="curve" smooth="yes"/>
      <point x="15.772727272727272" y="767.819191919192"/>
      <point x="52.365656565656565" y="728.8545454545455"/>
      <point x="124.24141414141414" y="728.8545454545455" type="curve" smooth="yes"/>
      <point x="177.38484848484848" y="728.8545454545455"/>
      <point x="207.34242424242424" y="740.929292929293"/>
      <point x="259.9525252525253" y="740.929292929293" type="curve" smooth="yes"/>
      <point x="316.5353535353536" y="740.929292929293"/>
      <point x="336.7575757575758" y="693.3636363636364"/>
    </contour>
    <component base="ddha-beng"/>
  </outline>
</glyph>
<glyph name="ttha-beng" format="2">
  <advance width="479.4808080808081"/>
  <unicode hex="09A0"/>
  <anchor x="279.87676767676766" y="3.9393939393939394" name="bottom"/>
  <anchor x="397.0010101010101" y="-23.60606060606061" name="bottom.rakaar"/>
  <anchor x="304.5737373737374" y="17.333333333333332" name="bottom.rvocalic"/>
  <anchor x="283.60606060606057" y="0.0" name="bottom.virama"/>
  <anchor x="368.96363636363634" y="556.3777777777779" name="top"/>
  <anchor x="372.7191919191919" y="616.7666666666667" name="topleft"/>
  <anchor x="269.1353535353535" y="595.2121212121212" name="topright"/>
  <anchor x="239.3848484848485" y="0.0" name="vedic"/>
  <outline>
    <contour>
      <point x="249.35252525252525" y="17.606060606060606" type="curve" smooth="yes"/>
      <point x="351.17171717171715" y="17.606060606060606"/>
      <point x="414.23333333333335" y="93.08282828282829"/>
      <point x="414.23333333333335" y="216.18080808080808" type="curve" smooth="yes"/>
      <point x="414.23333333333335" y="346.0505050505051"/>
      <point x="350.32929292929293" y="463.969696969697"/>
      <point x="249.03030303030303" y="595.2121212121212" type="curve"/>
      <point x="499.1353535353536" y="595.2121212121212" type="line"/>
      <point x="482.6484848484849" y="622.0" type="line"/>
      <point x="220.35555555555555" y="622.0" type="line"/>
      <point x="187.8121212121212" y="667.0909090909091"/>
      <point x="156.20707070707073" y="718.0464646464646"/>
      <point x="156.20707070707073" y="774.279797979798" type="curve" smooth="yes"/>
      <point x="156.20707070707073" y="814.5090909090909"/>
      <point x="172.19393939393942" y="845.0282828282828"/>
      <point x="215.29595959595957" y="873.4545454545455" type="curve"/>
      <point x="191.42626262626263" y="901.7878787878788" type="line"/>
      <point x="147.87272727272727" y="873.3919191919192"/>
      <point x="125.33636363636364" y="837.4636363636364"/>
      <point x="125.33636363636364" y="785.0868686868687" type="curve" smooth="yes"/>
      <point x="125.33636363636364" y="727.9515151515152"/>
      <point x="152.3212121212121" y="677.8181818181819"/>
      <point x="190.90101010101012" y="622.0" type="curve"/>
      <point x="-19.654545454545456" y="622.0" type="line"/>
      <point x="-2.456565656565657" y="595.2121212121212" type="line"/>
      <point x="202.69191919191917" y="595.2121212121212" type="line"/>
      <point x="219.77777777777777" y="564.939393939394"/>
      <point x="227.33636363636364" y="506.0828282828283"/>
      <point x="227.33636363636364" y="464.90303030303033" type="curve" smooth="yes"/>
      <point x="227.33636363636364" y="350.189898989899"/>
      <point x="183.7707070707071" y="274.00909090909096"/>
      <point x="48.28686868686868" y="241.16868686868685" type="curve"/>
      <point x="72.86565656565658" y="93.5929292929293"/>
      <point x="146.03939393939393" y="17.606060606060606"/>
    </contour>
    <contour>
      <point x="245.85151515151517" y="49.87777777777778" type="curve" smooth="yes"/>
      <point x="153.06464646464647" y="49.87777777777778"/>
      <point x="98.62626262626263" y="133.43737373737372"/>
      <point x="86.67878787878787" y="229.85858585858585" type="curve"/>
      <point x="76.37474747474747" y="208.10303030303032" type="line"/>
      <point x="188.64040404040404" y="236.7959595959596"/>
      <point x="255.64040404040404" y="305.76666666666665"/>
      <point x="255.64040404040404" y="440.5191919191919" type="curve" smooth="yes"/>
      <point x="255.64040404040404" y="497.7191919191919"/>
      <point x="243.9232323232323" y="552.4242424242424"/>
      <point x="223.310101010101" y="603.1212121212121" type="curve"/>
      <point x="219.63535353535354" y="599.969696969697" type="line"/>
      <point x="301.8989898989899" y="482.44444444444446"/>
      <point x="378.97878787878784" y="366.0868686868687"/>
      <point x="378.97878787878784" y="226.56969696969696" type="curve" smooth="yes"/>
      <point x="378.97878787878784" y="97.66969696969697"/>
      <point x="314.3424242424243" y="49.87777777777778"/>
    </contour>
  </outline>
</glyph>
<glyph name="dda-beng" format="2">
  <advance width="562.3727272727273"/>
  <unicode hex="09A1"/>
  <anchor x="358.51414141414136" y="58.42424242424242" name="bottom"/>
  <anchor x="448.24242424242425" y="-21.757575757575758" name="bottom.rakaar"/>
  <anchor x="374.80606060606067" y="76.93939393939394" name="bottom.rvocalic"/>
  <anchor x="342.88989898989894" y="26.606060606060606" name="bottom.virama"/>
  <anchor x="297.3333333333333" y="-22.60606060606061" name="nukta"/>
  <anchor x="258.2444444444444" y="595.2121212121212" name="top"/>
  <anchor x="260.87777777777774" y="595.2121212121212" name="topright"/>
  <anchor x="281.14747474747475" y="0.0" name="vedic"/>
  <outline>
    <contour>
      <point x="328.9777777777778" y="76.78787878787878" type="curve" smooth="yes"/>
      <point x="447.69191919191917" y="76.78787878787878"/>
      <point x="510.94242424242424" y="158.51616161616164"/>
      <point x="510.94242424242424" y="278.30909090909086" type="curve" smooth="yes"/>
      <point x="510.94242424242424" y="361.6272727272727"/>
      <point x="482.45757575757574" y="415.6020202020202"/>
      <point x="449.3939393939394" y="449.589898989899" type="curve"/>
      <point x="408.96060606060604" y="386.41212121212124"/>
      <point x="350.66161616161617" y="328.710101010101"/>
      <point x="301.3010101010101" y="328.710101010101" type="curve" smooth="yes"/>
      <point x="272.8606060606061" y="328.710101010101"/>
      <point x="259.02222222222224" y="344.72424242424245"/>
      <point x="259.02222222222224" y="370.8131313131313" type="curve" smooth="yes"/>
      <point x="259.02222222222224" y="595.2121212121212" type="line"/>
      <point x="582.0272727272727" y="595.2121212121212" type="line"/>
      <point x="564.4626262626263" y="622.0" type="line"/>
      <point x="-19.654545454545456" y="622.0" type="line"/>
      <point x="-2.456565656565657" y="595.2121212121212" type="line"/>
      <point x="229.9686868686869" y="595.2121212121212" type="line"/>
      <point x="229.9686868686869" y="368.7757575757576" type="line" smooth="yes"/>
      <point x="229.9686868686869" y="338.160606060606"/>
      <point x="241.23232323232324" y="320.19494949494947"/>
      <point x="256.61717171717174" y="308.93939393939394" type="curve" smooth="yes"/>
      <point x="271.020202020202" y="298.24242424242425"/>
      <point x="287.1545454545455" y="293.510101010101"/>
      <point x="306.13434343434346" y="293.510101010101" type="curve" smooth="yes"/>
      <point x="359.21212121212125" y="293.510101010101"/>
      <point x="415.4080808080808" y="336.0464646464646"/>
      <point x="464.93535353535344" y="407.4323232323232" type="curve"/>
      <point x="444.53636363636366" y="407.5969696969697" type="line"/>
      <point x="464.2444444444444" y="386.23535353535357"/>
      <point x="482.6808080808081" y="350.83434343434345"/>
      <point x="482.6808080808081" y="287.3131313131313" type="curve" smooth="yes"/>
      <point x="482.6808080808081" y="174.02626262626262"/>
      <point x="421.93636363636364" y="115.82020202020202"/>
      <point x="329.82121212121217" y="115.82020202020202" type="curve" smooth="yes"/>
      <point x="179.63333333333333" y="115.82020202020202"/>
      <point x="111.9979797979798" y="262.7595959595959"/>
      <point x="60.09292929292929" y="500.3808080808081" type="curve"/>
      <point x="36.02626262626262" y="495.0747474747474" type="line"/>
      <point x="90.84444444444445" y="216.26767676767676"/>
      <point x="176.32424242424244" y="76.78787878787878"/>
    </contour>
  </outline>
</glyph>
<glyph name="ddha-beng" format="2">
  <advance width="440.25959595959597"/>
  <unicode hex="09A2"/>
  <anchor x="271.15555555555557" y="54.42424242424242" name="bottom"/>
  <anchor x="325.5191919191919" y="11.7020202020202" name="bottom.rakaar"/>
  <anchor x="259.9797979797979" y="62.27878787878788" name="bottom.rvocalic"/>
  <anchor x="218.22929292929297" y="46.91414141414141" name="bottom.virama"/>
  <anchor x="188.83535353535353" y="-40.484848484848484" name="nukta"/>
  <anchor x="117.31313131313131" y="595.2121212121212" name="top"/>
  <anchor x="119.86868686868686" y="595.2121212121212" name="topright"/>
  <anchor x="220.06262626262628" y="0.0" name="vedic"/>
  <outline>
    <contour>
      <point x="178.95858585858585" y="57.67171717171717" type="curve" smooth="yes"/>
      <point x="289.2080808080808" y="57.67171717171717"/>
      <point x="384.85050505050503" y="218.74343434343433"/>
      <point x="384.85050505050503" y="351.6969696969697" type="curve" smooth="yes"/>
      <point x="384.85050505050503" y="403.93535353535356"/>
      <point x="359.26666666666665" y="434.93939393939394"/>
      <point x="321.05757575757576" y="434.93939393939394" type="curve" smooth="yes"/>
      <point x="284.10909090909087" y="434.93939393939394"/>
      <point x="264.8181818181818" y="407.1222222222222"/>
      <point x="264.8181818181818" y="377.5929292929293" type="curve" smooth="yes"/>
      <point x="264.8181818181818" y="344.6050505050505"/>
      <point x="285.1292929292929" y="321.69191919191917"/>
      <point x="317.8070707070707" y="321.69191919191917" type="curve" smooth="yes"/>
      <point x="338.53131313131314" y="321.69191919191917"/>
      <point x="351.2828282828283" y="331.4626262626262"/>
      <point x="360.6848484848485" y="351.26767676767673" type="curve"/>
      <point x="348.6363636363637" y="359.3939393939394" type="line"/>
      <point x="346.0777777777778" y="221.92020202020203"/>
      <point x="258.85858585858585" y="90.55858585858586"/>
      <point x="176.58282828282827" y="90.55858585858586" type="curve" smooth="yes"/>
      <point x="138.2" y="90.55858585858586"/>
      <point x="115.2909090909091" y="117.23939393939395"/>
      <point x="115.2909090909091" y="156.73737373737373" type="curve" smooth="yes"/>
      <point x="115.2909090909091" y="595.2121212121212" type="line"/>
      <point x="459.91414141414145" y="595.2121212121212" type="line"/>
      <point x="442.7161616161616" y="622.0" type="line"/>
      <point x="-19.654545454545456" y="622.0" type="line"/>
      <point x="-1.8212121212121197" y="595.2121212121212" type="line"/>
      <point x="86.23737373737374" y="595.2121212121212" type="line"/>
      <point x="86.23737373737374" y="155.23636363636362" type="line" smooth="yes"/>
      <point x="86.23737373737374" y="96.20606060606062"/>
      <point x="124.56565656565657" y="57.67171717171717"/>
    </contour>
  </outline>
</glyph>
<glyph name="nna-beng" format="2">
  <advance width="493.03434343434344"/>
  <unicode hex="09A3"/>
  <anchor x="391.72525252525253" y="63.696969696969695" name="bottom"/>
  <anchor x="406.21919191919187" y="-14.03030303030303" name="bottom.rakaar"/>
  <anchor x="406.79696969696965" y="-1.290909090909091" name="bottom.rvocalic"/>
  <anchor x="398.11515151515147" y="5.212121212121212" name="bottom.virama"/>
  <anchor x="405.94141414141416" y="548.1818181818181" name="top"/>
  <anchor x="404.68383838383835" y="562.3212121212122" name="topright"/>
  <anchor x="246.26666666666665" y="0.0" name="vedic"/>
  <outline>
    <contour>
      <point x="403.71919191919187" y="-13.181818181818182" type="line"/>
      <point x="406.79696969696965" y="-12.181818181818182" type="line"/>
      <point x="406.79696969696965" y="595.2121212121212" type="line"/>
      <point x="512.6888888888889" y="595.2121212121212" type="line"/>
      <point x="495.35656565656564" y="622.0" type="line"/>
      <point x="406.56363636363636" y="622.0" type="line"/>
      <point x="403.5626262626263" y="661.8484848484849" type="line"/>
      <point x="381.45454545454544" y="679.0909090909091" type="line"/>
      <point x="377.74343434343433" y="678.0909090909091" type="line"/>
      <point x="377.74343434343433" y="559.4717171717172" type="line" smooth="yes"/>
      <point x="377.74343434343433" y="510.74444444444447"/>
      <point x="378.8010101010101" y="454.9121212121212"/>
      <point x="381.53333333333336" y="408.7232323232323" type="curve"/>
      <point x="387.7070707070707" y="407.6484848484849" type="line"/>
      <point x="315.1343434343434" y="576.911111111111"/>
      <point x="256.5010101010101" y="627.0"/>
      <point x="179.92222222222222" y="627.0" type="curve" smooth="yes"/>
      <point x="107.47070707070708" y="627.0"/>
      <point x="48.89090909090909" y="571.2242424242424"/>
      <point x="48.89090909090909" y="475.7414141414141" type="curve" smooth="yes"/>
      <point x="48.89090909090909" y="384.84747474747473"/>
      <point x="104.05656565656567" y="320.9090909090909"/>
      <point x="180.64444444444445" y="320.9090909090909" type="curve" smooth="yes"/>
      <point x="222.76161616161616" y="320.9090909090909"/>
      <point x="247.12828282828283" y="344.6666666666667"/>
      <point x="247.12828282828283" y="382.05858585858584" type="curve" smooth="yes"/>
      <point x="247.12828282828283" y="414.3757575757576"/>
      <point x="226.8949494949495" y="437.7111111111111"/>
      <point x="194.720202020202" y="437.7111111111111" type="curve" smooth="yes"/>
      <point x="165.63939393939393" y="437.7111111111111"/>
      <point x="144.63939393939395" y="415.95656565656566"/>
      <point x="144.63939393939395" y="385.77474747474747" type="curve" smooth="yes"/>
      <point x="144.63939393939395" y="367.1818181818182"/>
      <point x="152.5787878787879" y="351.75757575757575"/>
      <point x="162.44040404040405" y="345.27575757575755" type="curve"/>
      <point x="180.8909090909091" y="358.72727272727275" type="line"/>
      <point x="173.910101010101" y="356.72727272727275"/>
      <point x="166.87272727272725" y="356.5151515151515"/>
      <point x="160.46868686868686" y="356.5151515151515" type="curve" smooth="yes"/>
      <point x="118.41212121212122" y="356.5151515151515"/>
      <point x="78.02222222222223" y="400.69797979797977"/>
      <point x="78.02222222222223" y="471.2292929292929" type="curve" smooth="yes"/>
      <point x="78.02222222222223" y="549.7333333333333"/>
      <point x="129.28080808080807" y="589.3313131313132"/>
      <point x="184.46666666666667" y="589.3313131313132" type="curve" smooth="yes"/>
      <point x="261.8989898989899" y="589.3313131313132"/>
      <point x="314.869696969697" y="528.1484848484848"/>
      <point x="383.77878787878785" y="363.90303030303033" type="curve"/>
      <point x="377.74343434343433" y="399.1363636363637" type="line"/>
      <point x="377.74343434343433" y="3.0" type="line"/>
    </contour>
  </outline>
</glyph>
<glyph name="ta-beng" format="2">
  <advance width="567.630303030303"/>
  <unicode hex="09A4"/>
  <anchor x="384.17272727272723" y="67.78787878787878" name="bottom"/>
  <anchor x="463.560606060606" y="-13.969696969696969" name="bottom.rakaar"/>
  <anchor x="392.42121212121214" y="84.93939393939394" name="bottom.rvocalic"/>
  <anchor x="357.91919191919186" y="34.39393939393939" name="bottom.virama"/>
  <anchor x="341.81818181818176" y="595.2121212121212" name="top"/>
  <anchor x="344.4515151515151" y="595.2121212121212" name="topright"/>
  <anchor x="283.67070707070707" y="0.0" name="vedic"/>
  <outline>
    <contour>
      <point x="347.6" y="84.57575757575758" type="curve" smooth="yes"/>
      <point x="439.6545454545455" y="84.57575757575758"/>
      <point x="513.8383838383837" y="139.83434343434342"/>
      <point x="515.8343434343434" y="272.42727272727274" type="curve" smooth="yes"/>
      <point x="517.830303030303" y="398.0171717171717"/>
      <point x="444.1848484848485" y="484.3373737373737"/>
      <point x="332.6171717171717" y="484.3373737373737" type="curve" smooth="yes"/>
      <point x="269.1484848484849" y="484.3373737373737"/>
      <point x="240.65858585858587" y="453.1181818181819"/>
      <point x="240.65858585858587" y="408.7333333333333" type="curve" smooth="yes"/>
      <point x="240.65858585858587" y="370.5313131313131"/>
      <point x="264.969696969697" y="342.7717171717172"/>
      <point x="303.9373737373737" y="342.7717171717172" type="curve" smooth="yes"/>
      <point x="342.3818181818182" y="342.7717171717172"/>
      <point x="362.520202020202" y="369.8767676767677"/>
      <point x="362.520202020202" y="406.1111111111111" type="curve" smooth="yes"/>
      <point x="362.520202020202" y="430.4252525252525"/>
      <point x="351.4616161616162" y="453.9878787878788"/>
      <point x="334.20000000000005" y="463.10505050505054" type="curve"/>
      <point x="306.5707070707071" y="432.65858585858587" type="line"/>
      <point x="316.1838383838384" y="439.3111111111111"/>
      <point x="334.1565656565657" y="445.95959595959596"/>
      <point x="356.93333333333334" y="445.95959595959596" type="curve" smooth="yes"/>
      <point x="421.9616161616162" y="445.95959595959596"/>
      <point x="487.56969696969696" y="390.4343434343434"/>
      <point x="487.56969696969696" y="283.2393939393939" type="curve" smooth="yes"/>
      <point x="487.56969696969696" y="175.03838383838385"/>
      <point x="430.6151515151516" y="123.74242424242425"/>
      <point x="344.98383838383836" y="123.74242424242425" type="curve" smooth="yes"/>
      <point x="229.8767676767677" y="123.74242424242425"/>
      <point x="125.9070707070707" y="224.44444444444443"/>
      <point x="52.91616161616162" y="504.84747474747473" type="curve"/>
      <point x="29.48282828282828" y="498.82828282828285" type="line"/>
      <point x="105.54444444444445" y="186.010101010101"/>
      <point x="219.5030303030303" y="84.57575757575758"/>
    </contour>
    <contour>
      <point x="-2.6686868686868688" y="595.2121212121212" type="line"/>
      <point x="587.2848484848485" y="595.2121212121212" type="line"/>
      <point x="569.7979797979797" y="622.0" type="line"/>
      <point x="-19.654545454545456" y="622.0" type="line"/>
    </contour>
  </outline>
</glyph>
<glyph name="tha-beng" format="2">
  <advance width="489.7363636363637"/>
  <unicode hex="09A5"/>
  <anchor x="395.13737373737376" y="15.030303030303031" name="bottom"/>
  <anchor x="402.92121212121214" y="45.57575757575758" name="bottom.rakaar"/>
  <anchor x="403.4989898989899" y="7.272727272727273" name="bottom.rvocalic"/>
  <anchor x="393.5777777777778" y="10.517171717171717" name="bottom.virama"/>
  <anchor x="402.64343434343436" y="548.1818181818181" name="top"/>
  <anchor x="401.38585858585856" y="562.3212121212122" name="topright"/>
  <anchor x="244.68484848484852" y="0.0" name="vedic"/>
  <outline>
    <contour>
      <point x="400.0747474747475" y="-5.121212121212121" type="line"/>
      <point x="403.4989898989899" y="-4.121212121212121" type="line"/>
      <point x="403.4989898989899" y="595.2121212121212" type="line"/>
      <point x="509.39090909090913" y="595.2121212121212" type="line"/>
      <point x="492.05858585858584" y="622.0" type="line"/>
      <point x="403.26565656565657" y="622.0" type="line"/>
      <point x="400.26464646464643" y="661.8484848484849" type="line"/>
      <point x="378.1565656565656" y="679.0909090909091" type="line"/>
      <point x="374.4454545454545" y="678.0909090909091" type="line"/>
      <point x="374.4454545454545" y="47.61616161616161" type="line"/>
      <point x="383.0444444444444" y="52.91111111111111" type="line"/>
      <point x="328.26262626262627" y="178.12121212121212"/>
      <point x="220.46969696969694" y="272.0393939393939"/>
      <point x="98.47474747474749" y="317.40303030303033" type="curve"/>
      <point x="104.7060606060606" y="303.19494949494947" type="line"/>
      <point x="227.01717171717172" y="323.06060606060606"/>
      <point x="283.74343434343433" y="382.22323232323237"/>
      <point x="283.74343434343433" y="472.05858585858584" type="curve" smooth="yes"/>
      <point x="283.74343434343433" y="575.9969696969697"/>
      <point x="219.22828282828283" y="623.4242424242424"/>
      <point x="146.18282828282827" y="623.4242424242424" type="curve" smooth="yes"/>
      <point x="73.24949494949495" y="623.4242424242424"/>
      <point x="29.234343434343433" y="575.2444444444444"/>
      <point x="29.234343434343433" y="528.0616161616161" type="curve" smooth="yes"/>
      <point x="29.234343434343433" y="490.82222222222225"/>
      <point x="51.275757575757574" y="468.2020202020202"/>
      <point x="81.04747474747475" y="468.2020202020202" type="curve" smooth="yes"/>
      <point x="108.27979797979798" y="468.2020202020202"/>
      <point x="126.5868686868687" y="485.8020202020202"/>
      <point x="126.5868686868687" y="514.9030303030303" type="curve" smooth="yes"/>
      <point x="126.5868686868687" y="538.3858585858586"/>
      <point x="112.5909090909091" y="560.7292929292929"/>
      <point x="80.75858585858587" y="561.1585858585859" type="curve"/>
      <point x="82.95050505050504" y="546.1212121212121" type="line"/>
      <point x="89.23737373737374" y="566.2787878787879"/>
      <point x="112.08888888888889" y="591.4020202020203"/>
      <point x="157.4020202020202" y="591.4020202020203" type="curve" smooth="yes"/>
      <point x="222.59090909090912" y="591.4020202020203"/>
      <point x="254.63333333333335" y="541.3353535353535"/>
      <point x="254.63333333333335" y="479.4868686868687" type="curve" smooth="yes"/>
      <point x="254.63333333333335" y="383.6020202020202"/>
      <point x="164.41818181818184" y="343.61818181818177"/>
      <point x="59.53939393939394" y="335.8676767676768" type="curve"/>
      <point x="77.35454545454546" y="284.55555555555554" type="line"/>
      <point x="209.32626262626263" y="245.810101010101"/>
      <point x="315.2919191919192" y="151.85353535353536"/>
      <point x="379.12020202020204" y="13.468686868686868" type="curve"/>
    </contour>
  </outline>
</glyph>
<glyph name="da-beng" format="2">
  <advance width="458.22121212121215"/>
  <unicode hex="09A6"/>
  <anchor x="369.0777777777778" y="80.17171717171718" name="bottom"/>
  <anchor x="384.4171717171717" y="70.0" name="bottom.rakaar"/>
  <anchor x="378.5262626262626" y="12.634343434343435" name="bottom.rvocalic"/>
  <anchor x="376.22222222222223" y="0.0" name="bottom.virama"/>
  <anchor x="110.36060606060606" y="595.2121212121212" name="top"/>
  <anchor x="113.28282828282829" y="595.2121212121212" name="topright"/>
  <anchor x="228.7939393939394" y="0.0" name="vedic"/>
  <outline>
    <contour>
      <point x="361.63838383838385" y="-0.9272727272727279" type="curve"/>
      <point x="384.5141414141414" y="7.9393939393939394" type="line"/>
      <point x="365.9232323232323" y="71.30101010101009"/>
      <point x="349.16363636363633" y="131.6070707070707"/>
      <point x="349.16363636363633" y="222.83333333333331" type="curve" smooth="yes"/>
      <point x="349.16363636363633" y="314.07878787878786"/>
      <point x="369.3868686868687" y="391.27272727272725"/>
      <point x="396.12020202020204" y="437.6969696969697" type="curve"/>
      <point x="357.979797979798" y="476.8151515151515" type="line"/>
      <point x="275.62121212121207" y="432.3606060606061"/>
      <point x="153.2686868686869" y="321.1929292929293"/>
      <point x="96.88585858585859" y="245.0989898989899" type="curve"/>
      <point x="111.13838383838385" y="236.07676767676767" type="line"/>
      <point x="111.13838383838385" y="595.2121212121212" type="line"/>
      <point x="477.87575757575763" y="595.2121212121212" type="line"/>
      <point x="461.4656565656566" y="622.0" type="line"/>
      <point x="-19.654545454545456" y="622.0" type="line"/>
      <point x="-1.6686868686868688" y="595.2121212121212" type="line"/>
      <point x="82.08484848484848" y="595.2121212121212" type="line"/>
      <point x="82.08484848484848" y="221.30101010101006" type="line"/>
      <point x="109.31313131313131" y="204.7909090909091" type="line"/>
      <point x="188.6080808080808" y="302.18989898989895"/>
      <point x="296.5414141414141" y="398.3454545454545"/>
      <point x="368.9252525252525" y="438.2838383838384" type="curve"/>
      <point x="361.4787878787879" y="445.86262626262624" type="line"/>
      <point x="338.04242424242426" y="409.0747474747475"/>
      <point x="318.91818181818184" y="321.32020202020203"/>
      <point x="318.91818181818184" y="236.96363636363637" type="curve" smooth="yes"/>
      <point x="318.91818181818184" y="151.0848484848485"/>
      <point x="336.24040404040403" y="73.32222222222222"/>
    </contour>
  </outline>
</glyph>
